<svg id="svg" version="1.1" xmlns="http://www.w3.org/2000/svg" xmlns:xlink="http://www.w3.org/1999/xlink" width="400" height="400" viewBox="0, 0, 400,400"><g id="svgg"><path id="path0" d="M96.200 81.956 C 89.074 85.245,91.419 95.600,99.291 95.600 C 105.293 95.600,108.369 87.461,103.933 83.319 C 101.712 81.245,98.837 80.739,96.200 81.956 M67.721 100.860 C 67.238 101.104,66.550 101.919,66.193 102.670 C 64.380 106.493,69.044 109.817,72.031 106.831 C 75.004 103.857,71.474 98.965,67.721 100.860 M232.400 104.871 C 212.768 107.817,210.822 108.285,208.336 110.662 L 207.273 111.680 204.155 110.140 L 201.038 108.600 179.619 108.618 C 155.950 108.637,155.730 108.660,152.453 111.417 L 151.319 112.371 149.703 111.183 C 146.217 108.619,146.301 108.629,127.400 108.520 C 98.917 108.354,96.197 108.909,92.815 115.579 C 91.125 118.912,91.150 117.221,91.278 218.600 L 91.400 315.800 92.438 318.000 C 93.692 320.659,96.181 323.223,98.722 324.475 L 100.600 325.400 122.366 325.510 C 146.248 325.631,146.018 325.650,149.649 323.212 L 151.347 322.071 152.650 323.065 C 155.985 325.609,155.891 325.600,179.389 325.600 C 200.052 325.600,200.845 325.572,202.990 324.770 C 205.693 323.758,208.647 320.997,210.019 318.200 L 211.000 316.200 211.205 245.600 C 211.319 206.770,211.470 174.910,211.543 174.800 C 211.720 174.532,213.828 187.954,217.008 209.600 C 224.767 262.414,231.936 310.705,232.241 312.200 C 233.006 315.950,236.037 319.577,239.798 321.240 C 243.534 322.893,241.980 323.042,280.600 317.335 C 288.176 316.215,291.722 314.127,293.975 309.457 C 295.672 305.941,295.556 304.107,292.228 281.875 C 288.810 259.032,286.416 242.825,283.771 224.600 C 281.552 209.311,273.745 156.342,269.976 131.000 C 266.558 108.019,266.481 107.754,262.232 104.507 C 258.000 101.273,256.242 101.294,232.400 104.871 M258.207 111.268 C 259.011 112.146,259.604 113.287,259.753 114.246 C 260.883 121.509,278.151 238.752,281.427 261.400 C 281.968 265.140,283.594 276.120,285.041 285.800 C 288.091 306.202,288.077 307.061,284.680 308.619 C 283.593 309.117,246.803 314.800,244.660 314.800 C 241.478 314.800,239.873 312.417,239.006 306.400 C 238.415 302.297,235.374 281.749,231.371 254.800 C 229.870 244.694,224.844 210.549,222.599 195.200 C 221.843 190.030,219.784 175.990,218.023 164.000 C 211.182 117.398,211.446 119.661,212.610 117.692 C 213.889 115.525,214.909 115.270,233.800 112.394 C 254.793 109.198,256.248 109.131,258.207 111.268 M59.269 115.939 C 51.866 118.575,49.916 128.161,55.702 133.473 C 63.646 140.768,75.718 132.986,72.611 122.573 C 70.984 117.117,64.716 114.001,59.269 115.939 M145.620 117.835 C 147.631 119.846,147.581 117.332,147.581 217.200 C 147.581 318.491,147.664 314.645,145.427 316.700 L 144.012 318.000 123.566 318.000 C 100.399 318.000,100.937 318.067,99.558 315.030 C 98.844 313.458,98.817 309.961,98.809 217.326 C 98.800 117.183,98.751 119.975,100.527 118.056 C 102.001 116.464,102.395 116.437,123.693 116.520 L 144.385 116.600 145.620 117.835 M200.775 117.131 C 203.879 118.795,203.600 108.931,203.600 217.133 C 203.600 324.198,203.826 315.453,201.010 317.194 C 199.226 318.296,160.062 318.466,157.962 317.381 C 154.922 315.809,155.203 325.994,155.203 217.200 C 155.203 107.950,154.900 118.387,158.108 116.993 C 160.339 116.023,198.942 116.148,200.775 117.131 M64.546 123.629 C 65.879 124.678,65.961 126.564,64.730 127.874 C 62.905 129.817,59.840 128.517,59.840 125.800 C 59.840 123.130,62.406 121.946,64.546 123.629 M242.937 171.600 C 239.049 172.408,235.110 175.470,233.362 179.041 C 231.563 182.719,231.638 184.285,234.571 204.200 C 236.029 214.100,237.912 226.906,238.755 232.658 C 240.468 244.342,240.929 245.766,243.983 248.813 C 250.878 255.692,263.008 253.175,266.378 244.166 C 267.612 240.868,267.444 238.306,264.816 220.424 C 263.505 211.501,261.699 199.190,260.802 193.066 C 259.113 181.536,258.493 179.118,256.587 176.619 C 253.666 172.789,247.726 170.605,242.937 171.600 M119.600 176.642 C 114.889 177.904,110.958 181.907,109.825 186.597 C 109.466 188.083,109.492 246.414,109.853 247.912 C 112.819 260.238,129.547 261.823,135.663 250.357 L 136.600 248.600 136.600 217.200 L 136.600 185.800 135.486 183.790 C 132.064 177.620,126.051 174.914,119.600 176.642 M175.708 176.616 C 171.731 177.687,168.760 180.288,166.840 184.382 L 165.800 186.600 165.690 216.363 C 165.569 249.242,165.512 248.392,168.097 252.239 C 174.105 261.178,187.295 259.967,191.946 250.048 L 193.000 247.800 193.000 217.200 L 193.000 186.600 191.960 184.382 C 188.938 177.940,182.398 174.814,175.708 176.616 M247.000 179.239 C 249.031 179.790,251.109 181.761,251.583 183.586 C 252.194 185.940,259.600 237.374,259.599 239.252 C 259.594 244.115,254.061 246.892,250.057 244.041 C 247.721 242.377,248.308 245.589,240.339 190.905 C 239.206 183.133,239.718 181.217,243.369 179.559 C 245.311 178.676,245.022 178.702,247.000 179.239 M124.840 184.055 C 126.455 184.596,127.864 185.792,128.638 187.280 C 129.506 188.949,129.471 245.516,128.600 247.199 C 126.356 251.538,120.916 251.742,118.093 247.593 L 117.185 246.259 117.293 216.752 L 117.400 187.244 118.790 185.810 C 120.003 184.558,121.571 183.756,123.040 183.636 C 123.282 183.616,124.092 183.805,124.840 184.055 M182.015 184.500 C 183.319 185.157,184.043 185.881,184.700 187.185 L 185.600 188.970 185.600 217.200 L 185.600 245.430 184.700 247.206 C 182.429 251.686,176.371 251.686,174.100 247.206 L 173.200 245.430 173.200 217.200 L 173.200 188.970 174.100 187.185 C 175.030 185.341,177.604 183.600,179.400 183.600 C 179.857 183.600,181.034 184.005,182.015 184.500 M348.489 316.623 C 346.747 317.843,347.836 320.800,350.027 320.800 C 350.975 320.800,352.000 319.496,352.000 318.291 C 352.000 317.291,350.760 316.000,349.800 316.000 C 349.568 316.000,348.978 316.280,348.489 316.623 M334.400 316.684 C 333.041 317.183,332.451 318.213,331.573 321.618 C 331.066 323.588,330.501 325.200,330.320 325.200 C 330.138 325.200,328.691 324.840,327.103 324.400 C 322.144 323.026,319.792 323.864,319.880 326.974 C 319.939 329.030,320.895 329.891,324.171 330.838 C 325.727 331.287,327.387 331.810,327.859 332.000 L 328.718 332.346 327.764 335.673 C 326.683 339.442,326.797 340.825,328.285 341.995 C 330.900 344.052,333.232 342.469,334.464 337.800 C 335.539 333.729,335.345 333.869,338.615 334.804 C 343.647 336.243,346.000 335.462,346.000 332.353 C 346.000 330.050,344.827 329.063,341.024 328.167 C 337.303 327.289,337.339 327.356,338.386 323.255 C 339.682 318.180,337.977 315.369,334.400 316.684 M323.431 335.427 C 322.846 336.011,322.834 336.198,323.331 336.946 C 324.018 337.981,325.153 338.053,325.754 337.100 C 326.689 335.618,324.683 334.174,323.431 335.427 M304.080 343.280 C 303.429 343.931,303.475 344.509,304.300 346.006 C 304.974 347.231,304.972 347.294,304.235 347.739 C 302.510 348.779,301.961 349.580,302.405 350.409 C 302.904 351.343,304.331 351.439,305.424 350.613 C 306.513 349.789,306.620 349.829,307.547 351.400 C 309.039 353.930,311.522 352.803,310.265 350.167 C 309.391 348.334,309.399 348.291,310.823 347.450 C 311.777 346.887,312.019 346.493,311.923 345.664 C 311.769 344.331,310.484 344.065,308.975 345.053 C 307.943 345.729,307.882 345.726,307.344 344.978 C 305.698 342.688,305.023 342.337,304.080 343.280 " stroke="none" fill="#492842" fill-rule="evenodd"></path><path id="path1" d="M0.000 200.000 L 0.000 400.000 200.000 400.000 L 400.000 400.000 400.000 200.000 L 400.000 0.000 200.000 0.000 L 0.000 0.000 0.000 200.000 M102.400 81.820 C 109.356 85.385,106.842 95.948,99.026 95.991 C 92.787 96.026,89.194 88.424,93.261 83.792 C 95.751 80.955,99.243 80.201,102.400 81.820 M70.974 100.400 C 72.107 100.400,73.600 102.334,73.600 103.801 C 73.600 108.999,66.955 110.099,65.388 105.161 C 64.649 102.833,67.646 99.593,69.933 100.248 C 70.226 100.331,70.694 100.400,70.974 100.400 M265.000 101.561 C 269.405 103.608,269.975 105.038,272.038 119.200 C 272.920 125.250,273.981 132.540,274.398 135.400 C 274.814 138.260,275.808 145.010,276.606 150.400 C 277.405 155.790,278.225 161.460,278.429 163.000 C 278.633 164.540,279.061 167.420,279.379 169.400 C 279.697 171.380,280.237 174.980,280.579 177.400 C 280.921 179.820,281.659 184.770,282.219 188.400 C 282.779 192.030,283.482 196.800,283.782 199.000 C 284.806 206.522,286.811 220.195,287.801 226.400 C 288.345 229.810,289.505 237.550,290.380 243.600 C 291.254 249.650,292.520 258.290,293.193 262.800 C 293.866 267.310,295.132 275.950,296.006 282.000 C 296.880 288.050,297.775 294.080,297.995 295.400 C 298.752 299.935,298.347 302.612,296.623 304.465 C 296.079 305.050,295.507 306.040,295.353 306.665 C 293.374 314.705,290.645 316.148,272.399 318.804 C 264.810 319.909,255.630 321.273,252.000 321.837 C 237.691 324.057,233.029 320.706,230.936 306.701 C 229.714 298.527,226.154 274.314,225.393 269.000 C 222.241 247.001,216.371 207.237,215.031 198.800 C 214.563 195.854,214.485 203.012,214.443 252.400 C 214.393 312.112,214.408 311.635,212.611 313.600 C 212.108 314.150,211.470 315.320,211.194 316.200 C 209.851 320.477,206.910 323.703,203.030 325.154 C 200.727 326.016,200.463 326.024,178.651 325.913 L 156.600 325.800 154.800 324.855 C 153.810 324.335,152.624 323.566,152.165 323.146 C 151.343 322.394,151.314 322.395,150.298 323.194 C 149.730 323.641,148.306 324.453,147.133 324.999 L 145.000 325.992 123.154 325.996 L 101.307 326.000 98.433 324.562 C 95.097 322.893,92.940 320.490,91.626 316.977 L 90.794 314.753 90.897 216.677 L 91.000 118.600 92.167 116.072 C 95.725 108.366,99.054 107.641,131.233 107.560 C 151.999 107.508,152.938 107.579,154.045 109.290 C 154.192 109.518,155.049 109.411,156.190 109.024 C 157.235 108.669,158.925 108.364,159.945 108.345 C 160.965 108.327,163.070 108.051,164.622 107.733 C 169.094 106.816,206.881 107.116,208.646 108.082 C 209.828 108.730,209.992 108.726,211.864 108.015 C 212.949 107.603,215.179 107.074,216.818 106.840 C 218.458 106.605,227.238 105.331,236.329 104.007 C 245.419 102.683,253.699 101.582,254.729 101.560 C 255.758 101.538,257.050 101.376,257.600 101.200 C 259.488 100.595,263.324 100.782,265.000 101.561 M66.996 115.773 C 73.755 118.597,75.663 127.673,70.645 133.124 C 61.740 142.799,46.367 130.846,53.624 119.890 C 56.475 115.585,62.274 113.800,66.996 115.773 M100.400 118.600 L 99.400 119.664 99.400 217.200 L 99.400 314.736 100.400 315.819 C 102.416 318.004,102.400 318.002,123.087 317.972 C 133.599 317.956,142.560 317.789,143.000 317.600 C 143.465 317.400,136.759 317.240,127.000 317.219 C 117.760 317.198,109.516 317.022,108.679 316.828 C 106.952 316.427,104.407 314.829,104.403 314.143 C 104.401 313.891,104.122 313.579,103.782 313.448 C 101.693 312.647,101.817 318.298,101.600 213.868 L 101.400 117.535 100.400 118.600 M214.400 127.699 L 214.400 137.132 218.422 164.466 C 223.361 198.036,224.086 202.935,227.356 224.800 C 228.787 234.370,232.140 257.230,234.806 275.600 C 237.472 293.970,239.828 309.674,240.042 310.498 C 240.794 313.403,242.943 314.597,246.700 314.200 C 248.949 313.963,250.291 313.200,248.460 313.200 C 244.902 313.200,242.788 309.049,241.431 299.400 C 240.399 292.061,239.660 287.060,238.800 281.600 C 238.575 280.170,238.191 277.560,237.948 275.800 C 237.705 274.040,237.353 271.700,237.167 270.600 C 236.982 269.500,236.644 267.160,236.417 265.400 C 235.953 261.804,234.361 251.057,233.395 245.000 C 233.044 242.800,232.595 239.650,232.397 238.000 C 232.200 236.350,231.665 232.660,231.209 229.800 C 230.754 226.940,229.839 220.730,229.177 216.000 C 228.515 211.270,227.627 205.240,227.203 202.600 C 226.780 199.960,225.794 193.300,225.013 187.800 C 224.232 182.300,223.246 175.550,222.820 172.800 C 222.395 170.050,221.844 166.360,221.595 164.600 C 221.346 162.840,220.793 159.150,220.368 156.400 C 219.942 153.650,218.878 146.450,218.004 140.400 C 215.623 123.930,214.806 118.672,214.593 118.459 C 214.487 118.353,214.400 122.511,214.400 127.699 M60.800 124.000 C 59.738 125.062,59.788 126.461,60.926 127.530 C 62.678 129.176,65.200 128.179,65.200 125.839 C 65.200 123.429,62.499 122.301,60.800 124.000 M107.507 127.881 C 106.238 129.284,106.000 130.860,106.000 137.852 C 106.000 144.909,106.190 146.032,107.565 147.087 C 109.194 148.338,112.090 147.175,112.621 145.058 C 113.276 142.448,112.611 129.670,111.760 128.528 C 110.713 127.122,108.500 126.785,107.507 127.881 M220.829 128.254 C 219.849 129.500,219.839 129.754,220.570 135.200 C 221.962 145.568,222.192 146.394,223.894 147.170 C 225.249 147.787,227.341 147.086,227.917 145.822 C 228.591 144.342,226.931 131.451,225.743 128.940 C 224.795 126.936,222.155 126.568,220.829 128.254 M163.762 128.443 C 162.741 129.574,162.586 144.980,163.584 146.181 C 165.223 148.154,168.118 147.636,168.835 145.240 C 169.755 142.171,169.158 129.257,168.056 128.364 C 166.786 127.336,164.728 127.374,163.762 128.443 M224.561 155.275 C 223.734 156.874,223.952 159.217,226.412 175.200 C 226.869 178.170,227.414 181.860,227.622 183.400 C 227.831 184.940,228.265 187.730,228.586 189.600 C 228.908 191.470,229.722 196.960,230.395 201.800 C 231.068 206.640,231.882 212.310,232.206 214.400 C 232.529 216.490,233.057 220.180,233.380 222.600 C 233.702 225.020,234.343 229.430,234.802 232.400 C 235.262 235.370,235.978 240.230,236.393 243.200 C 237.166 248.730,240.061 268.533,240.779 273.200 C 240.999 274.630,241.288 276.700,241.423 277.800 C 241.557 278.900,241.906 281.240,242.199 283.000 C 242.492 284.760,242.925 287.550,243.161 289.200 C 243.397 290.850,243.874 294.180,244.221 296.600 C 244.873 301.145,245.525 303.600,246.080 303.600 C 246.256 303.600,246.400 303.830,246.400 304.111 C 246.400 304.961,248.579 307.071,250.432 308.016 C 252.962 309.307,256.176 309.430,262.209 308.465 C 265.064 308.009,269.380 307.354,271.800 307.010 C 274.220 306.666,277.100 306.207,278.200 305.991 C 279.300 305.774,281.296 305.518,282.636 305.422 C 287.303 305.087,287.332 305.066,287.021 302.245 C 286.654 298.920,286.387 297.961,285.913 298.254 C 285.692 298.390,284.856 298.561,284.055 298.632 C 283.255 298.704,282.150 298.863,281.600 298.986 C 280.347 299.265,276.632 299.836,271.200 300.583 C 268.890 300.901,264.338 301.547,261.084 302.020 C 254.560 302.967,253.693 302.897,252.212 301.300 C 251.081 300.080,251.183 300.538,249.796 290.400 C 249.239 286.330,248.615 282.100,248.410 281.000 C 248.205 279.900,247.838 277.470,247.594 275.600 C 247.350 273.730,246.996 271.210,246.807 270.000 C 246.118 265.601,244.366 253.350,244.151 251.433 C 244.002 250.100,243.561 249.005,242.784 248.033 C 240.195 244.799,240.024 243.930,234.012 203.400 C 233.588 200.540,232.872 195.770,232.423 192.800 C 231.368 185.833,231.371 182.987,232.435 180.304 C 233.290 178.149,233.747 176.119,233.271 176.596 C 233.124 176.742,232.798 175.093,232.546 172.931 C 232.294 170.769,231.891 167.740,231.649 166.200 C 231.408 164.660,230.941 161.631,230.610 159.468 C 229.924 154.976,229.252 154.036,226.710 154.013 C 225.434 154.002,225.126 154.183,224.561 155.275 M107.210 155.190 C 106.776 155.624,106.320 156.389,106.198 156.890 C 105.645 159.154,106.191 303.777,106.758 305.200 C 107.713 307.596,109.865 309.875,112.304 311.073 L 114.600 312.200 130.363 312.315 C 139.032 312.379,146.258 312.512,146.421 312.613 C 147.127 313.049,147.515 308.616,146.955 306.526 L 146.720 305.651 131.071 305.614 C 114.473 305.574,114.243 305.548,113.233 303.663 C 112.789 302.833,112.542 255.941,112.978 255.235 C 113.124 255.000,112.688 254.115,112.009 253.271 C 108.876 249.373,109.014 250.912,108.887 218.259 C 108.761 185.549,108.721 186.091,111.568 181.927 C 112.422 180.678,113.045 179.578,112.951 179.484 C 112.857 179.390,112.738 174.203,112.687 167.957 C 112.602 157.645,112.525 156.499,111.851 155.500 C 110.914 154.112,108.452 153.948,107.210 155.190 M164.510 155.054 C 162.662 155.966,162.758 151.484,162.884 231.000 L 163.000 303.800 164.200 306.159 C 165.116 307.961,165.951 308.907,167.727 310.159 L 170.054 311.800 186.628 312.000 L 203.201 312.200 203.200 309.100 L 203.200 306.000 188.060 306.000 C 178.718 306.000,172.467 305.842,171.739 305.589 C 169.128 304.678,169.200 305.444,169.200 278.615 L 169.200 254.353 167.974 252.827 C 165.176 249.346,165.200 249.649,165.200 217.237 C 165.200 191.854,165.281 187.873,165.834 186.011 C 166.449 183.939,167.982 181.105,168.742 180.636 C 169.315 180.282,169.343 157.551,168.772 156.299 C 167.974 154.547,166.445 154.100,164.510 155.054 M249.200 170.802 C 248.216 171.060,248.221 171.069,249.463 171.356 C 250.157 171.516,251.723 172.248,252.943 172.983 C 254.393 173.856,255.233 174.159,255.369 173.859 C 255.483 173.607,255.538 173.670,255.491 174.000 C 255.444 174.330,255.879 175.230,256.457 176.000 C 258.831 179.161,260.583 186.495,262.189 200.000 C 262.280 200.770,262.822 204.460,263.393 208.200 C 265.441 221.619,266.060 225.756,267.657 236.703 L 268.139 240.007 268.859 238.910 C 270.274 236.753,270.023 229.606,268.195 220.000 C 267.488 216.288,266.377 208.735,265.988 205.000 C 265.681 202.052,264.863 197.017,264.525 196.000 C 264.415 195.670,264.244 194.247,264.144 192.838 C 264.044 191.429,263.797 189.968,263.595 189.590 C 263.393 189.213,263.118 187.395,262.985 185.552 C 262.739 182.164,261.930 177.721,261.217 175.846 C 259.897 172.373,253.481 169.680,249.200 170.802 M127.404 175.544 C 126.720 175.831,126.911 176.022,128.779 176.916 C 129.973 177.487,131.100 177.862,131.285 177.748 C 131.469 177.634,131.570 177.689,131.510 177.870 C 131.449 178.052,132.183 178.983,133.141 179.941 C 134.098 180.898,135.358 182.698,135.941 183.941 L 137.000 186.200 137.206 216.800 C 137.319 233.630,137.460 247.040,137.519 246.600 C 137.577 246.160,137.890 245.451,138.213 245.024 C 138.536 244.596,138.800 243.752,138.800 243.147 C 138.800 242.542,138.980 241.936,139.200 241.800 C 139.791 241.435,139.743 183.972,139.150 181.992 C 137.880 177.752,131.065 174.011,127.404 175.544 M184.500 175.486 C 182.740 175.709,182.866 176.061,185.022 176.948 C 187.400 177.926,191.033 181.273,191.973 183.353 C 193.568 186.881,193.595 187.443,193.608 217.000 L 193.621 245.800 194.625 243.843 L 195.630 241.887 195.648 212.393 C 195.665 183.726,195.643 182.851,194.865 181.143 C 194.042 179.337,191.331 176.800,190.223 176.800 C 189.881 176.800,189.600 176.632,189.600 176.427 C 189.600 175.769,186.615 175.218,184.500 175.486 M243.895 179.477 C 243.507 179.578,243.292 179.825,243.416 180.026 C 243.540 180.227,243.372 180.287,243.043 180.161 C 242.620 179.999,242.463 180.177,242.507 180.766 C 242.542 181.225,242.748 181.600,242.965 181.600 C 243.194 181.600,243.172 181.788,242.913 182.047 C 242.667 182.293,242.544 183.058,242.639 183.747 C 242.734 184.436,243.184 187.610,243.639 190.800 C 244.094 193.990,244.887 199.570,245.401 203.200 C 250.575 239.725,250.680 240.186,254.416 242.658 C 255.280 243.230,255.880 243.871,255.749 244.082 C 255.234 244.916,257.919 243.182,258.477 242.320 C 259.887 240.144,260.081 241.990,254.627 205.600 C 253.423 197.570,252.171 189.232,251.845 187.071 C 250.918 180.947,248.203 178.353,243.895 179.477 M241.311 181.300 C 240.529 182.311,240.263 182.932,240.736 182.640 C 241.210 182.347,242.157 180.800,241.863 180.800 C 241.772 180.800,241.524 181.025,241.311 181.300 M121.000 184.536 C 120.340 184.834,119.530 185.410,119.200 185.815 C 118.855 186.239,118.813 186.426,119.100 186.253 C 119.397 186.074,119.604 186.165,119.611 186.476 C 119.617 186.764,119.612 199.113,119.600 213.918 C 119.587 230.708,119.730 241.396,119.980 242.324 C 120.622 244.711,122.538 247.384,124.155 248.152 C 124.960 248.534,125.515 249.013,125.389 249.218 C 124.737 250.273,127.127 248.734,127.900 247.601 L 128.800 246.282 128.797 217.241 C 128.795 190.161,128.747 188.128,128.089 187.129 C 126.408 184.581,123.366 183.468,121.000 184.536 M176.703 184.900 C 176.112 185.354,176.059 187.997,176.126 213.800 L 176.200 242.200 177.434 244.400 C 179.904 248.806,183.143 250.014,184.548 247.053 C 185.497 245.053,185.546 189.430,184.600 187.601 C 183.192 184.878,178.720 183.349,176.703 184.900 M240.093 186.000 C 240.093 186.770,240.175 187.085,240.276 186.700 C 240.376 186.315,240.376 185.685,240.276 185.300 C 240.175 184.915,240.093 185.230,240.093 186.000 M120.930 186.907 C 120.653 187.364,120.000 186.840,120.000 186.161 C 120.000 185.674,120.100 185.661,120.558 186.084 C 120.865 186.368,121.032 186.738,120.930 186.907 M157.196 312.009 C 156.921 312.675,156.438 313.363,156.124 313.539 C 155.316 313.991,156.121 315.639,157.745 316.858 L 159.000 317.800 178.000 317.914 C 188.845 317.980,197.687 317.868,198.600 317.655 C 199.681 317.402,194.427 317.264,182.400 317.231 C 166.018 317.186,164.471 317.124,162.976 316.445 C 161.312 315.689,159.126 313.305,158.626 311.700 C 158.244 310.473,157.792 310.570,157.196 312.009 M352.232 317.262 C 353.500 319.714,350.668 322.149,348.459 320.508 C 345.915 318.618,347.746 315.214,350.916 315.938 C 351.310 316.028,351.902 316.624,352.232 317.262 M338.031 317.169 C 339.400 318.538,339.572 320.546,338.596 323.764 C 337.631 326.944,337.647 326.970,341.014 327.764 C 345.783 328.889,347.755 331.260,346.163 333.955 C 344.867 336.150,343.397 336.401,338.815 335.211 C 337.174 334.785,335.795 334.473,335.751 334.518 C 335.707 334.563,335.378 335.770,335.020 337.200 C 333.656 342.643,331.853 344.209,328.638 342.745 C 326.604 341.818,326.214 339.999,327.219 336.126 C 328.244 332.176,328.386 332.406,324.286 331.343 C 319.987 330.228,318.315 327.342,320.417 324.669 C 321.591 323.176,323.280 323.005,326.934 324.007 C 328.657 324.480,330.122 324.807,330.190 324.733 C 330.258 324.660,330.711 323.160,331.198 321.400 C 332.650 316.149,335.343 314.481,338.031 317.169 M325.771 335.029 C 327.244 336.502,325.653 338.771,323.753 337.906 C 322.043 337.127,322.743 334.462,324.671 334.412 C 324.931 334.405,325.426 334.683,325.771 335.029 M306.559 343.323 C 307.067 343.830,307.567 344.501,307.671 344.814 C 307.830 345.289,308.035 345.269,308.916 344.692 C 310.780 343.470,312.400 344.016,312.400 345.864 C 312.400 346.758,312.108 347.139,310.653 348.143 C 309.939 348.635,309.936 348.717,310.592 349.984 C 312.298 353.284,308.671 354.557,306.847 351.299 C 306.534 350.739,306.313 350.711,305.420 351.118 C 302.275 352.551,300.607 350.139,303.244 347.972 C 304.494 346.944,304.494 346.942,303.821 345.641 C 302.560 343.202,304.660 341.424,306.559 343.323 " stroke="none" fill="#d4f4ec" fill-rule="evenodd"></path><path id="path2" d="M261.200 101.500 C 261.530 101.618,262.295 102.061,262.900 102.484 C 263.505 102.908,264.000 103.075,264.000 102.857 C 264.000 102.638,264.225 102.382,264.500 102.288 C 264.775 102.194,264.572 102.190,264.049 102.279 C 263.391 102.391,263.160 102.281,263.297 101.920 C 263.434 101.558,263.055 101.383,262.047 101.343 C 261.251 101.312,260.870 101.382,261.200 101.500 M259.836 102.342 C 259.719 102.530,260.098 102.594,260.678 102.483 C 261.521 102.322,261.682 102.409,261.486 102.920 C 261.313 103.371,261.415 103.492,261.831 103.333 C 262.284 103.159,262.314 102.979,261.961 102.553 C 261.451 101.939,260.164 101.811,259.836 102.342 M262.674 103.752 C 262.554 104.063,263.101 104.890,263.931 105.652 L 265.400 107.000 264.000 105.440 C 263.032 104.361,262.834 103.963,263.357 104.149 C 263.998 104.377,264.036 104.326,263.608 103.809 C 262.989 103.064,262.939 103.061,262.674 103.752 M265.456 104.310 C 265.177 104.760,266.643 106.402,267.316 106.394 C 267.640 106.390,267.660 106.290,267.377 106.094 C 267.144 105.932,266.668 105.382,266.319 104.871 C 265.969 104.359,265.581 104.107,265.456 104.310 M266.200 107.200 C 266.407 107.851,266.352 108.018,266.003 107.802 C 265.601 107.553,266.003 108.737,266.575 109.488 C 266.612 109.536,266.660 108.951,266.682 108.187 C 266.703 107.423,266.539 106.686,266.318 106.549 C 266.063 106.392,266.020 106.632,266.200 107.200 M267.200 107.867 C 267.200 108.160,267.361 108.400,267.557 108.400 C 267.754 108.400,268.007 108.160,268.119 107.867 C 268.232 107.573,268.071 107.333,267.762 107.333 C 267.453 107.333,267.200 107.573,267.200 107.867 M186.600 107.990 C 203.072 108.153,208.006 108.317,208.722 108.726 C 209.229 109.015,209.841 109.186,210.082 109.106 C 210.323 109.026,209.572 108.654,208.414 108.280 C 206.528 107.671,204.170 107.609,185.854 107.690 L 165.400 107.780 186.600 107.990 M116.927 108.300 C 121.947 108.363,130.047 108.363,134.927 108.300 C 139.807 108.236,135.700 108.184,125.800 108.184 C 115.900 108.184,111.907 108.236,116.927 108.300 M148.900 108.276 C 149.620 108.464,149.831 109.004,149.300 109.301 C 149.135 109.393,149.241 109.408,149.536 109.333 C 150.449 109.102,150.889 109.647,150.197 110.152 C 149.607 110.584,149.624 110.697,150.383 111.385 C 151.046 111.985,151.320 112.039,151.709 111.647 C 152.098 111.256,152.062 111.205,151.540 111.404 C 151.178 111.542,150.762 111.462,150.617 111.227 C 150.460 110.974,150.708 110.800,151.225 110.800 C 151.953 110.800,152.016 110.701,151.604 110.205 C 151.204 109.723,151.232 109.563,151.753 109.363 C 152.106 109.227,152.290 108.946,152.162 108.739 C 152.022 108.512,151.708 108.545,151.376 108.820 C 150.951 109.173,150.674 109.131,150.183 108.640 C 149.831 108.288,149.241 108.021,148.871 108.046 C 148.274 108.088,148.277 108.113,148.900 108.276 M268.133 111.038 C 268.275 111.897,268.393 113.016,268.396 113.524 C 268.398 114.061,268.574 114.340,268.816 114.190 C 269.045 114.048,269.109 113.544,268.958 113.068 C 268.807 112.593,268.698 111.711,268.715 111.109 C 268.732 110.507,268.550 109.893,268.311 109.745 C 268.010 109.559,267.955 109.958,268.133 111.038 M206.800 110.600 C 206.522 110.935,206.479 111.200,206.702 111.200 C 206.922 111.200,207.326 110.930,207.600 110.600 C 207.878 110.265,207.921 110.000,207.698 110.000 C 207.478 110.000,207.074 110.270,206.800 110.600 M249.600 111.154 L 248.200 111.403 250.199 111.869 C 251.825 112.247,252.069 112.240,251.505 111.828 C 251.124 111.549,250.930 111.204,251.073 111.060 C 251.216 110.917,251.258 110.824,251.167 110.853 C 251.075 110.882,250.370 111.017,249.600 111.154 M237.600 113.084 C 238.536 113.286,238.548 113.320,237.800 113.622 C 237.053 113.923,237.061 113.946,237.933 113.972 C 239.189 114.010,238.841 113.021,237.569 112.934 C 236.604 112.869,236.604 112.870,237.600 113.084 M233.692 113.534 C 233.323 113.769,233.460 114.004,234.192 114.396 C 234.746 114.692,235.315 114.818,235.457 114.676 C 235.600 114.534,235.285 114.229,234.758 113.999 C 233.845 113.601,233.854 113.592,234.934 113.807 C 235.665 113.952,235.976 113.885,235.810 113.616 C 235.505 113.123,234.407 113.081,233.692 113.534 M228.800 114.757 C 228.800 115.001,228.541 115.200,228.224 115.200 C 227.907 115.200,227.521 115.404,227.367 115.653 C 227.056 116.157,231.054 115.800,232.565 115.188 C 233.223 114.922,233.046 114.845,231.733 114.825 C 230.816 114.811,229.781 114.691,229.433 114.557 C 229.085 114.424,228.800 114.514,228.800 114.757 M218.000 115.999 C 218.482 116.375,218.343 116.423,217.300 116.244 C 216.349 116.080,216.000 116.169,216.000 116.577 C 216.000 116.883,215.775 117.214,215.500 117.312 C 215.225 117.410,215.137 117.637,215.304 117.816 C 215.471 117.995,215.847 117.815,216.139 117.416 C 216.518 116.897,217.024 116.742,217.914 116.873 C 218.598 116.973,219.067 116.908,218.955 116.728 C 218.844 116.547,219.134 116.400,219.600 116.400 C 220.066 116.400,220.336 116.580,220.200 116.800 C 219.834 117.392,220.535 117.285,221.424 116.613 C 222.155 116.060,222.118 116.024,220.800 116.007 C 220.030 115.997,218.950 115.886,218.400 115.760 C 217.582 115.572,217.509 115.616,218.000 115.999 M223.017 115.972 C 222.891 116.177,222.970 116.458,223.193 116.596 C 223.671 116.891,224.400 116.517,224.400 115.976 C 224.400 115.490,223.317 115.487,223.017 115.972 M113.300 116.700 C 118.745 116.763,127.655 116.763,133.100 116.700 C 138.545 116.637,134.090 116.585,123.200 116.585 C 112.310 116.585,107.855 116.637,113.300 116.700 M158.343 117.276 C 157.971 117.534,158.100 117.567,158.750 117.383 C 159.486 117.175,159.626 117.237,159.373 117.657 C 159.125 118.070,159.233 118.059,159.823 117.613 C 160.250 117.290,160.653 116.998,160.717 116.963 C 160.781 116.928,160.395 116.900,159.859 116.900 C 159.324 116.900,158.641 117.069,158.343 117.276 M213.366 117.255 C 213.188 117.544,213.250 117.617,213.527 117.445 C 213.856 117.242,213.954 119.110,213.889 124.371 C 213.840 128.333,213.922 131.266,214.072 130.888 C 214.959 128.645,214.291 115.758,213.366 117.255 M103.500 117.465 C 103.775 117.576,104.013 118.057,104.028 118.533 C 104.055 119.369,104.068 119.371,104.374 118.600 C 104.687 117.809,104.240 117.184,103.400 117.238 C 103.180 117.252,103.225 117.354,103.500 117.465 M156.999 118.001 C 156.786 118.346,156.833 118.427,157.138 118.238 C 157.804 117.826,157.706 118.267,156.929 119.175 C 156.559 119.606,156.111 119.869,155.933 119.759 C 155.755 119.649,155.715 119.835,155.845 120.173 C 156.041 120.685,156.207 120.637,156.827 119.894 C 157.556 119.021,157.574 121.222,157.587 213.559 L 157.600 308.118 158.434 310.406 C 159.366 312.961,161.251 315.136,163.503 316.256 C 164.896 316.948,166.253 317.000,183.066 317.000 L 201.132 317.000 201.977 316.026 C 202.929 314.929,203.406 313.456,203.014 312.823 C 202.838 312.537,197.594 312.399,186.876 312.396 C 168.633 312.392,168.619 312.389,165.289 308.607 C 162.422 305.349,162.628 310.847,162.483 234.000 C 162.339 158.245,162.371 156.393,163.824 154.939 C 165.157 153.607,166.958 153.697,168.431 155.169 L 169.600 156.338 169.600 167.990 L 169.600 179.641 170.976 178.591 C 173.080 176.986,176.289 175.910,179.400 175.765 C 180.940 175.693,183.051 175.433,184.090 175.187 C 189.495 173.907,195.085 177.799,196.017 183.489 C 196.559 186.802,196.515 238.432,195.967 241.397 C 195.728 242.686,195.100 244.379,194.569 245.159 L 193.605 246.578 193.500 217.389 L 193.395 188.200 193.297 217.885 C 193.186 251.861,193.348 250.260,189.652 253.952 C 187.591 256.011,185.705 257.612,185.392 257.568 C 184.849 257.492,182.800 258.096,182.800 258.332 C 182.801 258.745,175.542 258.182,174.300 257.672 C 173.695 257.423,173.197 257.350,173.194 257.510 C 173.191 257.669,173.056 257.620,172.894 257.400 C 172.732 257.180,171.880 256.443,171.000 255.761 L 169.400 254.523 169.600 278.894 L 169.800 303.266 171.112 304.438 L 172.423 305.609 187.712 305.505 L 203.000 305.400 203.104 213.200 C 203.206 122.707,203.147 117.566,202.040 119.073 C 201.908 119.253,192.305 119.310,180.700 119.200 C 169.095 119.090,159.600 119.114,159.600 119.253 C 159.600 119.393,159.253 119.597,158.830 119.708 C 158.347 119.834,158.127 119.735,158.239 119.443 C 158.529 118.687,157.393 117.365,156.999 118.001 M144.480 118.480 C 144.216 118.744,144.003 119.149,144.006 119.380 C 144.009 119.611,144.189 119.530,144.406 119.200 C 144.754 118.670,144.844 118.669,145.182 119.195 C 145.484 119.665,145.550 119.602,145.497 118.895 C 145.421 117.884,145.176 117.784,144.480 118.480 M269.600 120.200 C 269.600 120.530,269.741 120.800,269.912 120.800 C 270.658 120.800,271.100 123.066,270.442 123.518 C 269.902 123.888,269.889 124.019,270.358 124.339 C 270.751 124.606,270.851 125.205,270.696 126.360 C 270.571 127.295,270.632 127.904,270.838 127.776 C 271.037 127.653,271.200 128.183,271.200 128.953 C 271.200 129.723,271.380 130.464,271.599 130.600 C 271.819 130.735,272.004 132.051,272.011 133.523 C 272.032 137.927,272.053 138.161,272.383 137.627 C 272.552 137.355,272.849 137.192,273.045 137.266 C 273.609 137.479,273.701 134.010,273.166 132.717 C 272.702 131.597,272.639 131.147,272.464 127.700 C 272.414 126.707,272.273 126.381,272.049 126.734 C 271.792 127.140,271.659 127.068,271.493 126.434 C 271.373 125.976,271.456 125.489,271.678 125.352 C 272.137 125.068,271.736 120.950,271.155 120.000 C 270.905 119.590,270.860 119.779,271.015 120.600 L 271.242 121.800 270.608 120.700 C 269.896 119.464,269.600 119.317,269.600 120.200 M90.997 217.200 C 90.997 270.550,91.043 292.375,91.100 265.700 C 91.157 239.025,91.157 195.375,91.100 168.700 C 91.043 142.025,90.997 163.850,90.997 217.200 M155.397 217.200 C 155.397 270.330,155.443 292.065,155.500 265.500 C 155.557 238.935,155.557 195.465,155.500 168.900 C 155.443 142.335,155.397 164.070,155.397 217.200 M167.355 127.183 C 169.309 127.926,169.601 129.265,169.594 137.480 C 169.587 146.795,168.815 148.594,165.172 147.794 C 162.834 147.280,162.600 146.337,162.600 137.402 C 162.600 128.682,162.869 127.472,164.890 127.084 C 165.391 126.988,165.923 126.884,166.074 126.854 C 166.225 126.825,166.801 126.972,167.355 127.183 M272.788 134.700 C 272.777 135.644,272.717 135.700,272.366 135.097 C 272.141 134.710,272.067 134.215,272.202 133.997 C 272.616 133.328,272.801 133.550,272.788 134.700 M273.228 138.566 C 272.930 138.925,272.805 139.338,272.950 139.483 C 273.323 139.857,274.122 138.967,273.930 138.391 C 273.820 138.060,273.603 138.114,273.228 138.566 M272.522 140.933 C 272.675 141.336,272.814 142.146,272.832 142.733 L 272.863 143.800 273.264 142.704 C 273.585 141.823,273.524 141.468,272.955 140.904 C 272.277 140.232,272.257 140.233,272.522 140.933 M274.000 143.024 C 274.000 143.587,274.163 143.946,274.362 143.823 C 274.562 143.700,274.631 143.239,274.516 142.800 C 274.228 141.699,274.000 141.798,274.000 143.024 M273.200 144.553 C 273.200 144.883,273.380 145.264,273.600 145.400 C 273.820 145.536,274.000 145.377,274.000 145.047 C 274.000 144.717,273.820 144.336,273.600 144.200 C 273.380 144.064,273.200 144.223,273.200 144.553 M274.064 146.219 C 273.431 147.609,273.485 149.171,274.216 150.572 C 274.624 151.355,274.758 152.351,274.618 153.572 C 274.430 155.204,274.452 155.272,274.821 154.200 C 275.048 153.540,275.147 151.920,275.041 150.600 L 274.847 148.200 275.384 150.000 C 276.065 152.280,276.143 151.070,275.531 147.746 C 275.016 144.953,274.762 144.688,274.064 146.219 M275.201 155.800 C 275.069 157.498,275.211 158.540,275.635 158.980 C 275.836 159.189,276.000 159.607,276.000 159.909 C 276.000 160.210,276.270 160.727,276.600 161.057 C 277.363 161.820,277.356 161.539,276.565 159.687 C 276.215 158.869,275.786 157.390,275.612 156.400 C 275.344 154.884,275.279 154.789,275.201 155.800 M274.400 159.775 C 274.400 160.145,274.565 160.345,274.766 160.221 C 274.967 160.097,275.223 160.221,275.334 160.498 C 275.460 160.811,275.549 160.830,275.568 160.549 C 275.586 160.301,275.330 159.874,275.000 159.600 C 274.507 159.191,274.400 159.222,274.400 159.775 M275.840 162.266 C 276.208 163.799,276.400 163.944,276.400 162.690 C 276.400 162.117,276.213 161.532,275.984 161.390 C 275.711 161.221,275.662 161.523,275.840 162.266 M277.057 163.100 C 276.948 163.485,276.758 164.430,276.633 165.200 L 276.407 166.600 276.913 165.277 C 277.192 164.549,277.550 164.084,277.710 164.243 C 277.869 164.403,278.000 164.053,278.000 163.467 C 278.000 162.271,277.360 162.022,277.057 163.100 M277.972 166.100 C 277.945 166.959,277.928 166.963,277.600 166.200 C 277.369 165.662,277.245 165.596,277.223 166.000 C 277.204 166.330,277.086 167.050,276.960 167.600 C 276.798 168.305,276.844 168.440,277.115 168.058 C 277.385 167.677,277.487 167.996,277.457 169.131 C 277.431 170.146,277.286 170.571,277.070 170.274 C 276.850 169.972,276.811 170.066,276.962 170.533 C 277.093 170.936,277.205 171.566,277.212 171.933 C 277.223 172.503,277.273 172.513,277.560 172.000 C 277.910 171.372,278.463 165.200,278.169 165.200 C 278.076 165.200,277.987 165.605,277.972 166.100 M244.700 171.082 C 245.195 171.178,246.005 171.178,246.500 171.082 C 246.995 170.987,246.590 170.909,245.600 170.909 C 244.610 170.909,244.205 170.987,244.700 171.082 M278.649 175.557 C 278.474 177.624,278.243 179.604,278.135 179.957 C 277.957 180.542,277.977 180.542,278.354 179.964 C 279.088 178.838,279.515 175.854,279.237 173.800 C 278.979 171.891,278.952 171.970,278.649 175.557 M122.705 175.883 C 123.202 175.979,123.922 175.975,124.305 175.875 C 124.687 175.775,124.280 175.696,123.400 175.701 C 122.520 175.705,122.207 175.787,122.705 175.883 M279.483 178.611 C 279.354 179.265,279.083 180.560,278.880 181.489 C 278.677 182.418,278.643 183.097,278.803 182.998 C 278.964 182.899,279.240 182.049,279.418 181.109 C 279.700 179.622,279.762 179.543,279.898 180.505 C 279.984 181.112,279.772 182.175,279.427 182.866 C 278.640 184.443,278.632 185.363,279.400 186.000 C 279.730 186.274,280.018 186.971,280.040 187.549 C 280.062 188.127,280.239 189.050,280.434 189.600 C 280.698 190.343,280.745 190.074,280.620 188.555 C 280.520 187.352,280.635 186.325,280.899 186.061 C 281.145 185.815,281.214 185.481,281.052 185.318 C 280.889 185.156,280.613 185.255,280.438 185.539 C 280.262 185.823,280.187 184.541,280.270 182.691 C 280.435 179.013,279.925 176.366,279.483 178.611 M279.645 184.915 C 279.318 185.242,279.200 185.197,279.200 184.747 C 279.200 183.952,279.738 183.414,279.937 184.010 C 280.021 184.263,279.890 184.670,279.645 184.915 M174.920 186.269 L 173.800 187.737 173.683 216.169 C 173.619 231.806,173.671 245.178,173.799 245.884 C 174.314 248.742,177.992 250.888,180.887 250.021 L 182.472 249.546 180.736 248.443 C 178.810 247.220,176.985 244.841,176.396 242.786 C 175.982 241.342,175.806 185.838,176.213 185.179 C 176.816 184.203,175.920 184.958,174.920 186.269 M279.448 188.600 C 279.573 189.700,279.841 190.870,280.044 191.200 C 280.435 191.840,280.352 191.266,279.608 188.200 C 279.232 186.647,279.227 186.659,279.448 188.600 M281.293 188.400 C 281.293 189.170,281.375 189.485,281.476 189.100 C 281.576 188.715,281.576 188.085,281.476 187.700 C 281.375 187.315,281.293 187.630,281.293 188.400 M165.390 217.200 C 165.390 233.150,165.439 239.675,165.500 231.700 C 165.560 223.725,165.560 210.675,165.500 202.700 C 165.439 194.725,165.390 201.250,165.390 217.200 M281.874 194.200 C 281.998 195.740,282.166 197.075,282.249 197.167 C 282.527 197.474,282.358 194.617,282.002 193.000 C 281.731 191.770,281.702 192.048,281.874 194.200 M213.613 192.820 C 213.620 193.139,213.908 193.760,214.254 194.200 C 214.865 194.977,214.875 194.971,214.596 194.000 C 214.247 192.779,213.595 191.997,213.613 192.820 M280.033 192.800 C 280.086 193.932,281.136 196.285,281.170 195.346 C 281.186 194.876,280.931 193.976,280.602 193.346 C 280.274 192.716,280.018 192.470,280.033 192.800 M281.314 199.800 C 281.317 200.900,281.395 201.303,281.487 200.695 C 281.579 200.086,281.577 199.186,281.482 198.695 C 281.387 198.203,281.311 198.700,281.314 199.800 M213.628 199.700 C 213.707 201.094,214.344 201.780,214.372 200.500 C 214.387 199.785,214.220 199.200,214.000 199.200 C 213.780 199.200,213.613 199.425,213.628 199.700 M282.006 200.633 C 282.009 201.495,282.170 202.449,282.363 202.754 C 282.578 203.093,282.632 202.549,282.504 201.354 C 282.242 198.917,281.998 198.564,282.006 200.633 M283.293 201.600 C 283.293 202.370,283.375 202.685,283.476 202.300 C 283.576 201.915,283.576 201.285,283.476 200.900 C 283.375 200.515,283.293 200.830,283.293 201.600 M214.142 205.800 C 214.141 207.780,214.208 208.640,214.292 207.712 C 214.376 206.784,214.377 205.164,214.295 204.112 C 214.212 203.060,214.143 203.820,214.142 205.800 M283.067 208.300 C 282.775 208.786,282.972 212.957,283.312 213.482 C 283.484 213.746,283.528 214.466,283.410 215.082 C 283.292 215.697,283.302 215.974,283.432 215.698 C 283.562 215.421,283.833 215.297,284.034 215.421 C 284.235 215.545,284.400 215.112,284.400 214.457 C 284.400 213.802,284.176 213.192,283.903 213.101 C 283.573 212.991,283.417 212.104,283.439 210.468 C 283.473 208.028,283.419 207.715,283.067 208.300 M283.880 209.150 C 283.505 210.960,283.527 211.293,284.000 211.000 C 284.220 210.864,284.421 211.168,284.446 211.676 C 284.472 212.184,284.563 212.330,284.650 212.000 C 284.736 211.670,284.661 210.590,284.483 209.600 L 284.159 207.800 283.880 209.150 M285.609 218.400 C 285.560 218.950,285.525 220.030,285.533 220.800 C 285.540 221.570,285.455 221.885,285.344 221.500 C 285.233 221.115,284.975 220.800,284.771 220.800 C 284.209 220.800,284.327 221.842,284.947 222.356 C 285.927 223.170,286.370 222.029,286.018 219.597 C 285.843 218.389,285.659 217.850,285.609 218.400 M285.646 226.676 C 285.621 227.598,285.780 228.464,286.000 228.600 C 286.220 228.736,286.400 229.039,286.400 229.273 C 286.400 229.524,286.124 229.474,285.725 229.149 C 285.124 228.660,285.086 228.688,285.379 229.400 C 285.560 229.840,285.928 231.100,286.198 232.200 L 286.687 234.200 286.644 231.486 C 286.613 229.601,286.765 228.669,287.139 228.438 C 287.571 228.171,287.519 227.954,286.882 227.352 C 286.445 226.938,285.998 226.240,285.890 225.800 C 285.781 225.360,285.672 225.754,285.646 226.676 M287.600 233.310 C 287.600 233.883,287.442 234.451,287.248 234.570 C 286.745 234.881,286.404 236.400,286.837 236.400 C 287.037 236.400,287.200 236.111,287.200 235.757 C 287.200 235.365,287.422 235.200,287.771 235.334 C 288.225 235.508,288.295 235.250,288.114 234.076 C 287.835 232.264,287.600 231.914,287.600 233.310 M285.693 235.600 C 285.693 236.370,285.775 236.685,285.876 236.300 C 285.976 235.915,285.976 235.285,285.876 234.900 C 285.775 234.515,285.693 234.830,285.693 235.600 M287.364 239.310 C 287.384 240.567,287.535 241.596,287.700 241.598 C 288.085 241.601,288.039 238.843,287.636 237.813 C 287.441 237.313,287.341 237.860,287.364 239.310 M287.935 246.510 C 287.815 247.533,287.910 247.856,288.286 247.712 C 288.873 247.486,288.952 246.459,288.443 245.656 C 288.202 245.276,288.048 245.535,287.935 246.510 M290.093 250.420 C 290.214 250.761,290.080 251.477,289.794 252.012 C 289.364 252.814,289.369 253.167,289.821 254.041 C 290.122 254.623,290.311 255.166,290.242 255.249 C 289.649 255.954,289.726 258.023,290.372 258.768 L 291.108 259.616 291.365 258.247 C 291.506 257.494,291.414 256.096,291.160 255.139 C 290.907 254.183,290.677 252.740,290.649 251.934 C 290.622 251.128,290.436 250.318,290.236 250.134 C 290.025 249.940,289.965 250.061,290.093 250.420 M290.632 257.901 C 290.197 258.337,290.031 257.767,290.308 256.783 L 290.584 255.800 290.724 256.734 C 290.801 257.248,290.760 257.773,290.632 257.901 M290.386 260.774 C 290.614 261.199,290.800 262.179,290.800 262.950 C 290.800 263.722,290.980 264.464,291.200 264.600 C 291.420 264.736,291.615 265.512,291.634 266.324 C 291.665 267.624,291.705 267.681,291.969 266.800 C 292.837 263.916,292.880 263.435,292.225 263.979 C 291.460 264.614,291.304 263.656,292.051 262.909 C 292.319 262.641,292.389 262.009,292.223 261.350 C 292.011 260.504,291.862 260.376,291.594 260.810 C 291.302 261.282,291.199 261.262,290.979 260.689 C 290.833 260.310,290.547 260.000,290.343 260.000 C 290.130 260.000,290.148 260.329,290.386 260.774 M292.406 270.300 C 292.403 270.795,292.580 271.200,292.800 271.200 C 293.301 271.200,293.301 270.776,292.800 270.000 C 292.486 269.515,292.411 269.572,292.406 270.300 M292.910 272.800 C 292.069 274.888,291.942 275.600,292.410 275.600 C 292.666 275.600,292.978 275.205,293.105 274.721 C 293.324 273.883,293.348 273.878,293.639 274.621 C 294.072 275.727,294.053 274.236,293.616 272.800 L 293.312 271.800 292.910 272.800 M293.782 284.000 C 293.782 285.348,293.851 285.504,294.152 284.830 C 294.379 284.321,294.379 283.679,294.152 283.170 C 293.851 282.496,293.782 282.652,293.782 284.000 M296.000 290.105 C 296.000 290.456,295.718 291.025,295.373 291.370 C 295.007 291.736,294.809 292.454,294.897 293.098 C 294.993 293.796,295.128 293.980,295.267 293.600 C 296.061 291.432,296.440 289.907,296.237 289.703 C 296.107 289.573,296.000 289.754,296.000 290.105 M295.240 295.476 C 295.193 296.499,295.954 297.122,296.389 296.418 C 296.605 296.068,296.763 296.126,296.954 296.624 C 297.100 297.004,297.323 297.210,297.450 297.083 C 297.577 296.956,297.416 296.472,297.091 296.008 C 296.539 295.220,296.479 295.212,296.195 295.882 C 295.927 296.513,295.853 296.479,295.585 295.600 C 295.302 294.673,295.277 294.664,295.240 295.476 M296.684 298.200 C 296.776 298.640,296.946 299.360,297.061 299.800 C 297.212 300.381,297.166 300.454,296.890 300.066 C 296.584 299.635,296.463 299.658,296.260 300.187 C 296.114 300.570,296.173 300.740,296.405 300.597 C 296.622 300.463,296.800 300.623,296.800 300.953 C 296.800 302.742,297.444 301.588,297.515 299.671 C 297.570 298.209,297.472 297.599,297.240 297.958 C 296.933 298.435,296.855 298.435,296.698 297.958 C 296.597 297.651,296.591 297.760,296.684 298.200 M203.342 309.000 C 203.341 310.980,203.408 311.840,203.492 310.912 C 203.576 309.984,203.577 308.364,203.495 307.312 C 203.412 306.260,203.343 307.020,203.342 309.000 M213.479 310.191 C 213.352 310.970,212.863 312.191,212.391 312.904 L 211.534 314.200 212.565 313.000 C 213.524 311.884,214.345 309.411,213.902 308.969 C 213.796 308.862,213.605 309.413,213.479 310.191 M156.093 311.200 C 156.093 311.970,156.175 312.285,156.276 311.900 C 156.376 311.515,156.376 310.885,156.276 310.500 C 156.175 310.115,156.093 310.430,156.093 311.200 " stroke="none" fill="#87cdb9" fill-rule="evenodd"></path><path id="path3" d="M257.600 101.185 C 256.887 101.402,256.772 101.550,257.200 101.701 C 261.461 103.199,261.939 103.476,264.145 105.723 C 265.731 107.339,266.396 107.819,266.202 107.206 C 266.002 106.577,266.053 106.386,266.368 106.580 C 266.617 106.734,266.771 107.252,266.711 107.730 C 266.651 108.209,266.921 109.770,267.311 111.200 C 267.867 113.235,273.123 148.031,274.275 157.297 C 274.405 158.340,274.756 159.397,275.055 159.646 C 275.355 159.895,275.597 160.301,275.594 160.549 C 275.591 160.797,275.413 160.730,275.200 160.400 C 274.661 159.565,274.683 160.094,275.396 165.000 C 277.969 182.713,281.399 205.985,282.410 212.600 C 285.144 230.480,287.562 246.494,287.845 248.600 C 287.964 249.480,289.489 260.010,291.234 272.000 C 292.979 283.990,294.676 295.650,295.004 297.912 C 295.332 300.174,295.600 302.739,295.600 303.612 C 295.600 305.548,295.924 305.600,297.112 303.855 C 298.389 301.980,298.615 299.175,297.862 294.540 C 297.510 292.373,296.590 286.190,295.817 280.800 C 295.044 275.410,293.862 267.310,293.191 262.800 C 292.519 258.290,291.254 249.650,290.380 243.600 C 289.505 237.550,288.345 229.810,287.801 226.400 C 286.811 220.195,284.806 206.522,283.782 199.000 C 283.482 196.800,282.779 192.030,282.219 188.400 C 281.659 184.770,280.921 179.820,280.579 177.400 C 280.237 174.980,279.697 171.380,279.379 169.400 C 279.061 167.420,278.633 164.540,278.429 163.000 C 278.225 161.460,277.405 155.790,276.606 150.400 C 275.808 145.010,274.814 138.260,274.398 135.400 C 269.817 103.946,270.279 106.240,268.047 103.852 C 265.520 101.150,261.271 100.065,257.600 101.185 M263.297 101.920 C 263.160 102.281,263.391 102.391,264.049 102.279 C 264.572 102.190,264.775 102.194,264.500 102.288 C 264.225 102.382,264.000 102.638,264.000 102.857 C 264.000 103.075,263.505 102.908,262.900 102.484 C 262.295 102.061,261.530 101.618,261.200 101.500 C 260.870 101.382,261.251 101.312,262.047 101.343 C 263.055 101.383,263.434 101.558,263.297 101.920 M262.000 102.600 C 262.344 103.015,262.359 103.200,262.049 103.200 C 261.802 103.200,261.600 103.033,261.600 102.828 C 261.600 102.623,261.195 102.378,260.700 102.282 C 259.838 102.116,259.836 102.107,260.651 102.054 C 261.119 102.025,261.726 102.270,262.000 102.600 M267.377 106.094 C 267.660 106.290,267.640 106.390,267.316 106.394 C 266.643 106.402,265.177 104.760,265.456 104.310 C 265.581 104.107,265.969 104.359,266.319 104.871 C 266.668 105.382,267.144 105.932,267.377 106.094 M127.800 107.584 L 109.000 107.812 126.000 107.911 C 145.140 108.022,147.298 108.303,150.493 111.104 C 151.235 111.755,153.991 110.384,153.997 109.361 C 154.009 107.510,150.964 107.303,127.800 107.584 M173.926 107.500 C 178.176 107.564,185.016 107.564,189.126 107.499 C 193.237 107.434,189.760 107.381,181.400 107.381 C 173.040 107.382,169.677 107.435,173.926 107.500 M201.312 107.495 C 202.364 107.577,203.984 107.576,204.912 107.492 C 205.840 107.408,204.980 107.341,203.000 107.342 C 201.020 107.343,200.260 107.412,201.312 107.495 M268.119 107.867 C 268.007 108.160,267.754 108.400,267.557 108.400 C 267.361 108.400,267.200 108.160,267.200 107.867 C 267.200 107.573,267.453 107.333,267.762 107.333 C 268.071 107.333,268.232 107.573,268.119 107.867 M105.305 108.287 C 105.914 108.379,106.814 108.377,107.305 108.282 C 107.797 108.187,107.300 108.111,106.200 108.114 C 105.100 108.117,104.697 108.195,105.305 108.287 M150.183 108.640 C 150.674 109.131,150.951 109.173,151.376 108.820 C 151.708 108.545,152.022 108.512,152.162 108.739 C 152.290 108.946,152.106 109.227,151.753 109.363 C 151.232 109.563,151.204 109.723,151.604 110.205 C 152.014 110.699,151.958 110.800,151.273 110.800 C 150.819 110.800,150.336 110.620,150.200 110.400 C 150.064 110.180,150.154 110.000,150.400 110.000 C 150.646 110.000,150.731 109.813,150.590 109.584 C 150.448 109.355,149.943 109.263,149.466 109.380 C 148.990 109.497,148.825 109.489,149.100 109.363 C 149.817 109.034,149.716 108.489,148.900 108.276 C 148.277 108.113,148.274 108.088,148.871 108.046 C 149.241 108.021,149.831 108.288,150.183 108.640 M268.715 111.109 C 268.698 111.711,268.807 112.593,268.958 113.068 C 269.109 113.544,269.045 114.048,268.816 114.190 C 268.574 114.340,268.398 114.061,268.396 113.524 C 268.393 113.016,268.275 111.897,268.133 111.038 C 267.955 109.958,268.010 109.559,268.311 109.745 C 268.550 109.893,268.732 110.507,268.715 111.109 M250.800 110.444 C 249.590 110.637,241.580 111.799,233.000 113.026 C 213.089 115.874,213.616 115.738,214.409 117.824 C 214.851 118.986,215.475 122.904,218.004 140.400 C 218.878 146.450,219.942 153.650,220.368 156.400 C 220.793 159.150,221.346 162.840,221.595 164.600 C 221.844 166.360,222.395 170.050,222.820 172.800 C 223.246 175.550,224.232 182.300,225.013 187.800 C 225.794 193.300,226.780 199.960,227.203 202.600 C 227.627 205.240,228.515 211.270,229.177 216.000 C 229.839 220.730,230.754 226.940,231.209 229.800 C 231.665 232.660,232.200 236.350,232.397 238.000 C 232.595 239.650,233.044 242.800,233.395 245.000 C 234.361 251.057,235.953 261.804,236.417 265.400 C 236.644 267.160,236.982 269.500,237.167 270.600 C 237.353 271.700,237.705 274.040,237.948 275.800 C 238.191 277.560,238.575 280.170,238.800 281.600 C 239.660 287.060,240.399 292.061,241.431 299.400 C 242.788 309.049,244.902 313.200,248.460 313.200 C 248.867 313.200,249.200 313.399,249.200 313.643 C 249.200 313.886,249.425 313.999,249.700 313.894 C 249.975 313.788,254.880 313.011,260.600 312.166 C 266.320 311.321,271.060 310.487,271.134 310.312 C 271.208 310.138,271.428 310.094,271.623 310.214 C 272.153 310.542,281.759 309.123,282.060 308.672 C 282.202 308.458,282.633 308.404,283.016 308.551 C 284.170 308.993,286.489 307.172,286.947 305.464 C 287.113 304.845,286.979 304.769,286.108 304.987 C 285.538 305.130,283.976 305.326,282.636 305.422 C 281.296 305.518,279.300 305.774,278.200 305.991 C 277.100 306.207,274.220 306.666,271.800 307.010 C 269.380 307.354,265.064 308.009,262.209 308.465 C 256.176 309.430,252.962 309.307,250.432 308.016 C 248.579 307.071,246.400 304.961,246.400 304.111 C 246.400 303.830,246.256 303.600,246.080 303.600 C 245.525 303.600,244.873 301.145,244.221 296.600 C 243.874 294.180,243.397 290.850,243.161 289.200 C 242.925 287.550,242.492 284.760,242.199 283.000 C 241.906 281.240,241.557 278.900,241.423 277.800 C 241.288 276.700,240.999 274.630,240.779 273.200 C 240.061 268.533,237.166 248.730,236.393 243.200 C 235.978 240.230,235.262 235.370,234.802 232.400 C 234.343 229.430,233.702 225.020,233.380 222.600 C 233.057 220.180,232.529 216.490,232.206 214.400 C 231.882 212.310,231.068 206.640,230.395 201.800 C 229.722 196.960,228.908 191.470,228.586 189.600 C 228.265 187.730,227.831 184.940,227.622 183.400 C 227.414 181.860,226.869 178.170,226.412 175.200 C 223.362 155.386,223.382 153.984,226.710 154.013 C 229.252 154.036,229.924 154.976,230.610 159.468 C 230.941 161.631,231.408 164.660,231.649 166.200 C 231.891 167.740,232.293 170.710,232.544 172.800 C 233.123 177.623,233.339 177.973,234.725 176.320 C 235.316 175.615,235.740 174.849,235.667 174.619 C 235.593 174.388,235.661 174.327,235.816 174.483 C 235.972 174.638,236.671 174.329,237.371 173.795 C 239.776 171.960,242.398 171.074,245.800 170.945 C 247.560 170.879,249.924 170.741,251.053 170.639 C 255.041 170.279,260.083 172.862,261.217 175.846 C 261.930 177.721,262.739 182.164,262.985 185.552 C 263.118 187.395,263.393 189.213,263.595 189.590 C 263.797 189.968,264.044 191.429,264.144 192.838 C 264.244 194.247,264.415 195.670,264.525 196.000 C 264.863 197.017,265.681 202.052,265.988 205.000 C 266.377 208.735,267.488 216.288,268.195 220.000 C 270.058 229.789,270.277 236.754,268.792 239.006 L 268.005 240.200 267.944 238.800 C 267.910 238.030,267.762 238.660,267.614 240.200 C 267.467 241.740,266.962 243.859,266.492 244.908 C 266.022 245.958,265.674 246.859,265.719 246.911 C 265.763 246.963,265.080 247.696,264.200 248.539 C 263.320 249.382,262.825 249.955,263.100 249.812 C 263.375 249.669,263.600 249.651,263.600 249.771 C 263.600 249.891,262.970 250.252,262.200 250.574 C 261.430 250.896,260.800 251.359,260.800 251.603 C 260.800 251.847,260.620 251.936,260.400 251.800 C 260.180 251.664,260.000 251.705,260.000 251.891 C 260.000 252.077,259.611 252.259,259.136 252.295 C 258.661 252.331,258.166 252.525,258.036 252.726 C 257.071 254.221,248.897 252.915,245.672 250.750 L 243.944 249.590 244.158 251.495 C 244.368 253.364,246.129 265.666,246.807 270.000 C 246.996 271.210,247.350 273.730,247.594 275.600 C 247.838 277.470,248.205 279.900,248.410 281.000 C 248.615 282.100,249.239 286.330,249.796 290.400 C 251.183 300.538,251.081 300.080,252.212 301.300 C 253.693 302.897,254.560 302.967,261.084 302.020 C 264.338 301.547,268.890 300.901,271.200 300.583 C 276.632 299.836,280.347 299.265,281.600 298.986 C 282.150 298.863,283.255 298.704,284.055 298.632 C 286.177 298.443,287.440 296.690,286.067 295.841 C 285.883 295.728,285.818 295.062,285.920 294.361 C 286.031 293.610,285.951 293.183,285.726 293.322 C 285.504 293.459,285.417 293.067,285.517 292.384 C 285.612 291.738,285.552 290.893,285.384 290.505 C 285.217 290.117,285.043 289.260,284.999 288.600 C 284.801 285.620,283.444 276.952,283.107 276.519 C 282.902 276.255,282.854 275.661,283.000 275.200 C 283.146 274.739,283.051 274.103,282.788 273.786 C 282.512 273.453,282.421 272.772,282.571 272.172 C 282.738 271.506,282.685 271.224,282.422 271.386 C 282.159 271.549,282.068 271.059,282.168 270.020 C 282.254 269.129,282.146 268.291,281.930 268.156 C 281.713 268.022,281.643 267.482,281.775 266.956 C 281.920 266.379,281.840 266.000,281.572 266.000 C 281.277 266.000,281.220 265.466,281.400 264.400 C 281.585 263.303,281.525 262.800,281.210 262.800 C 280.953 262.800,280.787 262.313,280.835 261.700 C 280.991 259.700,280.805 257.550,280.493 257.743 C 280.324 257.847,280.252 257.228,280.335 256.366 C 280.434 255.321,280.322 254.800,279.997 254.800 C 279.663 254.800,279.589 254.385,279.760 253.471 C 279.897 252.741,279.883 252.016,279.728 251.862 C 279.574 251.707,279.396 250.730,279.334 249.690 C 279.272 248.651,278.760 244.920,278.196 241.400 C 277.632 237.880,277.082 234.202,276.974 233.227 C 276.788 231.547,275.060 220.002,273.828 212.200 C 273.515 210.220,271.878 199.060,270.190 187.400 C 268.502 175.740,267.022 165.930,266.901 165.600 C 266.780 165.270,266.722 164.585,266.772 164.079 C 266.822 163.572,266.653 162.905,266.397 162.596 C 266.141 162.288,266.029 161.877,266.148 161.684 C 266.268 161.490,266.014 159.188,265.584 156.566 C 264.744 151.445,264.590 150.242,264.475 147.876 C 264.429 146.938,264.240 146.452,263.984 146.610 C 263.720 146.773,263.651 146.526,263.796 145.934 C 263.921 145.420,263.644 142.750,263.181 140.000 C 262.718 137.250,262.345 134.505,262.353 133.900 C 262.361 133.295,262.175 132.800,261.939 132.800 C 261.666 132.800,261.606 132.292,261.774 131.400 C 261.953 130.445,261.887 130.000,261.566 130.000 C 261.254 130.000,261.170 129.540,261.317 128.636 C 261.438 127.885,261.417 127.150,261.269 127.002 C 261.121 126.854,260.955 126.253,260.900 125.667 C 260.802 124.612,260.627 123.101,260.200 119.600 C 260.079 118.610,259.960 117.530,259.936 117.200 C 259.911 116.870,259.720 116.383,259.511 116.118 C 259.302 115.852,259.249 115.444,259.394 115.210 C 259.888 114.411,258.774 112.202,257.321 111.100 C 255.760 109.916,254.751 109.814,250.800 110.444 M251.073 111.060 C 250.930 111.204,251.124 111.549,251.505 111.828 C 252.069 112.240,251.825 112.247,250.199 111.869 L 248.200 111.403 249.600 111.154 C 250.370 111.017,251.075 110.882,251.167 110.853 C 251.258 110.824,251.216 110.917,251.073 111.060 M238.702 113.500 C 238.804 113.809,238.510 113.989,237.933 113.972 C 237.061 113.946,237.053 113.923,237.800 113.622 C 238.548 113.320,238.536 113.286,237.600 113.084 C 236.604 112.870,236.604 112.869,237.569 112.934 C 238.101 112.971,238.611 113.225,238.702 113.500 M235.810 113.616 C 235.976 113.885,235.665 113.952,234.934 113.807 C 233.854 113.592,233.845 113.601,234.758 113.999 C 235.285 114.229,235.600 114.534,235.457 114.676 C 235.315 114.818,234.746 114.692,234.192 114.396 C 233.460 114.004,233.323 113.769,233.692 113.534 C 234.407 113.081,235.505 113.123,235.810 113.616 M231.733 114.825 C 233.046 114.845,233.223 114.922,232.565 115.188 C 231.054 115.800,227.056 116.157,227.367 115.653 C 227.521 115.404,227.907 115.200,228.224 115.200 C 228.541 115.200,228.800 115.001,228.800 114.757 C 228.800 114.514,229.085 114.424,229.433 114.557 C 229.781 114.691,230.816 114.811,231.733 114.825 M62.100 115.076 C 62.485 115.176,63.115 115.176,63.500 115.076 C 63.885 114.975,63.570 114.893,62.800 114.893 C 62.030 114.893,61.715 114.975,62.100 115.076 M220.800 116.007 C 222.118 116.024,222.155 116.060,221.424 116.613 C 220.535 117.285,219.834 117.392,220.200 116.800 C 220.336 116.580,220.066 116.400,219.600 116.400 C 219.134 116.400,218.844 116.547,218.955 116.728 C 219.067 116.908,218.598 116.973,217.914 116.873 C 217.024 116.742,216.518 116.897,216.139 117.416 C 215.847 117.815,215.471 117.995,215.304 117.816 C 215.137 117.637,215.225 117.410,215.500 117.312 C 215.775 117.214,216.000 116.883,216.000 116.577 C 216.000 116.169,216.349 116.080,217.300 116.244 C 218.343 116.423,218.482 116.375,218.000 115.999 C 217.509 115.616,217.582 115.572,218.400 115.760 C 218.950 115.886,220.030 115.997,220.800 116.007 M224.400 115.976 C 224.400 116.517,223.671 116.891,223.193 116.596 C 222.970 116.458,222.891 116.177,223.017 115.972 C 223.317 115.487,224.400 115.490,224.400 115.976 M102.086 117.138 C 101.181 117.712,101.572 309.697,102.482 311.706 C 102.857 312.534,103.442 313.318,103.782 313.448 C 104.122 313.579,104.400 313.871,104.400 314.099 C 104.400 314.571,105.270 315.311,107.000 316.308 C 108.298 317.056,144.001 317.798,144.000 317.076 C 144.000 316.898,144.164 316.854,144.364 316.977 C 144.975 317.355,146.854 314.799,146.586 313.954 C 146.453 313.537,146.537 313.200,146.773 313.200 C 147.008 313.200,147.186 312.885,147.168 312.500 C 147.149 312.078,147.056 311.999,146.934 312.302 C 146.823 312.579,146.595 312.721,146.429 312.618 C 146.262 312.515,139.032 312.379,130.363 312.315 L 114.600 312.200 112.304 311.073 C 109.865 309.875,107.713 307.596,106.758 305.200 C 106.191 303.777,105.645 159.154,106.198 156.890 C 106.831 154.299,110.441 153.412,111.851 155.500 C 112.525 156.499,112.602 157.647,112.687 168.000 C 112.739 174.270,112.920 179.400,113.090 179.400 C 113.412 179.400,117.249 177.204,117.600 176.819 C 117.826 176.571,118.119 176.499,121.157 175.937 C 123.166 175.566,125.130 175.691,126.694 176.291 C 127.095 176.445,127.231 176.374,127.062 176.101 C 126.396 175.022,130.506 175.043,133.680 176.134 C 135.494 176.758,138.569 180.051,139.150 181.992 C 139.743 183.972,139.791 241.435,139.200 241.800 C 138.980 241.936,138.800 242.542,138.800 243.147 C 138.800 243.752,138.536 244.596,138.213 245.024 C 137.890 245.451,137.620 246.115,137.613 246.500 C 137.606 246.885,137.409 247.200,137.176 247.200 C 136.943 247.200,136.869 247.388,137.011 247.618 C 137.153 247.847,137.051 248.297,136.785 248.618 C 136.520 248.938,136.418 249.200,136.560 249.200 C 136.702 249.200,136.524 249.650,136.163 250.200 C 135.803 250.750,135.609 251.200,135.731 251.200 C 135.854 251.200,135.425 251.780,134.777 252.489 C 134.130 253.198,133.595 253.963,133.589 254.189 C 133.583 254.415,132.872 255.036,132.008 255.569 C 131.144 256.101,130.549 256.717,130.684 256.937 C 130.830 257.172,130.663 257.233,130.277 257.085 C 129.917 256.947,129.393 257.051,129.112 257.317 C 128.830 257.583,128.150 257.864,127.600 257.941 C 127.050 258.019,126.510 258.199,126.400 258.341 C 126.081 258.754,119.648 258.646,119.904 258.232 C 120.029 258.030,119.832 257.979,119.466 258.119 C 119.099 258.260,118.800 258.182,118.800 257.945 C 118.800 257.708,118.530 257.618,118.200 257.745 C 117.870 257.871,117.600 257.834,117.600 257.662 C 117.600 257.360,115.041 255.988,114.561 256.032 C 114.432 256.044,114.101 255.744,113.825 255.366 C 113.448 254.852,113.246 254.803,113.018 255.171 C 112.555 255.920,112.764 302.785,113.233 303.663 C 114.243 305.548,114.472 305.574,131.087 305.614 C 145.421 305.648,146.766 305.709,146.929 306.326 C 147.027 306.697,147.128 265.189,147.154 214.087 C 147.194 133.784,147.121 120.986,146.620 119.787 C 146.036 118.389,145.032 117.799,145.450 119.100 C 145.641 119.693,145.608 119.708,145.238 119.200 C 144.849 118.667,144.756 118.667,144.406 119.200 C 144.189 119.530,144.009 119.634,144.006 119.431 C 144.003 119.229,144.294 118.738,144.653 118.342 C 145.264 117.666,145.237 117.594,144.227 117.210 C 142.926 116.715,102.860 116.647,102.086 117.138 M104.245 117.506 C 104.516 117.685,104.567 118.113,104.374 118.600 C 104.068 119.371,104.055 119.369,104.028 118.533 C 104.013 118.057,103.775 117.576,103.500 117.465 C 103.225 117.354,103.180 117.252,103.400 117.238 C 103.620 117.224,104.000 117.344,104.245 117.506 M157.165 118.113 C 156.816 118.381,156.321 118.993,156.065 119.474 C 155.446 120.637,155.387 313.600,156.006 313.600 C 156.230 313.600,156.713 312.970,157.081 312.200 C 157.738 310.821,158.400 310.353,158.400 311.267 C 158.400 311.523,158.501 311.633,158.623 311.510 C 158.746 311.387,158.566 310.615,158.223 309.794 C 157.665 308.458,157.599 298.442,157.587 213.651 C 157.573 119.479,157.569 119.005,156.787 119.944 C 156.354 120.464,156.000 120.734,156.000 120.544 C 156.001 120.355,156.451 119.677,157.000 119.038 C 158.303 117.523,158.362 117.194,157.165 118.113 M270.608 120.700 L 271.242 121.800 271.015 120.600 C 270.860 119.779,270.905 119.590,271.155 120.000 C 271.736 120.950,272.137 125.068,271.678 125.352 C 271.456 125.489,271.373 125.976,271.493 126.434 C 271.659 127.068,271.792 127.140,272.049 126.734 C 272.273 126.381,272.414 126.707,272.464 127.700 C 272.639 131.147,272.702 131.597,273.166 132.717 C 273.701 134.010,273.609 137.479,273.045 137.266 C 272.849 137.192,272.552 137.355,272.383 137.627 C 272.053 138.161,272.032 137.927,272.011 133.523 C 272.004 132.051,271.819 130.735,271.599 130.600 C 271.380 130.464,271.200 129.723,271.200 128.953 C 271.200 128.183,271.037 127.653,270.838 127.776 C 270.632 127.904,270.571 127.295,270.696 126.360 C 270.851 125.205,270.751 124.606,270.358 124.339 C 269.889 124.019,269.902 123.888,270.442 123.518 C 271.100 123.066,270.658 120.800,269.912 120.800 C 269.741 120.800,269.600 120.530,269.600 120.200 C 269.600 119.317,269.896 119.464,270.608 120.700 M51.693 126.000 C 51.693 126.770,51.775 127.085,51.876 126.700 C 51.976 126.315,51.976 125.685,51.876 125.300 C 51.775 124.915,51.693 125.230,51.693 126.000 M164.904 127.082 C 163.912 127.273,162.783 128.640,162.832 129.589 C 162.859 130.125,162.890 130.126,163.084 129.600 C 163.834 127.559,166.303 126.946,168.056 128.364 C 169.158 129.257,169.755 142.171,168.835 145.240 C 168.119 147.631,165.222 148.155,163.589 146.187 C 163.153 145.661,162.949 143.624,162.754 137.846 L 162.496 130.200 162.548 137.818 C 162.606 146.288,162.869 147.288,165.172 147.794 C 168.815 148.594,169.587 146.795,169.594 137.480 C 169.601 128.735,168.799 126.313,166.074 126.854 C 165.923 126.884,165.397 126.987,164.904 127.082 M111.760 128.528 C 112.611 129.670,113.276 142.448,112.621 145.058 C 111.868 148.059,107.935 148.486,106.465 145.726 C 105.862 144.594,105.831 131.296,106.428 129.727 C 107.499 126.909,110.117 126.321,111.760 128.528 M224.273 127.445 C 225.528 127.782,226.248 129.620,226.997 134.400 C 228.658 145.007,228.569 146.418,226.191 147.203 C 223.527 148.082,222.287 146.738,221.574 142.200 C 219.360 128.104,219.705 126.220,224.273 127.445 M214.124 132.600 C 214.126 133.920,214.201 134.412,214.290 133.693 C 214.379 132.974,214.377 131.894,214.286 131.293 C 214.195 130.692,214.122 131.280,214.124 132.600 M272.202 133.997 C 272.067 134.215,272.141 134.710,272.366 135.097 C 272.717 135.700,272.777 135.644,272.788 134.700 C 272.801 133.550,272.616 133.328,272.202 133.997 M273.652 139.308 C 272.986 139.974,272.609 139.313,273.228 138.566 C 273.603 138.114,273.820 138.060,273.930 138.391 C 274.018 138.655,273.893 139.067,273.652 139.308 M273.264 142.704 L 272.863 143.800 272.832 142.733 C 272.814 142.146,272.675 141.336,272.522 140.933 C 272.257 140.233,272.277 140.232,272.955 140.904 C 273.524 141.468,273.585 141.823,273.264 142.704 M274.516 142.800 C 274.631 143.239,274.562 143.700,274.362 143.823 C 274.163 143.946,274.000 143.587,274.000 143.024 C 274.000 141.798,274.228 141.699,274.516 142.800 M274.000 145.047 C 274.000 145.377,273.820 145.536,273.600 145.400 C 273.380 145.264,273.200 144.883,273.200 144.553 C 273.200 144.223,273.380 144.064,273.600 144.200 C 273.820 144.336,274.000 144.717,274.000 145.047 M275.531 147.746 C 276.143 151.070,276.065 152.280,275.384 150.000 L 274.847 148.200 275.041 150.600 C 275.147 151.920,275.048 153.540,274.821 154.200 C 274.452 155.272,274.430 155.204,274.618 153.572 C 274.758 152.351,274.624 151.355,274.216 150.572 C 273.485 149.171,273.431 147.609,274.064 146.219 C 274.762 144.688,275.016 144.953,275.531 147.746 M163.944 154.787 C 162.789 155.749,163.062 155.807,164.760 154.960 C 165.800 154.441,166.255 154.408,167.169 154.787 C 169.127 155.598,169.243 156.390,169.174 168.482 C 169.139 174.621,169.221 179.754,169.355 179.889 C 169.490 180.023,169.600 174.779,169.600 168.236 L 169.600 156.338 168.431 155.169 C 167.040 153.779,165.329 153.633,163.944 154.787 M276.565 159.687 C 277.356 161.539,277.363 161.820,276.600 161.057 C 276.270 160.727,276.000 160.210,276.000 159.909 C 276.000 159.607,275.836 159.189,275.635 158.980 C 275.211 158.540,275.069 157.498,275.201 155.800 C 275.279 154.789,275.344 154.884,275.612 156.400 C 275.786 157.390,276.215 158.869,276.565 159.687 M162.596 230.200 C 162.596 268.920,162.643 284.701,162.700 265.268 C 162.757 245.836,162.757 214.156,162.700 194.868 C 162.643 175.581,162.596 191.480,162.596 230.200 M276.400 162.690 C 276.400 163.944,276.208 163.799,275.840 162.266 C 275.662 161.523,275.711 161.221,275.984 161.390 C 276.213 161.532,276.400 162.117,276.400 162.690 M278.000 163.467 C 278.000 164.053,277.869 164.403,277.710 164.243 C 277.550 164.084,277.192 164.549,276.913 165.277 L 276.407 166.600 276.633 165.200 C 277.101 162.308,278.000 161.168,278.000 163.467 M278.117 168.300 C 277.916 171.099,277.246 173.792,277.212 171.933 C 277.205 171.566,277.093 170.936,276.962 170.533 C 276.811 170.066,276.850 169.972,277.070 170.274 C 277.286 170.571,277.431 170.146,277.457 169.131 C 277.487 167.996,277.385 167.677,277.115 168.058 C 276.844 168.440,276.798 168.305,276.960 167.600 C 277.086 167.050,277.204 166.330,277.223 166.000 C 277.245 165.596,277.369 165.662,277.600 166.200 C 277.928 166.963,277.945 166.959,277.972 166.100 C 277.987 165.605,278.076 165.200,278.169 165.200 C 278.262 165.200,278.239 166.595,278.117 168.300 M279.138 177.564 C 278.934 178.535,278.581 179.615,278.354 179.964 C 277.977 180.542,277.957 180.542,278.135 179.957 C 278.243 179.604,278.474 177.624,278.649 175.557 C 278.952 171.970,278.979 171.891,279.237 173.800 C 279.386 174.900,279.341 176.594,279.138 177.564 M183.680 175.176 C 182.060 175.583,181.778 175.829,182.583 176.138 C 182.922 176.268,183.200 176.224,183.200 176.040 C 183.200 175.069,189.197 175.390,189.526 176.379 C 189.603 176.610,189.932 176.800,190.257 176.800 C 191.950 176.800,194.997 180.486,195.711 183.400 C 195.873 184.059,195.915 184.022,195.954 183.194 C 196.168 178.541,188.979 173.844,183.680 175.176 M280.270 182.691 C 280.187 184.541,280.262 185.823,280.438 185.539 C 280.613 185.255,280.889 185.156,281.052 185.318 C 281.214 185.481,281.145 185.815,280.899 186.061 C 280.635 186.325,280.520 187.352,280.620 188.555 C 280.745 190.074,280.698 190.343,280.434 189.600 C 280.239 189.050,280.062 188.127,280.040 187.549 C 280.018 186.971,279.730 186.274,279.400 186.000 C 278.632 185.363,278.640 184.443,279.427 182.866 C 279.772 182.175,279.984 181.112,279.898 180.505 C 279.762 179.543,279.700 179.622,279.418 181.109 C 279.240 182.049,278.964 182.899,278.803 182.998 C 278.643 183.097,278.677 182.418,278.880 181.489 C 279.083 180.560,279.354 179.265,279.483 178.611 C 279.925 176.366,280.435 179.013,280.270 182.691 M242.000 180.722 C 242.000 180.926,241.611 181.586,241.137 182.190 C 240.287 183.269,239.762 188.000,240.491 188.000 C 240.651 188.000,240.746 188.675,240.701 189.500 C 240.591 191.562,241.655 199.200,242.052 199.200 C 242.230 199.200,242.284 199.437,242.173 199.727 C 242.061 200.017,242.434 203.212,243.000 206.827 C 243.566 210.442,244.123 214.120,244.237 215.000 C 245.947 228.115,248.317 242.000,248.847 242.000 C 249.041 242.000,249.200 242.259,249.200 242.576 C 249.200 242.893,249.408 243.281,249.662 243.438 C 249.966 243.626,250.024 243.531,249.831 243.162 C 249.671 242.853,249.919 243.032,250.383 243.561 C 251.309 244.616,255.600 245.304,255.600 244.398 C 255.600 244.153,255.780 244.064,256.000 244.200 C 257.236 244.964,256.120 243.846,254.609 242.806 C 250.628 240.067,250.616 240.014,245.401 203.200 C 244.887 199.570,244.094 193.990,243.639 190.800 C 243.184 187.610,242.734 184.436,242.639 183.747 C 242.544 183.058,242.667 182.293,242.913 182.047 C 243.242 181.718,243.228 181.600,242.856 181.600 C 242.579 181.600,242.456 181.432,242.583 181.228 C 242.709 181.023,242.630 180.742,242.407 180.604 C 242.183 180.466,242.000 180.519,242.000 180.722 M279.492 183.842 C 279.331 184.002,279.200 184.409,279.200 184.747 C 279.200 185.197,279.318 185.242,279.645 184.915 C 279.890 184.670,280.021 184.263,279.937 184.010 C 279.852 183.757,279.652 183.681,279.492 183.842 M178.705 184.283 C 179.202 184.379,179.922 184.375,180.305 184.275 C 180.687 184.175,180.280 184.096,179.400 184.101 C 178.520 184.105,178.207 184.187,178.705 184.283 M195.643 213.328 L 195.639 241.856 194.620 243.886 C 193.334 246.445,193.311 247.011,194.567 245.163 C 195.098 244.380,195.728 242.686,195.967 241.397 C 196.522 238.395,196.575 184.800,196.023 184.800 C 195.791 184.800,195.645 195.740,195.643 213.328 M120.000 186.161 C 120.000 186.840,120.653 187.364,120.930 186.907 C 121.032 186.738,120.865 186.368,120.558 186.084 C 120.100 185.661,120.000 185.674,120.000 186.161 M175.909 187.100 C 176.139 189.422,176.334 189.591,176.368 187.500 C 176.386 186.455,176.256 185.600,176.080 185.600 C 175.904 185.600,175.828 186.275,175.909 187.100 M118.571 186.634 C 118.147 186.978,118.070 187.143,118.400 187.000 C 118.744 186.851,118.685 186.998,118.260 187.344 C 117.853 187.675,117.631 188.126,117.766 188.346 C 117.902 188.565,117.830 188.858,117.607 188.996 C 117.025 189.356,117.045 245.057,117.627 245.417 C 117.862 245.562,117.958 245.933,117.840 246.240 C 117.722 246.548,117.810 246.800,118.036 246.800 C 118.262 246.800,118.357 246.946,118.247 247.124 C 117.972 247.569,120.079 249.498,121.383 249.994 C 122.726 250.504,124.122 250.521,123.814 250.023 C 123.686 249.816,124.026 249.681,124.569 249.723 C 126.083 249.841,125.898 249.090,124.194 248.200 C 122.512 247.321,120.612 244.673,119.980 242.325 C 119.730 241.396,119.591 230.616,119.611 213.574 C 119.645 184.237,119.702 185.716,118.571 186.634 M280.204 190.800 C 280.353 191.519,280.308 191.631,280.044 191.200 C 279.841 190.870,279.573 189.700,279.448 188.600 C 279.213 186.535,279.483 187.322,280.204 190.800 M281.476 189.100 C 281.375 189.485,281.293 189.170,281.293 188.400 C 281.293 187.630,281.375 187.315,281.476 187.700 C 281.576 188.085,281.576 188.715,281.476 189.100 M108.990 217.200 C 108.990 233.150,109.039 239.675,109.100 231.700 C 109.160 223.725,109.160 210.675,109.100 202.700 C 109.039 194.725,108.990 201.250,108.990 217.200 M128.989 217.200 C 128.989 232.710,129.039 239.055,129.100 231.300 C 129.161 223.545,129.161 210.855,129.100 203.100 C 129.039 195.345,128.989 201.690,128.989 217.200 M282.377 195.967 C 282.415 198.242,282.113 197.180,281.874 194.200 C 281.702 192.048,281.731 191.770,282.002 193.000 C 282.195 193.880,282.364 195.215,282.377 195.967 M281.170 195.346 C 281.147 195.980,281.000 195.839,280.600 194.800 C 279.866 192.893,279.867 191.936,280.602 193.346 C 280.931 193.976,281.186 194.876,281.170 195.346 M214.068 196.600 L 214.113 199.400 214.396 197.200 C 214.551 195.990,214.532 194.730,214.352 194.400 C 214.159 194.047,214.042 194.951,214.068 196.600 M281.487 200.695 C 281.395 201.303,281.317 200.900,281.314 199.800 C 281.311 198.700,281.387 198.203,281.482 198.695 C 281.577 199.186,281.579 200.086,281.487 200.695 M282.504 201.354 C 282.632 202.549,282.578 203.093,282.363 202.754 C 282.035 202.235,281.828 198.871,282.147 199.233 C 282.228 199.325,282.388 200.279,282.504 201.354 M283.476 202.300 C 283.375 202.685,283.293 202.370,283.293 201.600 C 283.293 200.830,283.375 200.515,283.476 200.900 C 283.576 201.285,283.576 201.915,283.476 202.300 M283.439 210.468 C 283.417 212.104,283.573 212.991,283.903 213.101 C 284.176 213.192,284.400 213.802,284.400 214.457 C 284.400 215.112,284.235 215.545,284.034 215.421 C 283.833 215.297,283.562 215.421,283.432 215.698 C 283.302 215.974,283.292 215.697,283.410 215.082 C 283.528 214.466,283.484 213.746,283.312 213.482 C 282.770 212.645,282.811 208.000,283.360 208.000 C 283.422 208.000,283.458 209.110,283.439 210.468 M284.650 212.000 C 284.563 212.330,284.472 212.184,284.446 211.676 C 284.421 211.168,284.220 210.864,284.000 211.000 C 283.527 211.293,283.505 210.960,283.880 209.150 L 284.159 207.800 284.483 209.600 C 284.661 210.590,284.736 211.670,284.650 212.000 M214.194 259.600 C 214.194 287.430,214.242 298.815,214.300 284.900 C 214.358 270.985,214.358 248.215,214.300 234.300 C 214.242 220.385,214.194 231.770,214.194 259.600 M285.915 222.302 C 285.419 222.900,284.400 222.260,284.400 221.351 C 284.400 220.560,285.104 220.671,285.344 221.500 C 285.455 221.885,285.540 221.570,285.533 220.800 C 285.505 217.963,285.708 217.459,286.018 219.597 C 286.223 221.014,286.187 221.975,285.915 222.302 M286.882 227.352 C 287.519 227.954,287.571 228.171,287.139 228.438 C 286.765 228.669,286.613 229.601,286.644 231.486 L 286.687 234.200 286.198 232.200 C 285.928 231.100,285.560 229.840,285.379 229.400 C 285.086 228.688,285.124 228.660,285.725 229.149 C 286.124 229.474,286.400 229.524,286.400 229.273 C 286.400 229.039,286.220 228.736,286.000 228.600 C 285.780 228.464,285.621 227.598,285.646 226.676 C 285.672 225.754,285.781 225.360,285.890 225.800 C 285.998 226.240,286.445 226.938,286.882 227.352 M288.114 234.076 C 288.295 235.250,288.225 235.508,287.771 235.334 C 287.422 235.200,287.200 235.365,287.200 235.757 C 287.200 236.111,287.037 236.400,286.837 236.400 C 286.404 236.400,286.745 234.881,287.248 234.570 C 287.442 234.451,287.600 233.883,287.600 233.310 C 287.600 231.914,287.835 232.264,288.114 234.076 M287.972 240.100 C 287.987 240.925,287.865 241.599,287.700 241.598 C 287.535 241.596,287.384 240.567,287.364 239.310 C 287.341 237.860,287.441 237.313,287.636 237.813 C 287.805 238.246,287.956 239.275,287.972 240.100 M176.401 243.033 C 176.403 243.482,177.913 246.000,178.181 246.000 C 178.286 246.000,177.987 245.325,177.514 244.500 C 176.456 242.652,176.400 242.577,176.401 243.033 M288.794 246.900 C 288.797 247.285,288.620 247.600,288.400 247.600 C 288.180 247.600,288.003 247.015,288.006 246.300 C 288.011 245.314,288.106 245.145,288.400 245.600 C 288.613 245.930,288.791 246.515,288.794 246.900 M178.791 246.990 C 179.371 247.689,181.985 249.360,182.163 249.146 C 182.229 249.066,181.385 248.412,180.288 247.694 C 179.191 246.976,178.517 246.659,178.791 246.990 M290.649 251.934 C 290.677 252.740,290.907 254.183,291.160 255.139 C 291.414 256.096,291.506 257.494,291.365 258.247 L 291.108 259.616 290.372 258.768 C 289.726 258.023,289.649 255.954,290.242 255.249 C 290.311 255.166,290.122 254.623,289.821 254.041 C 289.369 253.167,289.364 252.814,289.794 252.012 C 290.080 251.477,290.214 250.761,290.093 250.420 C 289.965 250.061,290.025 249.940,290.236 250.134 C 290.436 250.318,290.622 251.128,290.649 251.934 M169.294 278.738 C 169.190 305.454,169.119 304.675,171.739 305.589 C 173.106 306.065,203.200 306.172,203.200 305.700 C 203.200 305.535,196.278 305.449,187.817 305.509 L 172.433 305.618 171.117 304.442 L 169.800 303.266 169.594 278.933 L 169.388 254.600 169.294 278.738 M290.308 256.783 C 290.031 257.767,290.197 258.337,290.632 257.901 C 290.760 257.773,290.801 257.248,290.724 256.734 L 290.584 255.800 290.308 256.783 M290.979 260.689 C 291.199 261.262,291.302 261.282,291.594 260.810 C 291.862 260.376,292.011 260.504,292.223 261.350 C 292.389 262.009,292.319 262.641,292.051 262.909 C 291.304 263.656,291.460 264.614,292.225 263.979 C 292.880 263.435,292.837 263.916,291.969 266.800 C 291.705 267.681,291.665 267.624,291.634 266.324 C 291.615 265.512,291.420 264.736,291.200 264.600 C 290.980 264.464,290.800 263.722,290.800 262.950 C 290.800 262.179,290.614 261.199,290.386 260.774 C 290.148 260.329,290.130 260.000,290.343 260.000 C 290.547 260.000,290.833 260.310,290.979 260.689 M293.194 270.900 C 293.197 271.065,293.020 271.200,292.800 271.200 C 292.580 271.200,292.403 270.795,292.406 270.300 C 292.412 269.441,293.176 270.023,293.194 270.900 M293.932 274.600 C 293.943 275.381,293.936 275.381,293.639 274.621 C 293.348 273.878,293.324 273.883,293.105 274.721 C 292.978 275.205,292.666 275.600,292.410 275.600 C 291.942 275.600,292.069 274.888,292.910 272.800 L 293.312 271.800 293.616 272.800 C 293.783 273.350,293.926 274.160,293.932 274.600 M294.152 284.830 C 293.851 285.504,293.782 285.348,293.782 284.000 C 293.782 282.652,293.851 282.496,294.152 283.170 C 294.379 283.679,294.379 284.321,294.152 284.830 M295.980 291.470 C 295.108 294.177,295.055 294.256,294.897 293.098 C 294.809 292.454,295.007 291.736,295.373 291.370 C 295.718 291.025,296.000 290.456,296.000 290.105 C 296.000 289.754,296.107 289.573,296.237 289.703 C 296.367 289.834,296.251 290.629,295.980 291.470 M296.195 295.882 C 296.479 295.212,296.539 295.220,297.091 296.008 C 297.416 296.472,297.577 296.956,297.450 297.083 C 297.323 297.210,297.100 297.004,296.954 296.624 C 296.763 296.126,296.605 296.068,296.389 296.418 C 295.954 297.122,295.193 296.499,295.240 295.476 C 295.277 294.664,295.302 294.673,295.585 295.600 C 295.853 296.479,295.927 296.513,296.195 295.882 M297.240 297.958 C 297.472 297.599,297.570 298.209,297.515 299.671 C 297.444 301.588,296.800 302.742,296.800 300.953 C 296.800 300.623,296.622 300.463,296.405 300.597 C 296.173 300.740,296.114 300.570,296.260 300.187 C 296.463 299.658,296.584 299.635,296.890 300.066 C 297.166 300.454,297.212 300.381,297.061 299.800 C 296.731 298.536,296.496 297.344,296.698 297.958 C 296.855 298.435,296.933 298.435,297.240 297.958 M162.661 302.200 C 163.242 306.521,165.173 309.511,168.549 311.317 C 170.197 312.198,203.744 313.180,202.881 312.321 C 202.726 312.167,195.287 311.987,186.348 311.921 L 170.096 311.800 167.852 310.254 C 164.928 308.239,164.360 307.304,162.845 302.000 L 162.445 300.600 162.661 302.200 M156.276 311.900 C 156.175 312.285,156.093 311.970,156.093 311.200 C 156.093 310.430,156.175 310.115,156.276 310.500 C 156.376 310.885,156.376 311.515,156.276 311.900 M158.800 312.178 C 158.800 313.742,163.400 317.215,165.400 317.160 C 165.889 317.147,165.651 316.956,164.790 316.669 C 162.687 315.969,161.129 314.895,159.900 313.300 C 159.295 312.514,158.800 312.009,158.800 312.178 M212.419 313.305 L 211.495 314.600 212.626 313.512 C 213.249 312.914,213.664 312.331,213.550 312.217 C 213.436 312.103,212.927 312.593,212.419 313.305 " stroke="none" fill="#ace9d9" fill-rule="evenodd"></path><path id="path4" d="M106.109 88.400 C 106.109 89.390,106.187 89.795,106.282 89.300 C 106.378 88.805,106.378 87.995,106.282 87.500 C 106.187 87.005,106.109 87.410,106.109 88.400 M91.701 88.600 C 91.705 89.480,91.787 89.793,91.883 89.295 C 91.979 88.798,91.975 88.078,91.875 87.695 C 91.775 87.313,91.696 87.720,91.701 88.600 M92.800 92.525 C 92.800 92.594,93.385 93.179,94.100 93.825 L 95.400 95.000 94.225 93.700 C 93.130 92.488,92.800 92.216,92.800 92.525 M72.566 101.902 C 72.768 102.199,73.062 103.107,73.220 103.921 C 73.504 105.381,73.509 105.384,73.554 104.144 C 73.579 103.449,73.288 102.548,72.900 102.125 C 72.515 101.706,72.365 101.605,72.566 101.902 M253.507 101.890 C 254.226 101.979,255.306 101.977,255.907 101.886 C 256.508 101.795,255.920 101.722,254.600 101.724 C 253.280 101.726,252.788 101.801,253.507 101.890 M261.000 103.457 C 263.037 105.264,263.787 105.791,263.002 104.863 C 262.566 104.348,261.847 103.741,261.404 103.514 C 260.962 103.287,260.780 103.262,261.000 103.457 M264.799 107.100 C 265.322 107.815,265.813 108.400,265.889 108.400 C 266.193 108.400,265.201 106.900,264.545 106.367 C 264.113 106.016,264.210 106.296,264.799 107.100 M182.622 108.380 L 201.044 108.600 204.136 110.129 L 207.229 111.658 208.575 110.475 L 209.922 109.293 208.861 108.746 C 208.004 108.305,203.614 108.196,186.000 108.180 L 164.200 108.160 182.622 108.380 M103.700 108.691 C 104.525 108.778,105.875 108.778,106.700 108.691 C 107.525 108.605,106.850 108.534,105.200 108.534 C 103.550 108.534,102.875 108.605,103.700 108.691 M142.900 108.676 C 143.285 108.776,143.915 108.776,144.300 108.676 C 144.685 108.575,144.370 108.493,143.600 108.493 C 142.830 108.493,142.515 108.575,142.900 108.676 M159.500 108.689 C 160.215 108.778,161.385 108.778,162.100 108.689 C 162.815 108.601,162.230 108.528,160.800 108.528 C 159.370 108.528,158.785 108.601,159.500 108.689 M148.400 110.111 C 148.400 110.187,148.985 110.678,149.700 111.201 C 150.504 111.790,150.784 111.887,150.433 111.455 C 149.900 110.799,148.400 109.807,148.400 110.111 M207.600 110.600 C 207.326 110.930,206.922 111.200,206.702 111.200 C 206.479 111.200,206.522 110.935,206.800 110.600 C 207.074 110.270,207.478 110.000,207.698 110.000 C 207.921 110.000,207.878 110.265,207.600 110.600 M256.435 110.100 C 256.528 110.155,257.233 110.740,258.002 111.400 L 259.400 112.600 258.225 111.300 C 257.579 110.585,256.874 110.000,256.658 110.000 C 256.443 110.000,256.343 110.045,256.435 110.100 M159.389 116.783 C 159.519 116.993,159.935 117.054,160.313 116.919 C 161.054 116.653,161.009 116.718,159.823 117.613 C 159.396 117.936,159.170 117.994,159.321 117.742 C 160.127 116.397,157.457 116.883,156.374 118.278 C 155.886 118.908,155.928 118.902,156.709 118.236 C 157.724 117.370,158.055 117.526,158.141 118.910 C 158.194 119.770,159.600 120.101,159.600 119.253 C 159.600 119.114,169.095 119.090,180.700 119.200 C 194.537 119.331,201.901 119.262,202.093 119.000 C 202.561 118.363,202.253 117.923,200.785 117.136 C 199.230 116.302,158.879 115.958,159.389 116.783 M213.343 116.995 C 213.471 117.330,213.368 117.549,213.107 117.495 C 211.524 117.170,211.692 121.832,213.704 134.000 C 213.795 134.550,213.878 130.815,213.889 125.700 C 213.902 119.790,213.765 116.400,213.512 116.400 C 213.293 116.400,213.217 116.668,213.343 116.995 M144.035 116.900 C 144.128 116.955,144.833 117.540,145.602 118.200 L 147.000 119.400 145.825 118.100 C 145.179 117.385,144.474 116.800,144.258 116.800 C 144.043 116.800,143.943 116.845,144.035 116.900 M268.093 118.000 C 268.093 118.770,268.175 119.085,268.276 118.700 C 268.376 118.315,268.376 117.685,268.276 117.300 C 268.175 116.915,268.093 117.230,268.093 118.000 M54.975 118.500 L 53.800 119.800 55.100 118.625 C 55.815 117.979,56.400 117.394,56.400 117.325 C 56.400 117.016,56.070 117.288,54.975 118.500 M202.641 119.400 C 202.848 119.861,203.086 159.578,203.203 213.000 L 203.406 305.800 203.403 212.720 C 203.400 133.544,203.317 119.562,202.841 119.120 C 202.371 118.682,202.339 118.726,202.641 119.400 M268.493 120.800 C 268.493 121.570,268.575 121.885,268.676 121.500 C 268.776 121.115,268.776 120.485,268.676 120.100 C 268.575 119.715,268.493 120.030,268.493 120.800 M98.997 217.200 C 98.997 270.330,99.043 292.065,99.100 265.500 C 99.157 238.935,99.157 195.465,99.100 168.900 C 99.043 142.335,98.997 164.070,98.997 217.200 M147.397 217.200 C 147.397 269.890,147.443 291.445,147.500 265.100 C 147.557 238.755,147.557 195.645,147.500 169.300 C 147.443 142.955,147.397 164.510,147.397 217.200 M52.120 126.000 C 52.120 127.210,52.195 127.705,52.287 127.100 C 52.378 126.495,52.378 125.505,52.287 124.900 C 52.195 124.295,52.120 124.790,52.120 126.000 M55.200 133.400 C 55.946 134.170,56.647 134.800,56.757 134.800 C 56.867 134.800,56.346 134.170,55.600 133.400 C 54.854 132.630,54.153 132.000,54.043 132.000 C 53.933 132.000,54.454 132.630,55.200 133.400 M235.775 175.300 L 234.600 176.600 235.900 175.425 C 236.615 174.779,237.200 174.194,237.200 174.125 C 237.200 173.816,236.870 174.088,235.775 175.300 M211.480 175.600 C 211.332 176.150,211.208 207.647,211.205 245.593 L 211.200 314.586 212.200 313.115 C 214.035 310.414,214.027 310.707,213.911 250.100 C 213.850 218.365,213.851 192.400,213.913 192.400 C 213.975 192.400,214.201 192.805,214.415 193.300 C 214.730 194.029,214.757 193.942,214.557 192.840 C 214.421 192.093,213.734 187.683,213.030 183.040 C 212.187 177.485,211.657 174.942,211.480 175.600 M178.705 175.883 C 179.202 175.979,179.922 175.975,180.305 175.875 C 180.687 175.775,180.280 175.696,179.400 175.701 C 178.520 175.705,178.207 175.787,178.705 175.883 M169.775 179.700 L 168.600 181.000 169.900 179.825 C 170.615 179.179,171.200 178.594,171.200 178.525 C 171.200 178.216,170.870 178.488,169.775 179.700 M231.693 185.200 C 231.693 185.970,231.775 186.285,231.876 185.900 C 231.976 185.515,231.976 184.885,231.876 184.500 C 231.775 184.115,231.693 184.430,231.693 185.200 M175.123 185.500 C 174.418 186.321,173.890 187.200,174.101 187.200 C 174.183 187.200,174.649 186.660,175.137 186.000 C 176.101 184.696,176.092 184.372,175.123 185.500 M136.990 217.200 C 136.990 233.370,137.039 239.985,137.100 231.900 C 137.160 223.815,137.160 210.585,137.100 202.500 C 137.039 194.415,136.990 201.030,136.990 217.200 M173.390 217.200 C 173.390 232.930,173.439 239.365,173.500 231.500 C 173.560 223.635,173.560 210.765,173.500 202.900 C 173.439 195.035,173.390 201.470,173.390 217.200 M185.390 217.200 C 185.390 232.930,185.439 239.365,185.500 231.500 C 185.560 223.635,185.560 210.765,185.500 202.900 C 185.439 195.035,185.390 201.470,185.390 217.200 M109.388 217.200 C 109.388 230.730,109.438 236.265,109.500 229.500 C 109.561 222.735,109.561 211.665,109.500 204.900 C 109.438 198.135,109.388 203.670,109.388 217.200 M267.324 239.000 C 267.326 240.320,267.401 240.812,267.490 240.093 C 267.579 239.374,267.577 238.294,267.486 237.693 C 267.395 237.092,267.322 237.680,267.324 239.000 M248.364 242.333 C 248.580 242.736,249.071 243.321,249.455 243.633 C 249.887 243.984,249.790 243.704,249.201 242.900 C 248.151 241.465,247.757 241.198,248.364 242.333 M109.314 245.000 C 109.317 246.100,109.395 246.503,109.487 245.895 C 109.579 245.286,109.577 244.386,109.482 243.895 C 109.387 243.403,109.311 243.900,109.314 245.000 M174.370 247.921 C 174.902 248.940,177.062 250.405,178.000 250.383 C 178.330 250.375,178.014 250.114,177.298 249.803 C 176.582 249.492,175.522 248.734,174.942 248.118 C 174.037 247.158,173.956 247.130,174.370 247.921 M287.293 248.400 C 287.293 249.170,287.375 249.485,287.476 249.100 C 287.576 248.715,287.576 248.085,287.476 247.700 C 287.375 247.315,287.293 247.630,287.293 248.400 M183.774 248.442 C 183.624 248.685,182.759 249.221,181.851 249.633 C 180.943 250.045,180.434 250.386,180.720 250.391 C 181.453 250.404,183.360 249.371,183.978 248.626 C 184.264 248.282,184.397 248.000,184.273 248.000 C 184.149 248.000,183.924 248.199,183.774 248.442 M191.487 250.987 C 191.125 251.745,190.155 253.138,189.329 254.082 C 187.924 255.692,187.912 255.724,189.150 254.600 C 190.489 253.384,192.645 250.111,192.320 249.787 C 192.223 249.690,191.848 250.230,191.487 250.987 M132.581 254.500 L 131.000 256.200 132.700 254.619 C 134.281 253.148,134.584 252.800,134.281 252.800 C 134.216 252.800,133.451 253.565,132.581 254.500 M252.707 253.090 C 253.426 253.179,254.506 253.177,255.107 253.086 C 255.708 252.995,255.120 252.922,253.800 252.924 C 252.480 252.926,251.988 253.001,252.707 253.090 M169.682 254.621 C 170.277 255.273,171.357 256.128,172.082 256.521 C 173.351 257.208,173.363 257.208,172.409 256.517 C 171.865 256.123,170.785 255.268,170.009 254.618 L 168.600 253.436 169.682 254.621 M185.800 256.631 C 184.920 257.157,184.380 257.589,184.600 257.592 C 185.081 257.598,187.600 256.098,187.600 255.806 C 187.600 255.544,187.683 255.507,185.800 256.631 M288.893 259.200 C 288.893 259.970,288.975 260.285,289.076 259.900 C 289.176 259.515,289.176 258.885,289.076 258.500 C 288.975 258.115,288.893 258.430,288.893 259.200 M295.320 303.600 C 295.320 304.810,295.395 305.305,295.487 304.700 C 295.578 304.095,295.578 303.105,295.487 302.500 C 295.395 301.895,295.320 302.390,295.320 303.600 M112.900 325.900 C 118.565 325.962,127.835 325.962,133.500 325.900 C 139.165 325.837,134.530 325.786,123.200 325.786 C 111.870 325.786,107.235 325.837,112.900 325.900 M169.300 325.900 C 174.965 325.962,184.235 325.962,189.900 325.900 C 195.565 325.837,190.930 325.786,179.600 325.786 C 168.270 325.786,163.635 325.837,169.300 325.900 " stroke="none" fill="#6bb29e" fill-rule="evenodd"></path></g></svg>