<svg id="svg" version="1.1" xmlns="http://www.w3.org/2000/svg" xmlns:xlink="http://www.w3.org/1999/xlink" width="400" height="400" viewBox="0, 0, 400,400"><g id="svgg"><path id="path0" d="M214.436 86.157 C 214.182 86.463,213.125 86.839,212.087 86.992 C 211.049 87.146,209.930 87.501,209.600 87.782 C 209.270 88.064,208.195 88.416,207.210 88.566 C 206.226 88.716,205.146 89.075,204.810 89.365 C 204.475 89.655,203.300 90.008,202.200 90.149 C 201.100 90.290,200.000 90.674,199.756 91.003 C 199.491 91.359,198.666 91.600,197.710 91.600 C 196.714 91.600,195.723 91.902,195.091 92.400 C 194.531 92.840,193.472 93.201,192.737 93.203 C 192.002 93.204,190.860 93.563,190.200 94.000 C 189.540 94.437,188.370 94.797,187.600 94.800 C 186.830 94.803,185.660 95.163,185.000 95.600 C 184.340 96.037,183.149 96.396,182.354 96.397 C 181.517 96.399,180.480 96.737,179.891 97.200 C 179.331 97.640,178.443 98.000,177.917 98.000 C 176.753 98.000,176.000 98.689,176.000 99.754 C 176.000 100.566,214.197 139.193,215.004 139.198 C 215.985 139.203,217.600 137.137,217.600 135.878 C 217.600 135.169,217.960 133.916,218.400 133.096 C 218.840 132.275,219.201 131.107,219.203 130.501 C 219.204 129.896,219.563 128.860,220.000 128.200 C 220.437 127.540,220.796 126.384,220.797 125.631 C 220.799 124.879,221.091 123.941,221.447 123.548 C 221.803 123.154,222.189 121.970,222.305 120.916 C 222.421 119.862,222.850 118.571,223.258 118.046 C 223.666 117.521,224.000 116.456,224.000 115.678 C 224.000 114.900,224.291 113.941,224.647 113.548 C 225.003 113.154,225.386 111.970,225.498 110.916 C 225.610 109.862,225.964 108.699,226.285 108.331 C 226.605 107.963,226.966 106.883,227.086 105.931 C 227.207 104.979,227.543 103.925,227.834 103.590 C 228.124 103.254,228.474 102.174,228.612 101.190 C 228.750 100.205,229.047 99.017,229.272 98.549 C 229.846 97.359,229.219 96.520,223.335 90.605 C 218.086 85.329,215.991 84.282,214.436 86.157 M161.862 123.131 C 161.498 123.534,161.200 124.078,161.200 124.341 C 161.200 124.605,160.840 125.844,160.400 127.096 C 159.039 130.969,159.675 138.505,161.624 141.600 C 161.832 141.930,162.192 142.644,162.424 143.187 C 163.467 145.625,168.059 150.444,170.273 151.424 C 170.973 151.734,171.650 152.157,171.777 152.363 C 171.905 152.570,172.589 152.866,173.299 153.022 C 174.008 153.177,175.033 153.596,175.576 153.952 C 178.306 155.741,192.800 154.291,192.800 152.228 C 192.800 151.684,163.519 122.400,162.974 122.400 C 162.727 122.400,162.226 122.729,161.862 123.131 M360.237 163.803 C 354.406 166.596,351.857 173.042,354.330 178.743 C 359.379 190.383,376.400 187.127,376.400 174.523 C 376.400 166.119,367.595 160.280,360.237 163.803 M90.839 251.126 C 90.314 252.108,90.225 281.105,90.745 281.924 C 90.965 282.272,91.740 282.407,93.039 282.324 L 95.000 282.200 95.097 267.000 C 95.150 258.640,95.041 251.561,94.854 251.270 C 94.227 250.288,91.343 250.185,90.839 251.126 M101.235 251.100 C 100.387 251.795,100.382 251.903,100.491 267.000 L 100.600 282.200 105.800 282.200 L 111.000 282.200 111.105 266.847 C 111.180 255.847,111.081 251.339,110.756 250.947 C 110.023 250.063,102.349 250.187,101.235 251.100 M236.080 251.680 C 235.724 252.036,235.600 256.052,235.600 267.272 L 235.600 282.385 236.575 282.630 C 237.932 282.970,245.862 282.674,246.268 282.267 C 247.008 281.526,246.907 252.781,246.161 251.957 C 245.331 251.039,236.951 250.809,236.080 251.680 M251.867 251.467 C 251.720 251.613,251.600 258.614,251.600 267.024 C 251.600 283.802,251.448 282.800,254.000 282.800 C 256.551 282.800,256.400 283.780,256.400 267.237 C 256.400 256.044,256.276 252.036,255.920 251.680 C 255.414 251.174,252.322 251.011,251.867 251.467 M90.790 296.626 C 90.564 297.221,90.400 303.505,90.400 311.600 C 90.400 327.095,90.468 327.600,92.562 327.600 C 95.264 327.600,95.200 327.992,95.200 311.451 C 95.200 295.093,95.280 295.600,92.710 295.600 C 91.436 295.600,91.115 295.771,90.790 296.626 M101.029 296.229 C 100.480 296.777,100.400 298.731,100.400 311.606 L 100.400 326.355 101.289 326.977 C 102.732 327.988,110.228 327.868,110.786 326.826 C 111.411 325.659,111.349 296.709,110.720 296.080 C 109.947 295.307,101.825 295.432,101.029 296.229 M235.878 295.855 C 235.356 296.377,235.551 325.791,236.080 326.320 C 236.749 326.989,244.811 326.973,245.729 326.300 C 246.354 325.842,246.402 324.547,246.306 310.800 L 246.200 295.800 241.178 295.689 C 238.416 295.627,236.031 295.702,235.878 295.855 M251.885 295.849 C 251.358 296.375,251.547 325.787,252.080 326.320 C 252.734 326.974,255.396 326.928,255.956 326.253 C 256.281 325.862,256.380 321.457,256.305 310.753 L 256.200 295.800 254.185 295.682 C 253.076 295.617,252.041 295.692,251.885 295.849 M297.422 312.687 C 292.924 313.853,289.085 319.247,289.283 324.120 L 289.400 327.000 338.200 327.000 L 387.000 327.000 387.119 324.517 C 387.325 320.200,384.709 315.768,380.611 313.494 L 379.000 312.600 338.600 312.543 C 316.380 312.511,297.850 312.576,297.422 312.687 M70.584 341.299 C 70.478 341.575,70.439 351.970,70.496 364.400 L 70.600 387.000 207.600 387.000 L 344.600 387.000 344.600 364.000 L 344.600 341.000 207.688 340.899 C 98.368 340.819,70.737 340.900,70.584 341.299 " stroke="none" fill="#f1e5d5" fill-rule="evenodd"></path><path id="path1" d="M185.200 0.400 C 185.200 0.635,183.800 0.800,181.800 0.800 C 179.674 0.800,178.400 0.959,178.400 1.224 C 178.400 1.457,178.220 1.536,178.000 1.400 C 177.780 1.264,177.600 1.433,177.600 1.776 C 177.600 2.269,177.116 2.400,175.296 2.400 C 173.426 2.400,172.898 2.550,172.493 3.200 C 172.102 3.826,171.560 4.000,169.997 4.000 C 168.533 4.000,167.786 4.214,167.200 4.800 C 166.667 5.333,165.867 5.600,164.800 5.600 C 163.467 5.600,163.200 5.733,163.200 6.400 C 163.200 7.078,162.933 7.200,161.449 7.200 C 160.257 7.200,159.523 7.424,159.149 7.900 C 158.651 8.534,158.666 8.549,159.300 8.051 C 159.711 7.729,160.000 7.676,160.000 7.924 C 160.000 8.443,159.070 8.746,157.100 8.869 C 156.187 8.927,155.600 9.166,155.600 9.482 C 155.600 9.767,155.465 10.013,155.300 10.030 C 153.878 10.171,152.930 10.508,152.556 11.007 C 152.312 11.333,151.851 11.600,151.532 11.600 C 151.214 11.600,150.604 11.883,150.176 12.230 C 149.749 12.576,149.653 12.728,149.962 12.568 C 150.302 12.391,150.424 12.438,150.270 12.687 C 150.131 12.912,149.473 13.205,148.808 13.338 C 148.098 13.480,147.600 13.831,147.600 14.190 C 147.600 14.714,146.400 15.037,145.124 14.855 C 144.973 14.834,144.736 15.173,144.597 15.608 C 144.459 16.044,144.095 16.400,143.787 16.400 C 143.480 16.400,143.035 16.760,142.800 17.200 C 142.520 17.724,141.962 18.000,141.186 18.000 C 140.267 18.000,140.000 18.180,140.000 18.800 C 140.000 19.333,139.733 19.600,139.200 19.600 C 138.667 19.600,138.400 19.867,138.400 20.400 C 138.400 20.922,138.133 21.200,137.633 21.200 C 136.546 21.200,135.600 21.615,135.600 22.092 C 135.600 22.315,135.915 22.251,136.300 21.949 C 136.934 21.451,136.949 21.466,136.451 22.100 C 136.149 22.485,135.384 22.800,134.751 22.800 C 133.867 22.800,133.600 22.985,133.600 23.600 C 133.600 24.133,133.333 24.400,132.800 24.400 C 132.360 24.400,132.000 24.604,132.000 24.854 C 132.000 25.374,130.137 27.200,129.606 27.200 C 129.413 27.200,129.146 27.541,129.014 27.957 C 128.882 28.373,128.419 28.806,127.987 28.919 C 127.554 29.033,127.200 29.412,127.200 29.763 C 127.200 30.113,126.942 30.400,126.627 30.400 C 126.312 30.400,125.940 30.760,125.800 31.200 C 125.660 31.640,125.288 32.000,124.973 32.000 C 124.658 32.000,124.400 32.360,124.400 32.800 C 124.400 33.333,124.133 33.600,123.600 33.600 C 123.067 33.600,122.800 33.867,122.800 34.400 C 122.800 34.933,122.533 35.200,122.000 35.200 C 121.483 35.200,121.200 35.467,121.200 35.953 C 121.200 36.370,120.843 36.800,120.400 36.916 C 119.960 37.031,119.600 37.412,119.600 37.763 C 119.600 38.133,119.265 38.400,118.800 38.400 C 118.208 38.400,118.000 38.667,118.000 39.424 C 118.000 40.073,117.837 40.347,117.555 40.172 C 116.968 39.809,116.414 40.733,116.406 42.087 C 116.402 42.907,116.246 43.116,115.776 42.935 C 115.361 42.776,115.079 42.977,114.933 43.535 C 114.812 43.996,114.373 44.482,113.957 44.614 C 113.541 44.746,113.200 45.112,113.200 45.427 C 113.200 45.742,112.840 46.360,112.400 46.800 C 111.960 47.240,111.600 47.960,111.600 48.400 C 111.600 48.840,111.348 49.200,111.039 49.200 C 110.520 49.200,110.189 49.804,108.957 53.000 C 108.703 53.660,108.249 54.200,107.948 54.200 C 107.604 54.200,107.354 54.758,107.276 55.700 C 107.179 56.875,106.984 57.200,106.376 57.200 C 105.752 57.200,105.600 57.482,105.600 58.637 C 105.600 59.738,105.413 60.124,104.800 60.284 C 104.203 60.440,104.000 60.830,104.000 61.820 C 104.000 62.795,103.788 63.213,103.200 63.400 C 102.564 63.602,102.400 64.005,102.400 65.365 C 102.400 66.568,102.162 67.291,101.600 67.800 C 101.115 68.239,100.800 69.032,100.800 69.815 C 100.800 70.770,100.592 71.161,100.000 71.316 C 99.322 71.493,99.200 71.862,99.200 73.736 C 99.200 75.595,99.073 75.986,98.400 76.200 C 97.710 76.419,97.600 76.805,97.600 79.004 C 97.600 81.021,97.447 81.664,96.866 82.077 C 96.293 82.485,96.111 83.214,96.036 85.400 C 95.968 87.345,95.762 88.299,95.361 88.525 C 95.043 88.703,94.880 89.006,94.998 89.197 C 95.116 89.388,95.047 89.647,94.844 89.773 C 94.642 89.898,94.452 92.563,94.422 95.696 C 94.388 99.283,94.204 101.541,93.925 101.796 C 93.611 102.083,93.575 102.026,93.800 101.600 C 94.063 101.102,94.022 101.088,93.559 101.520 C 92.649 102.367,92.757 117.064,93.684 118.479 C 94.233 119.317,94.380 120.559,94.424 124.759 C 94.472 129.243,94.589 130.132,95.240 130.960 C 95.824 131.703,96.000 132.581,96.000 134.760 C 96.000 137.160,96.122 137.670,96.800 138.093 C 97.426 138.484,97.601 139.029,97.605 140.596 C 97.612 143.165,97.951 144.400,98.647 144.400 C 99.029 144.400,99.200 144.913,99.200 146.056 C 99.200 147.148,99.438 147.907,99.900 148.286 C 100.358 148.661,100.393 148.770,100.000 148.600 C 99.607 148.430,99.642 148.539,100.100 148.914 C 100.533 149.270,100.800 150.043,100.800 150.944 C 100.800 151.745,100.935 152.379,101.100 152.353 C 102.133 152.189,102.400 152.527,102.400 154.000 C 102.400 155.049,102.667 155.867,103.175 156.375 C 103.601 156.801,104.018 157.746,104.101 158.475 C 104.194 159.289,104.474 159.800,104.826 159.800 C 105.196 159.800,105.471 160.370,105.600 161.400 C 105.751 162.611,105.970 162.987,106.500 162.944 C 106.976 162.907,107.200 163.177,107.200 163.791 C 107.200 164.286,107.560 165.150,108.000 165.709 C 108.440 166.269,108.800 167.013,108.800 167.363 C 108.800 167.713,109.047 168.000,109.350 168.000 C 109.653 168.000,110.004 168.518,110.130 169.152 C 110.257 169.785,110.605 170.550,110.903 170.852 C 111.201 171.153,111.564 171.715,111.710 172.100 C 111.856 172.485,112.251 172.800,112.587 172.800 C 112.925 172.800,113.200 173.145,113.200 173.567 C 113.200 174.759,113.631 175.600,114.243 175.600 C 114.549 175.600,114.800 175.960,114.800 176.400 C 114.800 176.933,115.067 177.200,115.600 177.200 C 116.133 177.200,116.400 177.467,116.400 178.000 C 116.400 178.533,116.667 178.800,117.200 178.800 C 117.852 178.800,118.000 179.067,118.000 180.237 C 118.000 181.330,118.189 181.724,118.787 181.881 C 119.219 181.994,119.682 182.427,119.814 182.843 C 119.946 183.259,120.312 183.600,120.627 183.600 C 120.942 183.600,121.200 183.960,121.200 184.400 C 121.200 184.933,121.467 185.200,122.000 185.200 C 122.533 185.200,122.800 185.467,122.800 186.000 C 122.800 186.533,123.067 186.800,123.600 186.800 C 124.141 186.800,124.400 187.067,124.400 187.624 C 124.400 188.077,124.568 188.344,124.773 188.217 C 124.978 188.090,125.431 188.395,125.780 188.893 C 126.130 189.392,126.637 189.808,126.908 189.818 C 127.178 189.828,127.350 190.069,127.289 190.353 C 127.227 190.637,127.542 190.964,127.989 191.081 C 128.728 191.274,128.976 191.685,128.847 192.500 C 128.821 192.665,129.160 192.800,129.600 192.800 C 130.133 192.800,130.400 193.067,130.400 193.600 C 130.400 194.117,130.667 194.400,131.153 194.400 C 131.570 194.400,132.000 194.757,132.116 195.200 C 132.231 195.640,132.637 196.000,133.018 196.000 C 133.400 196.000,133.957 196.315,134.257 196.700 C 134.767 197.355,134.785 197.351,134.533 196.634 C 134.347 196.105,134.409 195.958,134.732 196.158 C 134.989 196.317,135.200 196.707,135.200 197.024 C 135.200 197.341,135.560 197.600,136.000 197.600 C 136.533 197.600,136.800 197.867,136.800 198.400 C 136.800 198.933,137.067 199.200,137.600 199.200 C 138.133 199.200,138.400 199.467,138.400 200.000 C 138.400 200.475,138.667 200.800,139.056 200.800 C 139.417 200.800,139.970 201.115,140.286 201.500 C 140.626 201.916,140.738 201.956,140.561 201.600 C 140.313 201.101,140.392 201.108,141.031 201.639 C 141.454 201.991,142.115 202.390,142.500 202.527 C 142.885 202.663,143.200 203.061,143.200 203.411 C 143.200 203.761,143.369 203.943,143.576 203.815 C 143.783 203.687,144.278 203.932,144.676 204.359 C 145.074 204.786,145.895 205.259,146.500 205.411 C 147.105 205.563,147.600 205.921,147.600 206.208 C 147.600 206.505,148.290 206.846,149.200 207.000 C 150.184 207.166,150.800 207.488,150.800 207.835 C 150.800 208.227,151.289 208.400,152.400 208.400 C 153.733 208.400,154.000 208.533,154.000 209.200 C 154.000 209.867,154.267 210.000,155.600 210.000 C 156.933 210.000,157.200 210.133,157.200 210.800 C 157.200 211.445,157.467 211.600,158.573 211.600 C 159.595 211.600,160.011 211.805,160.200 212.400 C 160.397 213.021,160.805 213.200,162.027 213.200 C 163.150 213.200,163.600 213.370,163.600 213.792 C 163.600 214.414,164.468 214.712,166.800 214.892 C 167.730 214.964,168.200 215.202,168.200 215.600 C 168.200 216.045,168.763 216.232,170.373 216.323 C 171.787 216.404,172.709 216.670,173.012 217.085 C 173.299 217.477,173.680 217.598,174.001 217.399 C 174.346 217.186,174.427 217.233,174.238 217.538 C 174.034 217.869,174.695 218.000,176.576 218.000 C 178.552 218.000,179.200 218.138,179.200 218.557 C 179.200 219.385,180.121 219.600,183.670 219.600 C 186.256 219.600,187.068 219.753,187.879 220.391 C 189.058 221.318,221.200 221.663,221.200 220.748 C 221.200 220.509,221.479 220.422,221.821 220.553 C 222.162 220.684,222.339 220.625,222.214 220.423 C 221.825 219.793,222.534 219.646,226.316 219.569 C 229.505 219.505,230.010 219.398,230.217 218.748 C 230.414 218.127,230.891 217.992,233.027 217.950 C 236.560 217.881,236.607 217.870,236.544 217.090 C 236.498 216.508,236.859 216.400,238.844 216.400 C 240.933 216.400,241.200 216.309,241.200 215.600 C 241.200 214.889,241.467 214.800,243.600 214.800 C 245.733 214.800,246.000 214.711,246.000 214.000 C 246.000 213.333,246.267 213.200,247.600 213.200 C 248.667 213.200,249.467 212.933,250.000 212.400 C 250.485 211.915,251.333 211.600,252.153 211.600 C 253.170 211.600,253.559 211.401,253.716 210.800 C 253.832 210.355,254.262 210.000,254.683 210.000 C 255.099 210.000,255.682 209.775,255.979 209.500 C 256.410 209.100,256.461 209.100,256.235 209.500 C 256.079 209.777,256.163 210.000,256.423 210.000 C 256.696 210.000,256.806 209.665,256.684 209.200 C 256.505 208.516,256.672 208.400,257.834 208.400 C 258.736 208.400,259.353 208.144,259.668 207.640 C 259.929 207.222,260.391 206.975,260.695 207.092 C 261.029 207.220,261.336 206.967,261.471 206.452 C 261.633 205.832,262.006 205.600,262.843 205.600 C 263.560 205.600,264.181 205.299,264.493 204.800 C 264.768 204.360,265.309 204.000,265.696 204.000 C 266.083 204.000,266.760 203.640,267.200 203.200 C 267.640 202.760,268.287 202.400,268.637 202.400 C 268.988 202.400,269.369 202.040,269.484 201.600 C 269.600 201.157,270.030 200.800,270.447 200.800 C 270.933 200.800,271.200 200.517,271.200 200.000 C 271.200 199.372,271.467 199.200,272.437 199.200 C 273.319 199.200,273.732 198.980,273.874 198.437 C 273.984 198.017,274.417 197.584,274.837 197.474 C 275.257 197.365,275.600 196.988,275.600 196.637 C 275.600 196.267,275.935 196.000,276.400 196.000 C 276.933 196.000,277.200 195.733,277.200 195.200 C 277.200 194.667,277.467 194.400,278.000 194.400 C 278.533 194.400,278.800 194.133,278.800 193.600 C 278.800 193.067,279.067 192.800,279.600 192.800 C 280.116 192.800,280.400 192.533,280.400 192.050 C 280.400 191.545,280.773 191.225,281.543 191.071 C 282.894 190.801,286.800 186.974,286.800 185.921 C 286.800 185.467,287.096 185.200,287.600 185.200 C 288.117 185.200,288.400 184.933,288.400 184.447 C 288.400 184.018,288.762 183.599,289.240 183.474 C 289.737 183.344,289.966 183.068,289.800 182.800 C 289.634 182.532,289.863 182.256,290.360 182.126 C 290.838 182.001,291.200 181.582,291.200 181.153 C 291.200 180.667,291.483 180.400,292.000 180.400 C 292.517 180.400,292.800 180.133,292.800 179.647 C 292.800 179.230,293.157 178.800,293.600 178.684 C 294.213 178.524,294.400 178.138,294.400 177.037 C 294.400 175.867,294.548 175.600,295.200 175.600 C 295.733 175.600,296.000 175.333,296.000 174.800 C 296.000 174.267,296.267 174.000,296.800 174.000 C 297.418 174.000,297.600 173.733,297.600 172.827 C 297.600 172.005,297.840 171.578,298.400 171.400 C 298.897 171.242,299.200 170.795,299.200 170.217 C 299.200 169.583,299.419 169.307,299.890 169.344 C 300.585 169.400,300.658 169.234,300.750 167.400 C 300.786 166.683,301.027 166.400,301.600 166.400 C 302.222 166.400,302.400 166.133,302.400 165.203 C 302.400 164.440,302.690 163.826,303.200 163.507 C 303.640 163.232,304.000 162.683,304.000 162.287 C 304.000 161.891,304.360 161.180,304.800 160.708 C 305.240 160.236,305.600 159.352,305.600 158.744 C 305.600 158.137,305.891 157.477,306.246 157.278 C 306.601 157.080,306.959 156.337,307.042 155.627 C 307.223 154.071,307.529 153.509,308.028 153.817 C 308.233 153.944,308.400 153.342,308.400 152.470 C 308.400 151.230,308.571 150.849,309.200 150.684 C 309.877 150.507,310.000 150.138,310.000 148.284 C 310.000 146.430,310.123 146.061,310.800 145.884 C 311.468 145.709,311.600 145.338,311.600 143.637 C 311.600 142.193,311.814 141.386,312.335 140.865 C 313.455 139.745,313.853 132.835,312.890 131.254 C 311.522 129.011,265.057 82.400,264.188 82.400 C 262.495 82.400,260.053 86.053,259.375 89.600 C 259.228 90.370,258.967 91.180,258.796 91.400 C 258.625 91.620,258.210 92.790,257.874 94.000 C 257.538 95.210,256.875 97.460,256.401 99.000 C 255.927 100.540,255.285 102.700,254.974 103.800 C 254.663 104.900,254.225 106.160,254.000 106.600 C 253.775 107.040,253.337 108.300,253.026 109.400 C 252.715 110.500,252.073 112.660,251.600 114.200 C 251.127 115.740,250.485 117.900,250.174 119.000 C 249.863 120.100,249.430 121.360,249.212 121.800 C 248.993 122.240,248.641 123.320,248.430 124.200 C 248.055 125.759,247.194 128.575,246.350 131.000 C 246.120 131.660,245.686 133.010,245.385 134.000 C 245.083 134.990,244.482 136.970,244.047 138.400 C 243.613 139.830,243.072 141.540,242.845 142.200 C 241.963 144.765,241.138 147.469,240.770 149.000 C 240.559 149.880,240.207 150.960,239.988 151.400 C 239.770 151.840,239.337 153.100,239.026 154.200 C 238.715 155.300,238.073 157.460,237.599 159.000 C 237.125 160.540,236.462 162.790,236.126 164.000 C 235.790 165.210,235.371 166.380,235.194 166.600 C 235.016 166.820,234.741 167.720,234.582 168.600 C 234.423 169.480,234.069 170.650,233.795 171.200 C 233.521 171.750,233.165 172.830,233.004 173.600 C 231.958 178.598,229.537 181.200,225.931 181.200 C 222.819 181.200,223.080 181.402,212.764 171.007 C 203.804 161.979,203.199 161.533,201.343 162.580 C 200.714 162.935,199.390 163.687,198.400 164.252 C 197.410 164.816,196.060 165.458,195.400 165.678 C 194.740 165.899,193.660 166.307,193.000 166.586 C 182.848 170.873,167.343 167.095,158.136 158.090 C 152.053 152.141,149.148 146.858,147.196 138.200 C 146.592 135.521,146.733 128.415,147.443 125.784 C 147.797 124.473,148.249 122.719,148.448 121.886 C 148.647 121.054,148.973 120.064,149.172 119.686 C 149.371 119.309,150.019 118.010,150.612 116.800 C 151.205 115.590,151.918 114.330,152.197 114.000 C 153.826 112.076,153.845 112.103,143.871 102.065 C 133.708 91.837,133.613 91.699,134.117 87.944 C 134.433 85.588,137.940 82.858,140.750 82.782 C 141.107 82.773,142.120 82.490,143.000 82.155 C 143.880 81.820,145.320 81.375,146.200 81.167 C 147.080 80.959,148.430 80.546,149.200 80.249 C 149.970 79.952,151.950 79.300,153.600 78.800 C 155.250 78.300,157.230 77.648,158.000 77.351 C 158.770 77.054,160.293 76.619,161.384 76.385 C 162.475 76.151,163.555 75.809,163.784 75.626 C 164.013 75.442,164.830 75.172,165.600 75.025 C 166.370 74.878,167.630 74.512,168.400 74.212 C 169.170 73.913,171.420 73.186,173.400 72.597 C 175.380 72.008,177.720 71.285,178.600 70.990 C 179.480 70.694,181.820 69.975,183.800 69.390 C 185.780 68.806,187.760 68.162,188.200 67.959 C 188.640 67.757,189.900 67.337,191.000 67.026 C 193.569 66.300,197.860 64.998,199.400 64.478 C 200.060 64.254,201.950 63.671,203.600 63.181 C 205.250 62.691,207.230 62.063,208.000 61.786 C 208.770 61.508,211.020 60.792,213.000 60.194 C 214.980 59.596,217.230 58.860,218.000 58.559 C 218.770 58.258,220.120 57.841,221.000 57.633 C 221.880 57.425,223.320 56.980,224.200 56.645 C 225.080 56.310,226.122 56.027,226.516 56.018 C 228.497 55.969,233.199 52.341,233.200 50.861 C 233.200 50.565,232.065 49.125,230.677 47.661 C 226.420 43.171,225.888 41.426,227.788 38.185 C 230.322 33.860,234.823 33.936,239.178 38.376 C 242.972 42.243,242.214 42.506,249.644 34.754 C 257.416 26.646,257.979 26.244,261.233 26.480 L 263.621 26.653 275.248 38.226 C 292.456 55.354,292.166 53.768,280.244 65.587 C 276.590 69.211,273.600 72.368,273.600 72.603 C 273.600 73.539,314.577 114.429,315.500 114.414 L 316.400 114.400 316.394 105.100 C 316.388 96.116,316.192 94.387,315.245 94.972 C 314.928 95.168,314.800 93.915,314.800 90.627 C 314.800 86.440,314.725 85.960,314.000 85.507 C 313.319 85.082,313.200 84.574,313.200 82.104 C 313.200 79.467,313.127 79.200,312.400 79.200 C 311.689 79.200,311.600 78.933,311.600 76.800 C 311.600 74.667,311.511 74.400,310.800 74.400 C 310.089 74.400,310.000 74.133,310.000 72.000 C 310.000 70.680,309.865 69.621,309.700 69.647 C 308.680 69.808,308.400 69.472,308.400 68.089 C 308.400 67.258,308.088 66.133,307.708 65.590 C 307.002 64.582,306.967 64.472,306.861 62.900 C 306.827 62.405,306.553 62.000,306.250 62.000 C 305.773 62.000,304.994 59.954,305.146 59.100 C 305.176 58.935,304.950 58.800,304.645 58.800 C 304.325 58.800,303.976 58.197,303.822 57.379 C 303.676 56.597,303.296 55.858,302.978 55.736 C 302.660 55.614,302.400 55.292,302.400 55.019 C 302.400 54.747,302.040 54.198,301.600 53.800 C 301.157 53.399,300.800 52.568,300.800 51.938 C 300.800 51.067,300.613 50.800,300.000 50.800 C 299.380 50.800,299.200 50.533,299.200 49.614 C 299.200 48.838,298.924 48.280,298.400 48.000 C 297.960 47.765,297.600 47.218,297.600 46.786 C 297.600 46.354,297.465 46.021,297.300 46.047 C 296.403 46.189,296.037 45.879,295.794 44.773 C 295.646 44.098,295.272 43.449,294.962 43.330 C 294.653 43.212,294.400 42.774,294.400 42.357 C 294.400 41.867,294.118 41.600,293.600 41.600 C 293.067 41.600,292.800 41.333,292.800 40.800 C 292.800 40.267,292.533 40.000,292.000 40.000 C 291.467 40.000,291.200 39.733,291.200 39.200 C 291.200 38.756,290.933 38.400,290.600 38.400 C 290.270 38.400,290.000 38.220,290.000 38.000 C 290.000 37.780,289.992 37.465,289.982 37.300 C 289.971 37.135,289.396 36.415,288.703 35.700 C 288.010 34.985,287.583 34.400,287.754 34.400 C 287.925 34.400,286.521 32.870,284.634 31.000 C 282.748 29.130,281.066 27.600,280.898 27.600 C 280.730 27.600,280.378 27.256,280.115 26.836 C 279.853 26.416,279.090 25.951,278.419 25.804 C 277.749 25.657,277.200 25.281,277.200 24.968 C 277.200 24.656,276.840 24.400,276.400 24.400 C 275.867 24.400,275.600 24.133,275.600 23.600 C 275.600 23.067,275.333 22.800,274.800 22.800 C 274.267 22.800,274.000 22.533,274.000 22.000 C 274.000 21.467,273.733 21.200,273.200 21.200 C 272.478 21.200,272.208 20.777,272.359 19.881 C 272.388 19.706,272.185 19.592,271.906 19.628 C 270.359 19.831,269.600 19.559,269.600 18.800 C 269.600 18.283,269.333 18.000,268.847 18.000 C 268.430 18.000,268.000 17.643,267.884 17.200 C 267.724 16.587,267.338 16.400,266.237 16.400 C 265.067 16.400,264.800 16.252,264.800 15.600 C 264.800 15.067,264.533 14.800,264.000 14.800 C 263.560 14.800,263.200 14.549,263.200 14.243 C 263.200 13.605,262.351 13.200,261.014 13.200 C 260.450 13.200,260.017 12.909,259.897 12.450 C 259.764 11.939,259.339 11.700,258.566 11.700 C 257.853 11.700,257.222 11.384,256.867 10.850 C 256.509 10.311,255.881 10.000,255.151 10.000 C 254.395 10.000,254.000 9.794,254.000 9.400 C 254.000 8.967,253.556 8.800,252.400 8.800 C 251.067 8.800,250.800 8.667,250.800 8.000 C 250.800 7.319,250.533 7.200,249.000 7.200 C 247.728 7.200,247.200 7.037,247.200 6.643 C 247.200 5.923,246.322 5.600,244.367 5.600 C 243.116 5.600,242.800 5.453,242.800 4.868 C 242.800 4.256,242.428 4.122,240.509 4.044 C 238.342 3.957,237.387 3.468,237.867 2.692 C 237.984 2.502,237.837 2.380,237.540 2.421 C 234.986 2.771,232.080 2.350,231.884 1.600 C 231.693 0.870,231.338 0.800,227.837 0.800 C 225.546 0.800,224.000 0.639,224.000 0.400 C 224.000 0.139,217.267 0.000,204.600 0.000 C 191.933 0.000,185.200 0.139,185.200 0.400 M133.226 123.614 C 134.294 124.186,134.422 133.752,133.367 134.157 C 132.543 134.473,122.657 134.473,121.833 134.157 C 121.023 133.846,120.886 124.474,121.680 123.680 C 122.287 123.073,132.111 123.017,133.226 123.614 M139.329 151.700 C 139.701 152.415,140.458 153.720,141.011 154.600 C 141.564 155.480,142.130 156.470,142.269 156.800 C 142.408 157.130,142.757 157.677,143.046 158.015 C 144.127 159.283,143.231 160.277,138.579 162.970 C 132.560 166.454,133.082 166.577,129.866 160.919 C 127.105 156.062,126.996 156.318,133.359 152.706 C 138.068 150.032,138.428 149.971,139.329 151.700 M159.134 173.606 C 164.500 176.657,165.116 177.519,163.415 179.600 C 163.146 179.930,161.983 181.865,160.832 183.900 C 159.682 185.935,158.585 187.600,158.396 187.600 C 157.869 187.600,156.332 186.875,155.000 185.998 C 154.340 185.564,153.350 184.988,152.800 184.718 C 152.250 184.448,151.170 183.778,150.400 183.230 C 149.630 182.681,148.956 182.211,148.903 182.186 C 148.544 182.013,153.201 173.876,154.374 172.628 C 155.561 171.364,154.982 171.245,159.134 173.606 M191.911 187.306 L 192.021 193.212 190.985 193.606 C 189.647 194.115,182.761 194.118,181.426 193.610 L 180.400 193.220 180.400 187.690 C 180.400 180.758,180.022 181.149,186.591 181.289 L 191.800 181.400 191.911 187.306 M70.667 295.867 C 70.152 296.381,70.358 326.598,70.880 327.120 C 71.228 327.468,74.096 327.600,81.270 327.600 L 91.180 327.600 90.790 326.574 C 90.564 325.979,90.400 319.695,90.400 311.600 C 90.400 303.505,90.564 297.221,90.790 296.626 L 91.180 295.600 81.057 295.600 C 75.489 295.600,70.813 295.720,70.667 295.867 M94.720 296.080 C 95.535 296.895,95.395 326.148,94.571 326.971 C 94.000 327.543,94.317 327.600,98.060 327.600 C 101.901 327.600,102.118 327.558,101.289 326.977 L 100.400 326.355 100.400 311.606 C 100.400 298.731,100.480 296.777,101.029 296.229 C 101.600 295.657,101.320 295.600,97.949 295.600 C 95.064 295.600,94.347 295.707,94.720 296.080 M110.720 296.080 C 111.349 296.709,111.411 325.659,110.786 326.826 C 110.145 328.024,273.617 328.030,275.176 326.832 L 276.152 326.082 276.176 311.228 C 276.197 298.443,276.116 296.321,275.600 295.993 C 275.265 295.780,270.855 295.609,265.600 295.606 L 256.200 295.600 256.310 310.647 C 256.430 327.164,256.482 326.800,254.000 326.800 C 251.518 326.800,251.570 327.164,251.690 310.647 L 251.800 295.600 249.000 295.600 L 246.200 295.600 246.310 310.698 C 246.439 328.485,247.018 326.800,240.773 326.800 C 235.063 326.800,235.561 328.385,235.690 310.647 L 235.800 295.600 173.020 295.600 C 124.191 295.600,110.347 295.707,110.720 296.080 " stroke="none" fill="#2ca3db" fill-rule="evenodd"></path><path id="path2" d="M248.714 54.180 C 240.652 62.216,236.960 65.632,236.149 65.804 C 235.517 65.939,234.647 66.242,234.217 66.480 C 233.786 66.717,232.526 67.138,231.417 67.415 C 230.307 67.692,228.860 68.109,228.200 68.343 C 225.934 69.145,222.998 70.046,221.400 70.430 C 220.520 70.641,219.440 70.993,219.000 71.212 C 218.560 71.430,217.300 71.863,216.200 72.174 C 210.823 73.694,208.928 74.293,208.126 74.727 C 207.646 74.987,206.836 75.206,206.326 75.214 C 205.817 75.221,204.680 75.575,203.800 76.000 C 202.920 76.425,201.750 76.785,201.200 76.800 C 200.650 76.815,199.480 77.175,198.600 77.600 C 197.720 78.025,196.643 78.379,196.208 78.386 C 195.772 78.394,194.512 78.739,193.408 79.152 C 190.159 80.370,188.720 80.849,186.600 81.421 C 184.562 81.971,181.559 82.900,179.400 83.648 C 178.740 83.877,177.300 84.288,176.200 84.560 C 175.100 84.833,173.840 85.245,173.400 85.475 C 172.960 85.706,171.899 86.021,171.042 86.176 C 170.184 86.331,169.104 86.695,168.642 86.984 C 168.179 87.274,167.107 87.632,166.260 87.781 C 165.413 87.930,164.153 88.284,163.460 88.569 C 161.441 89.400,157.124 90.714,155.558 90.974 C 151.962 91.573,150.539 89.974,187.885 127.311 C 206.855 146.275,222.517 161.839,222.690 161.897 C 223.090 162.030,224.519 157.925,226.274 151.600 C 226.610 150.390,227.029 149.220,227.206 149.000 C 227.384 148.780,227.659 147.880,227.818 147.000 C 227.977 146.120,228.331 144.950,228.605 144.400 C 228.879 143.850,229.229 142.770,229.382 142.000 C 229.535 141.230,229.985 139.700,230.382 138.600 C 231.745 134.826,232.083 133.796,232.609 131.800 C 232.898 130.700,233.323 129.260,233.552 128.600 C 234.470 125.952,235.272 123.308,235.676 121.600 C 235.911 120.610,236.349 119.445,236.651 119.011 C 236.953 118.577,237.204 117.767,237.209 117.211 C 237.214 116.655,237.574 115.415,238.009 114.456 C 238.444 113.497,238.806 112.327,238.814 111.856 C 238.821 111.385,239.175 110.280,239.600 109.400 C 240.025 108.520,240.379 107.377,240.386 106.860 C 240.394 106.344,240.669 105.354,240.997 104.660 C 241.555 103.485,241.842 102.577,243.395 97.100 C 243.723 95.945,244.170 94.640,244.388 94.200 C 244.607 93.760,244.959 92.680,245.170 91.800 C 245.554 90.202,246.455 87.266,247.257 85.000 C 247.491 84.340,247.908 82.896,248.184 81.791 C 249.081 78.200,249.938 77.146,261.042 65.984 C 267.069 59.924,272.000 54.702,272.000 54.378 C 272.000 53.710,261.221 42.800,260.560 42.800 C 260.324 42.800,254.993 47.921,248.714 54.180 M223.335 90.605 C 229.219 96.520,229.846 97.359,229.272 98.549 C 229.047 99.017,228.750 100.205,228.612 101.190 C 228.474 102.174,228.124 103.254,227.834 103.590 C 227.543 103.925,227.207 104.979,227.086 105.931 C 226.966 106.883,226.605 107.963,226.285 108.331 C 225.964 108.699,225.610 109.862,225.498 110.916 C 225.386 111.970,225.003 113.154,224.647 113.548 C 224.291 113.941,224.000 114.900,224.000 115.678 C 224.000 116.456,223.666 117.521,223.258 118.046 C 222.850 118.571,222.421 119.862,222.305 120.916 C 222.189 121.970,221.803 123.154,221.447 123.548 C 221.091 123.941,220.799 124.879,220.797 125.631 C 220.796 126.384,220.437 127.540,220.000 128.200 C 219.563 128.860,219.204 129.896,219.203 130.501 C 219.201 131.107,218.840 132.275,218.400 133.096 C 217.960 133.916,217.600 135.169,217.600 135.878 C 217.600 137.137,215.985 139.203,215.004 139.198 C 214.197 139.193,176.000 100.566,176.000 99.754 C 176.000 98.689,176.753 98.000,177.917 98.000 C 178.443 98.000,179.331 97.640,179.891 97.200 C 180.480 96.737,181.517 96.399,182.354 96.397 C 183.149 96.396,184.340 96.037,185.000 95.600 C 185.660 95.163,186.830 94.803,187.600 94.800 C 188.370 94.797,189.540 94.437,190.200 94.000 C 190.860 93.563,192.002 93.204,192.737 93.203 C 193.472 93.201,194.531 92.840,195.091 92.400 C 195.723 91.902,196.714 91.600,197.710 91.600 C 198.666 91.600,199.491 91.359,199.756 91.003 C 200.000 90.674,201.100 90.290,202.200 90.149 C 203.300 90.008,204.475 89.655,204.810 89.365 C 205.146 89.075,206.226 88.716,207.210 88.566 C 208.195 88.416,209.270 88.064,209.600 87.782 C 209.930 87.501,211.049 87.146,212.087 86.992 C 213.125 86.839,214.182 86.463,214.436 86.157 C 215.991 84.282,218.086 85.329,223.335 90.605 M70.880 251.280 C 70.372 251.788,70.149 280.479,70.643 281.767 C 70.855 282.321,72.123 282.400,80.743 282.400 L 90.600 282.400 90.600 266.600 L 90.600 250.800 80.980 250.800 C 74.031 250.800,71.227 250.933,70.880 251.280 M95.000 266.600 L 95.000 282.400 97.800 282.400 L 100.600 282.400 100.491 267.152 C 100.412 256.136,100.508 251.751,100.840 251.352 C 101.223 250.891,100.782 250.800,98.149 250.800 L 95.000 250.800 95.000 266.600 M111.000 266.600 L 111.000 282.400 173.300 282.400 L 235.600 282.400 235.600 267.224 C 235.600 257.375,235.743 251.959,236.007 251.796 C 237.467 250.894,231.595 250.800,173.476 250.800 L 111.000 250.800 111.000 266.600 M245.866 251.068 C 245.719 251.215,245.881 251.647,246.226 252.029 C 246.777 252.638,246.838 254.524,246.727 267.561 L 246.600 282.400 249.100 282.400 L 251.600 282.400 251.600 267.233 C 251.600 258.891,251.709 251.781,251.843 251.433 C 252.096 250.774,246.501 250.432,245.866 251.068 M255.817 251.172 C 255.691 251.377,255.770 251.658,255.993 251.796 C 256.257 251.959,256.400 257.375,256.400 267.224 L 256.400 282.400 265.567 282.400 C 270.609 282.400,275.019 282.291,275.367 282.157 C 275.929 281.942,276.000 280.209,276.000 266.747 L 276.000 251.580 274.974 251.190 C 273.657 250.690,256.126 250.673,255.817 251.172 M359.300 340.869 L 358.400 341.322 358.400 364.018 C 358.400 384.345,358.466 386.740,359.033 386.957 C 359.381 387.091,364.894 387.200,371.286 387.200 C 388.666 387.200,387.200 389.362,387.200 363.733 L 387.200 344.560 386.118 342.891 C 385.523 341.974,384.758 341.093,384.418 340.934 C 383.325 340.424,360.303 340.365,359.300 340.869 M54.116 346.334 C 49.941 348.459,45.492 350.782,44.800 351.198 C 44.470 351.396,43.716 351.793,43.124 352.079 C 39.729 353.723,35.958 355.745,35.795 356.008 C 35.692 356.175,35.140 356.429,34.570 356.572 C 33.999 356.715,33.322 357.010,33.066 357.226 C 32.810 357.443,30.800 358.547,28.600 359.679 C 26.400 360.811,23.928 362.084,23.107 362.507 C 21.096 363.544,21.542 364.296,25.294 366.198 C 26.892 367.009,30.360 368.807,33.000 370.194 C 35.640 371.581,39.780 373.738,42.200 374.988 C 44.620 376.238,48.580 378.321,51.000 379.617 C 56.406 382.512,56.923 382.751,57.300 382.529 C 57.690 382.300,57.681 345.947,57.291 345.334 C 57.082 345.005,56.149 345.299,54.116 346.334 " stroke="none" fill="#ee6354" fill-rule="evenodd"></path><path id="path3" d="M258.800 26.681 C 258.153 26.792,255.189 29.507,250.400 34.378 L 243.000 41.903 241.997 41.252 C 241.446 40.893,240.050 39.645,238.895 38.479 C 234.846 34.388,230.595 34.207,228.186 38.022 C 226.225 41.129,226.764 43.473,230.204 46.800 C 233.050 49.552,233.723 50.623,233.210 51.581 C 232.099 53.657,229.191 55.707,226.661 56.198 C 225.967 56.333,224.770 56.688,224.000 56.988 C 223.230 57.287,220.980 58.008,219.000 58.589 C 217.020 59.171,214.809 59.906,214.086 60.223 C 213.364 60.540,212.464 60.808,212.086 60.818 C 211.709 60.827,210.680 61.109,209.800 61.443 C 207.880 62.173,205.121 63.030,201.600 63.989 C 200.170 64.379,198.550 64.880,198.000 65.104 C 197.450 65.327,195.380 65.998,193.400 66.595 C 191.420 67.192,189.170 67.908,188.400 68.186 C 187.630 68.463,185.650 69.100,184.000 69.600 C 182.350 70.101,180.010 70.820,178.800 71.200 C 177.590 71.580,175.250 72.299,173.600 72.800 C 171.950 73.300,169.970 73.940,169.200 74.221 C 168.430 74.502,166.180 75.202,164.200 75.776 C 162.220 76.350,160.060 77.014,159.400 77.251 C 158.740 77.488,157.300 77.924,156.200 78.221 C 154.102 78.787,151.162 79.722,148.800 80.574 C 146.142 81.533,142.196 82.745,140.873 83.010 C 140.143 83.156,139.063 83.527,138.473 83.835 C 137.883 84.143,137.209 84.396,136.975 84.398 C 135.564 84.406,134.230 86.826,134.297 89.254 C 134.384 92.388,134.024 91.922,144.349 102.275 C 153.725 111.677,153.995 112.069,152.459 114.046 C 148.227 119.492,145.639 133.582,147.774 139.550 C 148.118 140.513,148.400 141.649,148.400 142.075 C 148.400 143.608,152.490 151.725,154.005 153.200 C 154.119 153.310,154.996 154.352,155.955 155.515 C 163.405 164.548,175.674 169.194,187.512 167.466 C 189.994 167.104,192.514 166.561,193.112 166.260 C 193.711 165.959,194.669 165.600,195.242 165.463 C 195.815 165.326,197.674 164.421,199.373 163.453 C 203.465 161.121,202.866 160.795,212.800 170.741 C 222.568 180.521,223.411 181.200,225.797 181.200 C 229.059 181.200,231.333 178.648,232.901 173.226 C 234.012 169.385,235.686 163.995,236.450 161.800 C 236.680 161.140,237.114 159.790,237.415 158.800 C 237.717 157.810,238.318 155.830,238.753 154.400 C 239.187 152.970,239.728 151.260,239.955 150.600 C 240.837 148.035,241.662 145.331,242.030 143.800 C 242.241 142.920,242.593 141.840,242.812 141.400 C 243.030 140.960,243.463 139.700,243.774 138.600 C 244.085 137.500,244.727 135.340,245.200 133.800 C 245.673 132.260,246.318 130.100,246.633 129.000 C 246.948 127.900,247.474 126.433,247.803 125.740 C 248.131 125.046,248.400 124.150,248.400 123.747 C 248.400 123.345,248.737 122.112,249.148 121.008 C 249.560 119.903,250.253 117.830,250.688 116.400 C 251.123 114.970,251.889 112.450,252.390 110.800 C 252.891 109.150,253.524 107.259,253.797 106.598 C 254.070 105.938,254.417 104.768,254.568 103.998 C 254.719 103.229,255.086 101.970,255.383 101.200 C 255.946 99.743,256.777 97.104,258.595 91.000 C 260.440 84.807,262.233 82.000,264.345 82.000 C 264.752 82.000,268.999 86.016,274.180 91.300 C 279.194 96.415,289.826 107.170,297.806 115.200 C 312.557 130.044,313.600 131.271,313.600 133.780 C 313.600 134.776,313.779 135.200,314.200 135.200 C 314.530 135.200,314.800 135.458,314.800 135.773 C 314.800 136.088,315.160 136.460,315.600 136.600 C 316.040 136.740,316.400 137.112,316.400 137.427 C 316.400 137.742,316.687 138.000,317.037 138.000 C 317.388 138.000,317.769 138.360,317.884 138.800 C 318.000 139.243,318.430 139.600,318.847 139.600 C 319.333 139.600,319.600 139.883,319.600 140.400 C 319.600 140.933,319.867 141.200,320.400 141.200 C 320.933 141.200,321.200 141.467,321.200 142.000 C 321.200 142.533,321.467 142.800,322.000 142.800 C 322.533 142.800,322.800 143.067,322.800 143.600 C 322.800 144.133,323.067 144.400,323.600 144.400 C 324.133 144.400,324.400 144.667,324.400 145.200 C 324.400 145.733,324.667 146.000,325.200 146.000 C 325.733 146.000,326.000 146.267,326.000 146.800 C 326.000 147.240,326.258 147.600,326.573 147.600 C 326.888 147.600,327.260 147.960,327.400 148.400 C 327.540 148.840,327.900 149.200,328.200 149.200 C 328.500 149.200,328.860 149.560,329.000 150.000 C 329.140 150.440,329.491 150.800,329.780 150.800 C 330.070 150.800,330.401 151.160,330.516 151.600 C 330.631 152.040,330.991 152.400,331.316 152.400 C 331.641 152.400,332.001 152.760,332.116 153.200 C 332.231 153.640,332.612 154.000,332.963 154.000 C 333.313 154.000,333.600 154.258,333.600 154.573 C 333.600 154.888,333.960 155.260,334.400 155.400 C 334.840 155.540,335.200 155.912,335.200 156.227 C 335.200 156.542,335.487 156.800,335.837 156.800 C 336.188 156.800,336.569 157.160,336.684 157.600 C 336.800 158.043,337.230 158.400,337.647 158.400 C 338.133 158.400,338.400 158.683,338.400 159.200 C 338.400 159.733,338.667 160.000,339.200 160.000 C 339.733 160.000,340.000 160.267,340.000 160.800 C 340.000 161.333,340.267 161.600,340.800 161.600 C 341.467 161.600,341.600 161.867,341.600 163.200 C 341.600 164.533,341.467 164.800,340.800 164.800 C 340.023 164.800,340.000 165.067,340.000 174.200 C 340.000 183.333,340.023 183.600,340.800 183.600 C 341.463 183.600,341.600 183.867,341.600 185.157 C 341.600 186.172,341.809 186.795,342.200 186.945 C 342.530 187.071,342.800 187.629,342.800 188.184 C 342.800 188.760,343.143 189.408,343.600 189.693 C 344.040 189.968,344.400 190.419,344.400 190.696 C 344.400 190.973,344.760 191.200,345.200 191.200 C 345.733 191.200,346.000 191.467,346.000 192.000 C 346.000 192.533,346.267 192.800,346.800 192.800 C 347.333 192.800,347.600 193.067,347.600 193.600 C 347.600 194.133,347.867 194.400,348.400 194.400 C 348.933 194.400,349.200 194.667,349.200 195.200 C 349.200 195.733,349.467 196.000,350.000 196.000 C 350.663 196.000,350.800 196.267,350.800 197.553 C 350.800 198.770,350.627 199.152,350.000 199.316 C 349.289 199.502,349.200 199.862,349.200 202.563 C 349.200 205.333,349.130 205.600,348.400 205.600 C 347.677 205.600,347.600 205.867,347.600 208.386 C 347.600 210.762,347.482 211.235,346.800 211.600 C 346.160 211.942,346.000 212.438,346.000 214.070 C 346.000 215.535,345.807 216.253,345.316 216.612 C 344.813 216.980,344.588 217.867,344.470 219.956 C 344.361 221.894,344.149 222.800,343.805 222.800 C 343.217 222.800,342.800 224.563,342.800 227.050 C 342.800 228.339,342.642 228.800,342.200 228.800 C 341.734 228.800,341.600 229.332,341.600 231.186 C 341.600 233.162,341.463 233.645,340.800 234.000 C 340.118 234.365,340.000 234.838,340.000 237.214 C 340.000 239.733,339.923 240.000,339.200 240.000 C 338.472 240.000,338.400 240.267,338.400 242.953 C 338.400 245.570,338.309 245.931,337.600 246.116 C 336.920 246.294,336.800 246.662,336.800 248.563 C 336.800 250.267,336.609 250.991,336.000 251.600 C 335.381 252.219,335.200 252.933,335.200 254.753 C 335.200 256.770,335.086 257.137,334.400 257.316 C 333.696 257.500,333.600 257.862,333.600 260.316 C 333.600 262.770,333.504 263.132,332.800 263.316 C 332.089 263.502,332.000 263.862,332.000 266.563 C 332.000 269.333,331.930 269.600,331.200 269.600 C 330.495 269.600,330.400 269.867,330.400 271.856 C 330.400 273.505,330.220 274.244,329.729 274.602 C 329.265 274.941,329.002 275.878,328.874 277.642 C 328.752 279.332,328.478 280.348,328.061 280.653 C 327.622 280.973,327.382 281.974,327.270 283.956 C 327.161 285.894,326.949 286.800,326.605 286.800 C 326.078 286.800,325.600 288.513,325.600 290.401 C 325.600 291.007,325.330 291.726,325.000 292.000 C 324.582 292.347,324.400 293.268,324.400 295.036 L 324.400 297.573 308.567 297.687 C 294.028 297.791,292.693 297.857,292.223 298.500 C 291.942 298.885,291.327 299.200,290.856 299.200 L 290.000 299.200 290.000 269.670 L 290.000 240.139 289.074 239.270 C 288.565 238.791,287.845 238.400,287.474 238.400 C 287.067 238.400,286.800 238.084,286.800 237.600 C 286.800 236.802,286.533 236.800,172.800 236.800 C 59.067 236.800,58.800 236.802,58.800 237.600 C 58.800 238.133,58.533 238.400,58.000 238.400 C 57.333 238.400,57.200 238.667,57.200 240.000 C 57.200 241.333,57.067 241.600,56.400 241.600 C 55.605 241.600,55.600 241.867,55.600 285.200 C 55.600 328.533,55.595 328.800,54.800 328.800 C 54.267 328.800,54.000 329.067,54.000 329.600 C 54.000 330.267,53.733 330.400,52.400 330.400 C 51.067 330.400,50.800 330.533,50.800 331.200 C 50.800 331.867,50.533 332.000,49.200 332.000 C 47.867 332.000,47.600 332.133,47.600 332.800 C 47.600 333.452,47.333 333.600,46.163 333.600 C 45.062 333.600,44.676 333.787,44.516 334.400 C 44.359 335.001,43.970 335.200,42.953 335.200 C 41.867 335.200,41.600 335.358,41.600 336.000 C 41.600 336.667,41.333 336.800,40.000 336.800 C 38.667 336.800,38.400 336.933,38.400 337.600 C 38.400 338.267,38.133 338.400,36.800 338.400 C 35.467 338.400,35.200 338.533,35.200 339.200 C 35.200 339.852,34.933 340.000,33.763 340.000 C 32.662 340.000,32.276 340.187,32.116 340.800 C 31.967 341.369,31.570 341.600,30.741 341.600 C 30.100 341.600,29.478 341.852,29.360 342.161 C 29.241 342.469,28.532 342.836,27.783 342.977 C 27.034 343.117,26.282 343.475,26.111 343.771 C 25.940 344.068,25.440 344.378,25.000 344.461 C 24.560 344.543,24.200 344.818,24.200 345.072 C 24.200 345.326,24.036 345.683,23.836 345.867 C 23.624 346.060,23.592 345.990,23.759 345.700 C 23.918 345.425,23.857 345.200,23.624 345.200 C 23.391 345.200,23.200 345.380,23.200 345.600 C 23.200 345.820,22.750 346.000,22.200 346.000 C 21.467 346.000,21.200 346.213,21.200 346.800 C 21.200 347.467,20.933 347.600,19.600 347.600 C 18.267 347.600,18.000 347.733,18.000 348.400 C 18.000 349.067,17.733 349.200,16.400 349.200 C 15.067 349.200,14.800 349.333,14.800 350.000 C 14.800 350.652,14.533 350.800,13.363 350.800 C 12.262 350.800,11.876 350.987,11.716 351.600 C 11.559 352.201,11.170 352.400,10.153 352.400 C 9.067 352.400,8.800 352.558,8.800 353.200 C 8.800 353.867,8.533 354.000,7.200 354.000 C 5.867 354.000,5.600 354.133,5.600 354.800 C 5.600 355.467,5.333 355.600,4.000 355.600 C 2.667 355.600,2.400 355.733,2.400 356.400 C 2.400 356.933,2.133 357.200,1.600 357.200 C 1.067 357.200,0.800 357.467,0.800 358.000 C 0.800 358.440,0.620 358.800,0.400 358.800 C 0.153 358.800,0.000 360.867,0.000 364.200 C 0.000 367.170,0.159 369.600,0.353 369.600 C 0.548 369.600,0.801 369.960,0.916 370.400 C 1.075 371.006,1.462 371.200,2.516 371.200 C 3.570 371.200,3.957 371.394,4.116 372.000 C 4.276 372.613,4.662 372.800,5.763 372.800 C 6.754 372.800,7.200 372.981,7.200 373.382 C 7.200 373.728,7.756 374.068,8.572 374.221 C 9.327 374.363,10.041 374.731,10.160 375.039 C 10.288 375.374,10.945 375.600,11.787 375.600 C 12.933 375.600,13.200 375.751,13.200 376.400 C 13.200 376.933,13.467 377.200,14.000 377.200 C 14.440 377.200,15.160 377.560,15.600 378.000 C 16.040 378.440,16.717 378.800,17.104 378.800 C 17.491 378.800,18.032 379.160,18.307 379.600 C 18.610 380.085,19.240 380.400,19.907 380.400 C 20.574 380.400,21.204 380.715,21.507 381.200 C 21.819 381.699,22.440 382.000,23.157 382.000 C 23.970 382.000,24.368 382.234,24.516 382.800 C 24.670 383.389,25.062 383.600,26.000 383.600 C 26.938 383.600,27.330 383.811,27.484 384.400 C 27.639 384.994,28.030 385.200,29.000 385.200 C 29.970 385.200,30.361 385.406,30.516 386.000 C 30.675 386.606,31.062 386.800,32.116 386.800 C 33.170 386.800,33.557 386.994,33.716 387.600 C 33.876 388.213,34.262 388.400,35.363 388.400 C 36.325 388.400,36.800 388.584,36.800 388.957 C 36.800 389.602,37.652 390.000,39.033 390.000 C 39.626 390.000,40.000 390.232,40.000 390.600 C 40.000 390.998,40.398 391.200,41.186 391.200 C 41.962 391.200,42.520 391.476,42.800 392.000 C 43.102 392.564,43.638 392.800,44.614 392.800 C 45.733 392.800,46.000 392.954,46.000 393.600 C 46.000 394.222,46.267 394.400,47.197 394.400 C 47.960 394.400,48.574 394.690,48.893 395.200 C 49.168 395.640,49.709 396.000,50.096 396.000 C 50.483 396.000,51.160 396.360,51.600 396.800 C 52.040 397.240,52.695 397.600,53.056 397.600 C 53.417 397.600,53.970 397.915,54.286 398.300 C 54.661 398.758,54.770 398.793,54.600 398.400 C 54.430 398.007,54.539 398.042,54.914 398.500 C 55.230 398.885,55.873 399.200,56.344 399.200 C 56.815 399.200,57.200 399.380,57.200 399.600 C 57.200 399.866,112.933 400.000,223.600 400.000 C 334.267 400.000,390.000 399.866,390.000 399.600 C 390.000 399.380,390.630 399.200,391.400 399.200 C 392.533 399.200,392.800 399.048,392.800 398.400 C 392.800 397.867,393.067 397.600,393.600 397.600 C 394.133 397.600,394.400 397.333,394.400 396.800 C 394.400 396.267,394.667 396.000,395.200 396.000 C 395.733 396.000,396.000 395.733,396.000 395.200 C 396.000 394.667,396.267 394.400,396.800 394.400 C 397.333 394.400,397.600 394.133,397.600 393.600 C 397.600 393.067,397.867 392.800,398.400 392.800 C 399.048 392.800,399.200 392.533,399.200 391.400 C 399.200 390.630,399.380 390.000,399.600 390.000 C 399.864 390.000,400.000 377.000,400.000 351.800 C 400.000 326.600,399.864 313.600,399.600 313.600 C 399.380 313.600,399.200 312.880,399.200 312.000 C 399.200 310.667,399.067 310.400,398.400 310.400 C 397.867 310.400,397.600 310.133,397.600 309.600 C 397.600 309.067,397.333 308.800,396.800 308.800 C 396.148 308.800,396.000 308.533,396.000 307.363 C 396.000 306.262,395.813 305.876,395.200 305.716 C 394.757 305.600,394.400 305.170,394.400 304.753 C 394.400 304.301,394.119 304.000,393.696 304.000 C 393.309 304.000,392.768 303.640,392.493 303.200 C 392.218 302.760,391.566 302.400,391.043 302.400 C 390.430 302.400,390.019 302.117,389.884 301.600 C 389.769 301.160,389.388 300.800,389.037 300.800 C 388.687 300.800,388.040 300.440,387.600 300.000 C 387.075 299.475,386.267 299.200,385.247 299.200 C 384.030 299.200,383.648 299.027,383.484 298.400 C 383.278 297.612,382.938 297.600,361.637 297.600 C 340.155 297.600,340.000 297.594,340.000 296.787 C 340.000 296.341,340.270 295.871,340.600 295.745 C 340.980 295.599,341.202 294.980,341.204 294.057 C 341.212 291.554,341.671 289.600,342.252 289.600 C 342.667 289.600,342.800 288.873,342.800 286.600 C 342.800 283.867,342.871 283.600,343.600 283.600 C 344.307 283.600,344.400 283.333,344.400 281.296 C 344.400 279.426,344.550 278.898,345.200 278.493 C 345.868 278.075,346.000 277.560,346.000 275.359 C 346.000 273.062,346.102 272.698,346.800 272.516 C 347.509 272.331,347.600 271.970,347.600 269.353 C 347.600 266.667,347.672 266.400,348.400 266.400 C 349.105 266.400,349.200 266.133,349.200 264.144 C 349.200 262.481,349.384 261.737,349.900 261.314 C 350.358 260.939,350.393 260.830,350.000 261.000 C 349.607 261.170,349.642 261.061,350.100 260.686 C 350.615 260.263,350.800 259.520,350.800 257.870 C 350.800 256.038,350.946 255.550,351.600 255.200 C 352.280 254.836,352.400 254.362,352.400 252.033 C 352.400 249.630,352.498 249.268,353.200 249.084 C 353.877 248.907,354.000 248.538,354.000 246.680 C 354.000 245.035,354.161 244.424,354.642 244.239 C 355.008 244.099,355.185 243.737,355.054 243.397 C 354.928 243.068,354.999 242.800,355.213 242.800 C 355.426 242.800,355.600 241.819,355.600 240.620 C 355.600 239.024,355.774 238.342,356.249 238.076 C 356.719 237.814,356.955 236.922,357.103 234.856 C 357.250 232.809,357.462 232.000,357.854 232.000 C 358.254 232.000,358.400 231.369,358.400 229.647 C 358.400 227.630,358.514 227.263,359.200 227.084 C 359.904 226.900,360.000 226.538,360.000 224.064 C 360.000 221.605,360.100 221.222,360.800 221.000 C 361.505 220.776,361.600 220.395,361.600 217.773 C 361.600 215.067,361.672 214.800,362.400 214.800 C 363.107 214.800,363.200 214.533,363.200 212.496 C 363.200 210.626,363.350 210.098,364.000 209.693 C 364.665 209.277,364.800 208.760,364.800 206.624 C 364.800 204.405,364.909 204.019,365.600 203.800 C 366.195 203.611,366.400 203.195,366.400 202.173 C 366.400 200.876,366.476 200.800,367.773 200.800 C 368.795 200.800,369.211 200.595,369.400 200.000 C 369.622 199.300,370.005 199.200,372.464 199.200 C 374.938 199.200,375.300 199.104,375.484 198.400 C 375.632 197.834,376.030 197.600,376.843 197.600 C 377.560 197.600,378.181 197.299,378.493 196.800 C 378.768 196.360,379.309 196.000,379.696 196.000 C 380.133 196.000,380.400 195.697,380.400 195.200 C 380.400 194.667,380.667 194.400,381.200 194.400 C 381.733 194.400,382.000 194.133,382.000 193.600 C 382.000 193.067,382.267 192.800,382.800 192.800 C 383.333 192.800,383.600 192.533,383.600 192.000 C 383.600 191.467,383.867 191.200,384.400 191.200 C 384.840 191.200,385.200 190.951,385.200 190.647 C 385.200 190.342,385.560 189.999,386.000 189.884 C 386.541 189.743,386.800 189.338,386.800 188.637 C 386.800 188.021,387.003 187.641,387.300 187.700 C 387.575 187.755,387.755 187.575,387.700 187.300 C 387.645 187.025,387.780 186.800,388.000 186.800 C 388.220 186.800,388.400 186.434,388.400 185.987 C 388.400 185.541,388.640 185.083,388.933 184.970 C 389.548 184.735,389.570 184.645,389.857 181.300 C 390.010 179.516,390.233 178.800,390.636 178.800 C 391.089 178.800,391.200 177.894,391.200 174.200 C 391.200 170.378,391.099 169.600,390.600 169.600 C 390.158 169.600,390.000 169.139,390.000 167.850 C 390.000 165.371,389.584 163.600,389.001 163.600 C 388.727 163.600,388.387 162.880,388.246 162.000 C 388.081 160.965,387.780 160.400,387.395 160.400 C 387.067 160.400,386.800 160.042,386.800 159.600 C 386.800 159.067,386.533 158.800,386.000 158.800 C 385.467 158.800,385.200 158.533,385.200 158.000 C 385.200 157.467,384.933 157.200,384.400 157.200 C 383.867 157.200,383.600 156.933,383.600 156.400 C 383.600 155.867,383.333 155.600,382.800 155.600 C 382.267 155.600,382.000 155.333,382.000 154.800 C 382.000 154.267,381.733 154.000,381.200 154.000 C 380.667 154.000,380.400 153.733,380.400 153.200 C 380.400 152.533,380.133 152.400,378.800 152.400 C 377.467 152.400,377.200 152.267,377.200 151.600 C 377.200 150.933,376.933 150.800,375.600 150.800 C 374.267 150.800,374.000 150.667,374.000 150.000 C 374.000 149.223,373.733 149.200,364.800 149.200 C 355.867 149.200,355.600 149.223,355.600 150.000 C 355.600 150.667,355.333 150.800,354.000 150.800 C 352.667 150.800,352.400 150.667,352.400 150.000 C 352.400 149.467,352.133 149.200,351.600 149.200 C 351.067 149.200,350.800 148.933,350.800 148.400 C 350.800 147.867,350.533 147.600,350.000 147.600 C 349.467 147.600,349.200 147.333,349.200 146.800 C 349.200 146.267,348.933 146.000,348.400 146.000 C 347.867 146.000,347.600 145.733,347.600 145.200 C 347.600 144.683,347.333 144.400,346.847 144.400 C 346.430 144.400,346.000 144.043,345.884 143.600 C 345.769 143.160,345.388 142.800,345.037 142.800 C 344.687 142.800,344.400 142.530,344.400 142.200 C 344.400 141.867,344.044 141.600,343.600 141.600 C 343.067 141.600,342.800 141.333,342.800 140.800 C 342.800 140.267,342.533 140.000,342.000 140.000 C 341.467 140.000,341.200 139.733,341.200 139.200 C 341.200 138.760,340.951 138.400,340.647 138.400 C 340.342 138.400,339.999 138.040,339.884 137.600 C 339.769 137.160,339.388 136.800,339.037 136.800 C 338.667 136.800,338.400 136.465,338.400 136.000 C 338.400 135.467,338.133 135.200,337.600 135.200 C 337.067 135.200,336.800 134.933,336.800 134.400 C 336.800 133.867,336.533 133.600,336.000 133.600 C 335.467 133.600,335.200 133.333,335.200 132.800 C 335.200 132.267,334.933 132.000,334.400 132.000 C 333.867 132.000,333.600 131.733,333.600 131.200 C 333.600 130.667,333.333 130.400,332.800 130.400 C 332.267 130.400,332.000 130.133,332.000 129.600 C 332.000 129.067,331.733 128.800,331.200 128.800 C 330.667 128.800,330.400 128.533,330.400 128.000 C 330.400 127.467,330.133 127.200,329.600 127.200 C 329.160 127.200,328.800 126.942,328.800 126.627 C 328.800 126.312,328.440 125.940,328.000 125.800 C 327.560 125.660,327.200 125.288,327.200 124.973 C 327.200 124.658,326.840 124.400,326.400 124.400 C 325.867 124.400,325.600 124.133,325.600 123.600 C 325.600 123.156,325.333 122.800,325.000 122.800 C 324.670 122.800,324.400 122.513,324.400 122.163 C 324.400 121.812,324.040 121.431,323.600 121.316 C 323.157 121.200,322.800 120.770,322.800 120.353 C 322.800 119.867,322.517 119.600,322.000 119.600 C 321.467 119.600,321.200 119.333,321.200 118.800 C 321.200 118.267,320.933 118.000,320.400 118.000 C 319.867 118.000,319.600 117.733,319.600 117.200 C 319.600 116.667,319.333 116.400,318.800 116.400 C 318.267 116.400,318.000 116.133,318.000 115.600 C 318.000 114.923,317.738 114.802,316.300 114.814 L 314.600 114.829 294.281 94.314 C 283.106 83.032,273.775 73.466,273.545 73.059 C 273.185 72.419,274.050 71.401,279.828 65.659 C 288.826 56.717,289.564 55.509,288.051 52.200 C 287.177 50.289,264.151 27.142,262.723 26.740 C 261.685 26.447,260.283 26.426,258.800 26.681 M267.577 47.846 C 270.670 51.015,273.200 53.788,273.200 54.009 C 273.200 54.937,271.676 56.600,261.434 66.853 C 250.016 78.281,249.878 78.462,248.806 83.400 C 248.615 84.280,248.177 85.540,247.832 86.200 C 247.487 86.860,247.198 87.850,247.189 88.400 C 247.180 88.950,246.825 90.120,246.400 91.000 C 245.975 91.880,245.621 93.055,245.614 93.611 C 245.606 94.167,245.336 94.999,245.013 95.460 C 244.690 95.921,244.309 97.086,244.166 98.049 C 244.023 99.012,243.670 100.179,243.382 100.642 C 243.094 101.104,242.735 102.184,242.584 103.042 C 242.434 103.899,242.083 104.964,241.806 105.409 C 241.528 105.854,241.171 107.024,241.012 108.009 C 240.853 108.994,240.493 110.164,240.212 110.609 C 239.931 111.054,239.568 112.224,239.405 113.209 C 239.243 114.194,238.936 115.215,238.724 115.478 C 238.512 115.742,238.100 116.912,237.810 118.078 C 237.519 119.245,237.091 120.740,236.857 121.400 C 235.996 123.833,235.138 126.648,234.724 128.400 C 234.489 129.390,234.051 130.555,233.749 130.989 C 233.447 131.423,233.196 132.233,233.191 132.789 C 233.186 133.345,232.826 134.585,232.391 135.544 C 231.956 136.503,231.594 137.673,231.586 138.144 C 231.579 138.615,231.225 139.720,230.800 140.600 C 230.375 141.480,230.015 142.650,230.000 143.200 C 229.985 143.750,229.625 144.920,229.200 145.800 C 228.775 146.680,228.421 147.855,228.414 148.411 C 228.406 148.967,228.136 149.799,227.813 150.260 C 227.490 150.721,227.109 151.886,226.966 152.849 C 226.823 153.812,226.480 154.963,226.205 155.406 C 225.930 155.849,225.583 156.839,225.434 157.606 C 225.056 159.545,223.589 162.719,222.958 162.961 C 222.137 163.276,152.400 93.344,152.400 92.206 C 152.400 91.027,153.026 90.566,155.047 90.258 C 155.953 90.120,157.213 89.737,157.847 89.406 C 158.481 89.076,159.360 88.798,159.800 88.789 C 160.240 88.780,161.320 88.425,162.200 88.000 C 163.080 87.575,164.250 87.215,164.800 87.200 C 165.350 87.185,166.520 86.825,167.400 86.400 C 168.280 85.975,169.385 85.621,169.856 85.614 C 170.327 85.606,171.497 85.244,172.456 84.809 C 173.415 84.374,174.655 84.014,175.211 84.009 C 175.767 84.004,176.599 83.736,177.060 83.413 C 177.521 83.090,178.686 82.709,179.649 82.566 C 180.612 82.423,181.792 82.061,182.272 81.762 C 182.751 81.463,183.921 81.096,184.872 80.947 C 185.822 80.797,186.960 80.446,187.400 80.167 C 187.840 79.888,188.920 79.536,189.800 79.385 C 190.680 79.234,191.764 78.883,192.209 78.606 C 192.654 78.328,193.820 77.966,194.800 77.800 C 195.780 77.634,196.946 77.269,197.391 76.988 C 197.836 76.707,199.006 76.347,199.991 76.188 C 200.976 76.029,202.146 75.673,202.591 75.397 C 203.036 75.120,204.178 74.779,205.128 74.638 C 206.079 74.497,207.249 74.136,207.728 73.836 C 208.208 73.535,209.301 73.166,210.158 73.016 C 211.016 72.865,212.096 72.506,212.558 72.218 C 213.021 71.930,214.188 71.577,215.151 71.434 C 216.114 71.291,217.279 70.910,217.740 70.587 C 218.201 70.264,219.085 70.000,219.705 70.000 C 220.325 70.000,221.538 69.640,222.400 69.200 C 223.262 68.760,224.380 68.394,224.884 68.386 C 225.388 68.379,226.520 68.025,227.400 67.600 C 228.280 67.175,229.450 66.815,230.000 66.800 C 230.550 66.785,231.720 66.425,232.600 66.000 C 233.480 65.575,234.570 65.221,235.022 65.214 C 236.352 65.192,237.722 63.960,249.116 52.551 C 258.539 43.115,260.081 41.727,260.952 41.893 C 261.572 42.011,264.098 44.282,267.577 47.846 M167.144 124.767 C 169.155 126.728,170.800 128.528,170.800 128.767 C 170.800 129.005,170.979 129.200,171.198 129.200 C 171.703 129.200,186.400 143.920,186.400 144.425 C 186.400 144.631,186.687 144.800,187.037 144.800 C 187.388 144.800,187.769 145.160,187.884 145.600 C 187.999 146.040,188.273 146.400,188.493 146.400 C 188.713 146.400,189.769 147.345,190.840 148.500 C 191.911 149.655,193.060 150.885,193.394 151.234 C 194.758 152.660,192.504 154.635,188.800 155.259 C 187.810 155.426,186.067 155.784,184.927 156.055 C 183.276 156.447,182.461 156.445,180.927 156.044 C 179.867 155.767,178.100 155.413,177.000 155.257 C 175.900 155.100,174.460 154.684,173.800 154.331 C 173.140 153.979,172.150 153.483,171.600 153.229 C 169.526 152.273,168.530 151.570,166.100 149.348 C 164.725 148.091,163.600 146.823,163.600 146.531 C 163.600 146.239,163.416 146.000,163.191 146.000 C 162.967 146.000,162.569 145.505,162.307 144.900 C 162.046 144.295,161.510 143.371,161.116 142.846 C 160.722 142.321,160.400 141.550,160.400 141.132 C 160.400 140.714,160.085 139.891,159.700 139.303 C 158.699 137.773,158.658 126.874,159.649 125.742 C 160.006 125.334,160.421 124.316,160.571 123.479 C 160.828 122.046,161.641 121.305,163.044 121.225 C 163.288 121.211,165.133 122.805,167.144 124.767 M122.080 123.680 C 121.286 124.474,121.423 133.846,122.233 134.157 C 123.050 134.471,131.523 134.463,132.700 134.148 C 134.204 133.745,134.090 124.166,132.574 123.590 C 131.066 123.017,122.671 123.089,122.080 123.680 M136.200 151.438 C 135.100 151.973,133.660 152.764,133.000 153.195 C 132.340 153.627,131.188 154.300,130.440 154.690 C 127.824 156.056,127.733 156.827,129.794 160.200 C 130.332 161.080,131.033 162.344,131.353 163.008 C 132.887 166.198,132.645 166.249,141.929 160.768 C 142.518 160.420,143.052 159.865,143.116 159.536 C 143.207 159.066,138.538 150.301,138.267 150.433 C 138.230 150.451,137.300 150.903,136.200 151.438 M369.709 162.800 C 370.269 163.240,370.901 163.600,371.114 163.600 C 371.682 163.600,374.666 166.500,375.917 168.270 C 377.310 170.239,377.581 178.474,376.300 179.890 C 375.915 180.315,375.600 180.836,375.600 181.048 C 375.600 181.733,373.013 184.199,371.182 185.260 C 368.196 186.989,360.064 187.130,359.134 185.468 C 358.928 185.101,358.544 184.794,358.280 184.787 C 357.487 184.766,355.639 182.929,354.176 180.708 C 350.738 175.487,353.095 166.354,358.600 163.570 C 359.040 163.348,359.850 162.906,360.400 162.589 C 362.041 161.642,368.421 161.787,369.709 162.800 M154.158 173.100 C 153.329 174.343,152.845 175.194,150.662 179.248 C 149.437 181.524,149.233 182.180,149.662 182.470 C 149.958 182.670,151.594 183.651,153.297 184.650 C 155.000 185.649,156.496 186.632,156.621 186.833 C 157.611 188.436,164.000 180.321,164.000 177.460 C 164.000 176.744,161.619 175.123,158.149 173.476 C 157.461 173.149,156.775 172.683,156.625 172.441 C 156.136 171.649,154.907 171.977,154.158 173.100 M181.500 181.632 C 180.886 181.989,180.800 182.727,180.800 187.612 C 180.800 194.205,180.244 193.692,187.200 193.516 L 191.800 193.400 191.911 187.694 L 192.022 181.989 190.985 181.594 C 189.628 181.078,182.401 181.107,181.500 181.632 M275.114 250.195 C 275.617 250.320,276.202 250.879,276.414 251.437 C 277.025 253.044,276.920 281.287,276.300 282.115 C 275.819 282.758,269.385 283.067,253.800 283.196 C 252.480 283.207,250.230 283.231,248.800 283.249 C 247.370 283.268,243.770 283.256,240.800 283.223 C 237.830 283.190,198.357 283.110,153.083 283.044 C 89.445 282.953,70.656 282.816,70.283 282.443 C 69.538 281.698,69.595 251.570,70.343 250.668 C 70.815 250.100,72.189 250.000,80.743 249.907 C 99.161 249.707,274.195 249.967,275.114 250.195 M275.000 295.518 L 276.200 295.858 276.200 311.296 C 276.200 319.787,276.050 326.884,275.868 327.067 C 275.584 327.352,260.320 327.992,253.600 328.001 C 252.390 328.003,250.140 328.033,248.600 328.069 C 247.060 328.104,243.190 328.080,240.000 328.014 C 234.436 327.901,118.176 327.924,105.800 328.041 C 102.500 328.072,99.019 327.965,98.065 327.804 C 96.946 327.614,96.173 327.667,95.885 327.955 C 95.332 328.508,90.538 328.546,90.200 328.000 C 90.046 327.751,86.334 327.600,80.390 327.600 C 71.346 327.600,70.806 327.558,70.414 326.826 C 69.770 325.624,69.852 296.143,70.500 295.724 C 71.698 294.948,272.278 294.746,275.000 295.518 M377.346 311.402 C 377.976 311.731,378.897 312.000,379.392 312.000 C 379.887 312.000,380.750 312.360,381.309 312.800 C 381.869 313.240,382.488 313.600,382.685 313.600 C 383.419 313.600,386.562 317.660,387.583 319.926 C 388.215 321.329,388.120 327.403,387.457 327.953 C 387.060 328.283,373.805 328.376,337.962 328.302 L 289.011 328.200 288.471 327.074 C 287.819 325.714,288.496 319.262,289.361 318.598 C 289.648 318.378,290.007 317.809,290.157 317.335 C 290.410 316.539,292.596 314.369,294.827 312.700 C 295.342 312.315,296.155 312.000,296.635 312.000 C 297.115 312.000,298.114 311.737,298.854 311.416 C 300.903 310.526,375.641 310.513,377.346 311.402 M344.869 339.862 C 345.921 340.815,346.017 387.354,344.967 387.757 C 343.645 388.265,70.589 388.029,70.080 387.520 C 69.387 386.827,69.387 341.173,70.080 340.480 C 70.451 340.109,94.862 339.994,177.380 339.972 C 236.131 339.956,284.560 339.789,285.000 339.600 C 286.690 338.874,344.054 339.125,344.869 339.862 M384.049 340.407 C 385.018 340.676,385.845 341.311,386.549 342.326 L 387.600 343.843 387.600 363.890 L 387.600 383.937 385.763 385.774 L 383.926 387.611 371.063 387.505 L 358.200 387.400 358.097 364.245 C 358.022 347.476,358.118 340.940,358.446 340.545 C 359.003 339.873,381.688 339.751,384.049 340.407 M58.010 344.626 C 58.657 346.328,58.524 382.078,57.867 382.977 C 57.326 383.715,54.770 383.322,54.208 382.413 C 54.096 382.232,52.069 381.131,49.702 379.965 C 47.336 378.799,45.310 377.732,45.200 377.594 C 45.090 377.455,43.740 376.738,42.200 376.000 C 40.660 375.262,39.308 374.524,39.196 374.361 C 39.084 374.197,38.497 373.939,37.892 373.787 C 37.287 373.636,36.710 373.378,36.609 373.215 C 36.508 373.052,34.395 371.885,31.913 370.623 C 22.606 365.889,21.613 365.324,20.809 364.302 L 19.986 363.255 20.882 362.628 C 21.375 362.282,21.986 362.000,22.240 362.000 C 22.494 362.000,22.911 361.748,23.167 361.439 C 23.423 361.131,24.106 360.760,24.685 360.614 C 25.263 360.469,26.180 360.002,26.722 359.575 C 27.264 359.149,28.024 358.800,28.411 358.800 C 28.798 358.800,29.212 358.547,29.330 358.238 C 29.449 357.928,30.086 357.557,30.745 357.412 C 31.405 357.267,32.145 356.908,32.389 356.614 C 32.633 356.319,33.319 355.957,33.912 355.808 C 34.506 355.659,35.084 355.401,35.196 355.235 C 35.308 355.069,36.750 354.263,38.400 353.445 C 40.050 352.627,42.660 351.252,44.200 350.389 C 45.740 349.526,47.450 348.616,48.000 348.367 C 48.550 348.118,49.270 347.752,49.600 347.554 C 49.930 347.356,50.650 346.996,51.200 346.754 C 51.750 346.512,52.470 346.150,52.800 345.949 C 53.130 345.748,53.973 345.320,54.673 344.998 C 55.373 344.676,56.058 344.229,56.196 344.006 C 56.657 343.261,57.615 343.588,58.010 344.626 " stroke="none" fill="#1c3454" fill-rule="evenodd"></path><path id="path4" d="M253.789 30.500 L 251.000 33.400 253.900 30.611 C 256.594 28.020,256.983 27.600,256.689 27.600 C 256.628 27.600,255.323 28.905,253.789 30.500 M264.400 27.725 C 264.400 27.794,264.985 28.379,265.700 29.025 L 267.000 30.200 265.825 28.900 C 264.730 27.688,264.400 27.416,264.400 27.725 M267.200 30.525 C 267.200 30.594,267.785 31.179,268.500 31.825 L 269.800 33.000 268.625 31.700 C 267.530 30.488,267.200 30.216,267.200 30.525 M231.600 35.206 C 231.178 35.482,231.415 35.523,232.400 35.342 C 234.125 35.025,234.451 34.798,233.167 34.806 C 232.635 34.809,231.930 34.989,231.600 35.206 M244.811 39.789 C 243.446 41.180,242.936 41.479,242.518 41.132 C 242.222 40.887,241.903 40.763,241.809 40.858 C 241.714 40.953,241.964 41.235,242.364 41.484 C 242.982 41.871,243.379 41.645,245.030 39.969 C 246.097 38.886,246.879 38.000,246.768 38.000 C 246.657 38.000,245.777 38.805,244.811 39.789 M277.600 41.000 C 278.346 41.770,279.047 42.400,279.157 42.400 C 279.267 42.400,278.746 41.770,278.000 41.000 C 277.254 40.230,276.553 39.600,276.443 39.600 C 276.333 39.600,276.854 40.230,277.600 41.000 M249.116 52.551 C 237.722 63.960,236.352 65.192,235.022 65.214 C 234.570 65.221,233.480 65.575,232.600 66.000 C 231.720 66.425,230.550 66.785,230.000 66.800 C 229.450 66.815,228.280 67.175,227.400 67.600 C 226.520 68.025,225.388 68.379,224.884 68.386 C 224.380 68.394,223.262 68.760,222.400 69.200 C 221.538 69.640,220.325 70.000,219.705 70.000 C 219.085 70.000,218.201 70.264,217.740 70.587 C 217.279 70.910,216.114 71.291,215.151 71.434 C 214.188 71.577,213.021 71.930,212.558 72.218 C 212.096 72.506,211.016 72.865,210.158 73.016 C 209.301 73.166,208.208 73.535,207.728 73.836 C 207.249 74.136,206.079 74.497,205.128 74.638 C 204.178 74.779,203.036 75.120,202.591 75.397 C 202.146 75.673,200.976 76.029,199.991 76.188 C 199.006 76.347,197.836 76.707,197.391 76.988 C 196.946 77.269,195.780 77.634,194.800 77.800 C 193.820 77.966,192.654 78.328,192.209 78.606 C 191.764 78.883,190.680 79.234,189.800 79.385 C 188.920 79.536,187.840 79.888,187.400 80.167 C 186.960 80.446,185.822 80.797,184.872 80.947 C 183.921 81.096,182.751 81.463,182.272 81.762 C 181.792 82.061,180.612 82.423,179.649 82.566 C 178.686 82.709,177.521 83.090,177.060 83.413 C 176.599 83.736,175.767 84.004,175.211 84.009 C 174.655 84.014,173.415 84.374,172.456 84.809 C 171.497 85.244,170.327 85.606,169.856 85.614 C 169.385 85.621,168.280 85.975,167.400 86.400 C 166.520 86.825,165.350 87.185,164.800 87.200 C 164.250 87.215,163.080 87.575,162.200 88.000 C 161.320 88.425,160.240 88.780,159.800 88.789 C 159.360 88.798,158.481 89.076,157.847 89.406 C 157.213 89.737,155.953 90.120,155.047 90.258 C 153.026 90.566,152.400 91.027,152.400 92.206 C 152.400 93.344,222.137 163.276,222.958 162.961 C 223.589 162.719,225.056 159.545,225.434 157.606 C 225.583 156.839,225.930 155.849,226.205 155.406 C 226.480 154.963,226.823 153.812,226.966 152.849 C 227.109 151.886,227.490 150.721,227.813 150.260 C 228.136 149.799,228.406 148.967,228.414 148.411 C 228.421 147.855,228.775 146.680,229.200 145.800 C 229.625 144.920,229.985 143.750,230.000 143.200 C 230.015 142.650,230.375 141.480,230.800 140.600 C 231.225 139.720,231.579 138.615,231.586 138.144 C 231.594 137.673,231.956 136.503,232.391 135.544 C 232.826 134.585,233.186 133.345,233.191 132.789 C 233.196 132.233,233.447 131.423,233.749 130.989 C 234.051 130.555,234.489 129.390,234.724 128.400 C 235.138 126.648,235.996 123.833,236.857 121.400 C 237.091 120.740,237.519 119.245,237.810 118.078 C 238.100 116.912,238.512 115.742,238.724 115.478 C 238.936 115.215,239.243 114.194,239.405 113.209 C 239.568 112.224,239.931 111.054,240.212 110.609 C 240.493 110.164,240.853 108.994,241.012 108.009 C 241.171 107.024,241.528 105.854,241.806 105.409 C 242.083 104.964,242.434 103.899,242.584 103.042 C 242.735 102.184,243.094 101.104,243.382 100.642 C 243.670 100.179,244.023 99.012,244.166 98.049 C 244.309 97.086,244.690 95.921,245.013 95.460 C 245.336 94.999,245.606 94.167,245.614 93.611 C 245.621 93.055,245.975 91.880,246.400 91.000 C 246.825 90.120,247.180 88.950,247.189 88.400 C 247.198 87.850,247.487 86.860,247.832 86.200 C 248.177 85.540,248.615 84.280,248.806 83.400 C 249.878 78.462,250.016 78.281,261.434 66.853 C 271.676 56.600,273.200 54.937,273.200 54.009 C 273.200 53.205,261.961 42.086,260.952 41.893 C 260.081 41.727,258.539 43.115,249.116 52.551 M226.815 42.400 C 226.821 42.730,227.090 43.349,227.413 43.776 C 228.168 44.775,228.163 44.405,227.402 42.946 C 227.074 42.316,226.810 42.070,226.815 42.400 M266.495 48.295 C 269.523 51.317,272.000 54.054,272.000 54.378 C 272.000 54.702,267.069 59.924,261.042 65.984 C 249.938 77.146,249.081 78.200,248.184 81.791 C 247.908 82.896,247.491 84.340,247.257 85.000 C 246.455 87.266,245.554 90.202,245.170 91.800 C 244.959 92.680,244.607 93.760,244.388 94.200 C 244.170 94.640,243.723 95.945,243.395 97.100 C 241.842 102.577,241.555 103.485,240.997 104.660 C 240.669 105.354,240.394 106.344,240.386 106.860 C 240.379 107.377,240.025 108.520,239.600 109.400 C 239.175 110.280,238.821 111.385,238.814 111.856 C 238.806 112.327,238.444 113.497,238.009 114.456 C 237.574 115.415,237.214 116.655,237.209 117.211 C 237.204 117.767,236.953 118.577,236.651 119.011 C 236.349 119.445,235.911 120.610,235.676 121.600 C 235.272 123.308,234.470 125.952,233.552 128.600 C 233.323 129.260,232.898 130.700,232.609 131.800 C 232.083 133.796,231.745 134.826,230.382 138.600 C 229.985 139.700,229.535 141.230,229.382 142.000 C 229.229 142.770,228.879 143.850,228.605 144.400 C 228.331 144.950,227.977 146.120,227.818 147.000 C 227.659 147.880,227.384 148.780,227.206 149.000 C 227.029 149.220,226.610 150.390,226.274 151.600 C 224.519 157.925,223.090 162.030,222.690 161.897 C 222.517 161.839,206.855 146.275,187.885 127.311 C 150.539 89.974,151.962 91.573,155.558 90.974 C 157.124 90.714,161.441 89.400,163.460 88.569 C 164.153 88.284,165.413 87.930,166.260 87.781 C 167.107 87.632,168.179 87.274,168.642 86.984 C 169.104 86.695,170.184 86.331,171.042 86.176 C 171.899 86.021,172.960 85.706,173.400 85.475 C 173.840 85.245,175.100 84.833,176.200 84.560 C 177.300 84.288,178.740 83.877,179.400 83.648 C 181.559 82.900,184.562 81.971,186.600 81.421 C 188.720 80.849,190.159 80.370,193.408 79.152 C 194.512 78.739,195.772 78.394,196.208 78.386 C 196.643 78.379,197.720 78.025,198.600 77.600 C 199.480 77.175,200.650 76.815,201.200 76.800 C 201.750 76.785,202.920 76.425,203.800 76.000 C 204.680 75.575,205.817 75.221,206.326 75.214 C 206.836 75.206,207.646 74.987,208.126 74.727 C 208.928 74.293,210.823 73.694,216.200 72.174 C 217.300 71.863,218.560 71.430,219.000 71.212 C 219.440 70.993,220.520 70.641,221.400 70.430 C 222.998 70.046,225.934 69.145,228.200 68.343 C 228.860 68.109,230.307 67.692,231.417 67.415 C 232.526 67.138,233.786 66.717,234.217 66.480 C 234.647 66.242,235.517 65.939,236.149 65.804 C 236.960 65.632,240.652 62.216,248.714 54.180 C 254.993 47.921,260.324 42.800,260.560 42.800 C 260.796 42.800,263.467 45.273,266.495 48.295 M230.200 47.200 C 231.506 48.520,232.665 49.600,232.775 49.600 C 232.885 49.600,231.906 48.520,230.600 47.200 C 229.294 45.880,228.135 44.800,228.025 44.800 C 227.915 44.800,228.894 45.880,230.200 47.200 M223.200 57.000 C 222.650 57.314,222.380 57.572,222.600 57.572 C 222.820 57.572,223.450 57.314,224.000 57.000 C 224.550 56.686,224.820 56.428,224.600 56.428 C 224.380 56.428,223.750 56.686,223.200 57.000 M286.626 58.700 C 285.762 59.805,285.693 59.990,286.363 59.404 C 287.165 58.704,288.223 57.200,287.914 57.200 C 287.851 57.200,287.272 57.875,286.626 58.700 M218.000 58.600 C 216.694 59.347,217.151 59.355,218.854 58.616 C 219.594 58.294,219.930 58.031,219.600 58.030 C 219.270 58.029,218.550 58.286,218.000 58.600 M213.000 60.214 C 212.340 60.517,212.070 60.766,212.400 60.768 C 212.730 60.770,213.450 60.514,214.000 60.200 C 215.265 59.477,214.589 59.487,213.000 60.214 M208.000 61.800 C 207.450 62.114,207.180 62.372,207.400 62.372 C 207.620 62.372,208.250 62.114,208.800 61.800 C 209.350 61.486,209.620 61.228,209.400 61.228 C 209.180 61.228,208.550 61.486,208.000 61.800 M275.988 69.500 L 273.400 72.200 276.100 69.612 C 278.608 67.207,278.983 66.800,278.688 66.800 C 278.627 66.800,277.412 68.015,275.988 69.500 M277.200 77.000 C 279.281 79.090,281.074 80.800,281.184 80.800 C 281.294 80.800,279.681 79.090,277.600 77.000 C 275.519 74.910,273.726 73.200,273.616 73.200 C 273.506 73.200,275.119 74.910,277.200 77.000 M168.400 74.200 C 167.850 74.514,167.580 74.772,167.800 74.772 C 168.020 74.772,168.650 74.514,169.200 74.200 C 169.750 73.886,170.020 73.628,169.800 73.628 C 169.580 73.628,168.950 73.886,168.400 74.200 M158.000 77.400 C 157.450 77.714,157.180 77.972,157.400 77.972 C 157.620 77.972,158.250 77.714,158.800 77.400 C 159.350 77.086,159.620 76.828,159.400 76.828 C 159.180 76.828,158.550 77.086,158.000 77.400 M144.000 81.800 C 142.694 82.547,143.151 82.555,144.854 81.816 C 145.594 81.494,145.930 81.231,145.600 81.230 C 145.270 81.229,144.550 81.486,144.000 81.800 M264.200 82.281 C 264.640 82.384,267.070 84.478,269.600 86.934 L 274.200 91.400 269.607 86.700 C 266.558 83.580,264.742 82.016,264.207 82.046 C 263.406 82.092,263.406 82.094,264.200 82.281 M261.775 83.700 L 260.600 85.000 261.900 83.825 C 262.615 83.179,263.200 82.594,263.200 82.525 C 263.200 82.216,262.870 82.488,261.775 83.700 M260.065 86.217 C 259.395 87.688,259.523 88.002,260.247 86.665 C 260.586 86.040,260.788 85.454,260.696 85.363 C 260.605 85.271,260.321 85.656,260.065 86.217 M303.829 103.915 C 312.412 112.542,314.859 114.789,315.629 114.746 L 316.600 114.691 315.600 114.508 C 314.963 114.391,310.683 110.463,303.800 103.677 L 293.000 93.030 303.829 103.915 M255.265 101.417 C 255.009 101.978,254.807 102.654,254.816 102.919 C 254.824 103.183,255.097 102.788,255.422 102.039 C 256.105 100.465,255.961 99.890,255.265 101.417 M299.200 117.000 C 305.687 123.490,311.085 128.800,311.195 128.800 C 311.305 128.800,306.087 123.490,299.600 117.000 C 293.113 110.510,287.715 105.200,287.605 105.200 C 287.495 105.200,292.713 110.510,299.200 117.000 M161.722 121.604 C 161.123 121.846,160.757 122.441,160.571 123.479 C 160.421 124.316,160.006 125.334,159.649 125.742 C 158.658 126.874,158.699 137.773,159.700 139.303 C 160.085 139.891,160.400 140.714,160.400 141.132 C 160.400 141.550,160.722 142.321,161.116 142.846 C 161.510 143.371,162.046 144.295,162.307 144.900 C 162.569 145.505,162.967 146.000,163.191 146.000 C 163.416 146.000,163.600 146.239,163.600 146.531 C 163.600 146.823,164.725 148.091,166.100 149.348 C 168.530 151.570,169.526 152.273,171.600 153.229 C 172.150 153.483,173.140 153.979,173.800 154.331 C 174.460 154.684,175.900 155.100,177.000 155.257 C 178.100 155.413,179.867 155.767,180.927 156.044 C 182.461 156.445,183.276 156.447,184.927 156.055 C 186.067 155.784,187.810 155.426,188.800 155.259 C 192.504 154.635,194.758 152.660,193.394 151.234 C 193.060 150.885,191.911 149.655,190.840 148.500 C 189.769 147.345,188.713 146.400,188.493 146.400 C 188.273 146.400,187.999 146.040,187.884 145.600 C 187.769 145.160,187.388 144.800,187.037 144.800 C 186.687 144.800,186.400 144.631,186.400 144.425 C 186.400 143.920,171.703 129.200,171.198 129.200 C 170.979 129.200,170.800 129.005,170.800 128.767 C 170.800 128.186,163.608 121.193,163.044 121.225 C 162.800 121.239,162.205 121.410,161.722 121.604 M178.112 137.123 C 186.191 145.220,192.800 152.018,192.800 152.228 C 192.800 154.291,178.306 155.741,175.576 153.952 C 175.033 153.596,174.008 153.177,173.299 153.022 C 172.589 152.866,171.905 152.570,171.777 152.363 C 171.650 152.157,170.973 151.734,170.273 151.424 C 168.059 150.444,163.467 145.625,162.424 143.187 C 162.192 142.644,161.832 141.930,161.624 141.600 C 159.675 138.505,159.039 130.969,160.400 127.096 C 160.840 125.844,161.200 124.605,161.200 124.341 C 161.200 123.713,162.400 122.400,162.974 122.400 C 163.222 122.400,170.034 129.025,178.112 137.123 M121.636 123.756 C 121.326 124.130,121.216 125.935,121.301 129.256 L 121.427 134.200 121.514 129.180 C 121.570 125.916,121.768 123.992,122.080 123.680 C 122.344 123.416,122.456 123.200,122.329 123.200 C 122.202 123.200,121.890 123.450,121.636 123.756 M133.598 128.919 L 133.797 134.200 133.911 129.233 C 133.974 126.501,133.885 124.124,133.713 123.951 C 133.541 123.779,133.489 126.014,133.598 128.919 M147.429 125.429 C 147.281 126.015,147.238 126.572,147.332 126.666 C 147.427 126.760,147.624 126.358,147.771 125.771 C 147.919 125.185,147.962 124.628,147.868 124.534 C 147.773 124.440,147.576 124.842,147.429 125.429 M146.920 129.600 C 146.920 130.810,146.995 131.305,147.087 130.700 C 147.178 130.095,147.178 129.105,147.087 128.500 C 146.995 127.895,146.920 128.390,146.920 129.600 M246.315 130.210 C 246.192 130.645,245.969 131.360,245.820 131.800 C 245.671 132.240,245.842 132.094,246.200 131.476 C 246.558 130.858,246.781 130.142,246.695 129.886 C 246.610 129.630,246.439 129.776,246.315 130.210 M146.914 135.400 C 146.917 136.500,146.995 136.903,147.087 136.295 C 147.179 135.686,147.177 134.786,147.082 134.295 C 146.987 133.803,146.911 134.300,146.914 135.400 M241.265 146.217 C 240.595 147.688,240.723 148.002,241.447 146.665 C 241.786 146.040,241.988 145.454,241.896 145.363 C 241.805 145.271,241.521 145.656,241.265 146.217 M136.400 151.000 C 135.850 151.314,135.580 151.572,135.800 151.572 C 136.020 151.572,136.650 151.314,137.200 151.000 C 137.750 150.686,138.020 150.428,137.800 150.428 C 137.580 150.428,136.950 150.686,136.400 151.000 M131.000 154.027 C 130.340 154.450,130.005 154.797,130.256 154.798 C 130.506 154.799,131.136 154.446,131.656 154.013 C 132.845 153.023,132.559 153.029,131.000 154.027 M156.000 156.125 C 156.000 156.194,156.585 156.779,157.300 157.425 L 158.600 158.600 157.425 157.300 C 156.330 156.088,156.000 155.816,156.000 156.125 M159.724 159.477 C 160.060 160.021,163.200 162.555,163.200 162.282 C 163.200 162.180,162.353 161.403,161.319 160.555 C 160.284 159.707,159.566 159.222,159.724 159.477 M236.465 161.417 C 236.209 161.978,236.007 162.654,236.016 162.919 C 236.024 163.183,236.297 162.788,236.622 162.039 C 237.305 160.465,237.161 159.890,236.465 161.417 M130.655 162.200 C 131.580 163.779,131.600 163.803,131.600 163.311 C 131.600 163.079,131.229 162.464,130.776 161.944 L 129.953 161.000 130.655 162.200 M204.519 162.904 C 206.079 164.506,207.049 165.037,205.600 163.497 C 204.830 162.678,204.074 162.007,203.919 162.004 C 203.765 162.002,204.035 162.407,204.519 162.904 M360.400 162.589 C 359.850 162.906,359.040 163.348,358.600 163.570 C 353.095 166.354,350.738 175.487,354.176 180.708 C 355.639 182.929,357.487 184.766,358.280 184.787 C 358.544 184.794,358.928 185.101,359.134 185.468 C 360.064 187.130,368.196 186.989,371.182 185.260 C 373.013 184.199,375.600 181.733,375.600 181.048 C 375.600 180.836,375.915 180.315,376.300 179.890 C 377.581 178.474,377.310 170.239,375.917 168.270 C 374.666 166.500,371.682 163.600,371.114 163.600 C 370.901 163.600,370.269 163.240,369.709 162.800 C 368.421 161.787,362.041 161.642,360.400 162.589 M369.316 163.780 C 373.839 165.780,376.400 169.664,376.400 174.523 C 376.400 187.127,359.379 190.383,354.330 178.743 C 350.267 169.377,359.999 159.660,369.316 163.780 M167.510 164.801 C 169.208 165.837,169.764 165.836,168.200 164.800 C 167.540 164.363,166.820 164.005,166.600 164.004 C 166.380 164.004,166.789 164.362,167.510 164.801 M172.000 166.600 C 172.550 166.914,173.270 167.171,173.600 167.170 C 173.930 167.169,173.594 166.906,172.854 166.584 C 171.151 165.845,170.694 165.853,172.000 166.600 M182.800 168.000 L 180.200 168.262 182.600 168.284 C 183.920 168.296,185.540 168.168,186.200 168.000 C 187.721 167.613,186.643 167.613,182.800 168.000 M233.915 169.810 C 233.792 170.245,233.569 170.960,233.420 171.400 C 233.271 171.840,233.442 171.694,233.800 171.076 C 234.158 170.458,234.381 169.742,234.295 169.486 C 234.210 169.230,234.039 169.376,233.915 169.810 M157.144 172.776 C 157.664 173.229,158.279 173.600,158.511 173.600 C 159.003 173.600,158.979 173.580,157.400 172.655 L 156.200 171.953 157.144 172.776 M159.944 174.376 C 160.464 174.829,161.079 175.200,161.311 175.200 C 161.803 175.200,161.779 175.180,160.200 174.255 L 159.000 173.553 159.944 174.376 M152.294 175.703 L 151.588 177.000 152.394 176.056 C 153.080 175.252,153.446 174.394,153.100 174.403 C 153.045 174.404,152.682 174.989,152.294 175.703 M218.418 176.600 C 219.175 177.639,220.790 179.249,221.800 179.971 C 222.285 180.317,222.207 180.146,221.600 179.537 C 218.710 176.631,217.892 175.876,218.418 176.600 M230.716 178.417 C 230.348 179.059,229.451 179.946,228.723 180.390 C 227.996 180.834,227.611 181.198,227.869 181.199 C 228.497 181.201,230.712 179.312,231.241 178.323 C 231.922 177.051,231.451 177.136,230.716 178.417 M150.396 178.900 C 149.960 179.615,149.602 180.365,149.601 180.567 C 149.600 181.023,149.656 180.948,150.714 179.100 C 151.766 177.263,151.497 177.094,150.396 178.900 M180.837 181.755 C 180.164 182.566,180.414 193.297,181.110 193.437 C 181.391 193.494,181.436 193.449,181.210 193.337 C 180.417 192.943,180.685 182.107,181.500 181.632 C 181.885 181.408,181.997 181.219,181.749 181.212 C 181.501 181.205,181.091 181.450,180.837 181.755 M184.115 193.896 C 185.388 193.976,187.368 193.975,188.515 193.894 C 189.662 193.814,188.620 193.749,186.200 193.750 C 183.780 193.751,182.842 193.816,184.115 193.896 M80.743 249.907 C 72.189 250.000,70.815 250.100,70.343 250.668 C 69.595 251.570,69.538 281.698,70.283 282.443 C 70.656 282.816,89.445 282.953,153.083 283.044 C 198.357 283.110,237.830 283.190,240.800 283.223 C 243.770 283.256,247.370 283.268,248.800 283.249 C 250.230 283.231,252.480 283.207,253.800 283.196 C 269.385 283.067,275.819 282.758,276.300 282.115 C 276.920 281.287,277.025 253.044,276.414 251.437 C 276.202 250.879,275.617 250.320,275.114 250.195 C 274.195 249.967,99.161 249.707,80.743 249.907 M193.400 250.781 C 237.840 250.846,274.605 251.053,275.100 251.240 L 276.000 251.580 276.000 266.747 C 276.000 280.821,275.950 281.934,275.300 282.190 C 273.942 282.723,71.062 282.423,70.721 281.886 C 70.134 280.962,70.335 251.752,70.932 251.256 C 71.493 250.791,82.270 250.574,102.000 250.631 C 107.830 250.647,148.960 250.715,193.400 250.781 M80.800 295.211 C 75.410 295.327,116.795 295.462,172.767 295.511 C 228.738 295.560,274.430 295.497,274.304 295.371 C 274.012 295.079,93.881 294.929,80.800 295.211 M70.182 296.101 C 70.077 296.377,70.037 303.352,70.095 311.601 L 70.201 326.600 70.400 311.100 C 70.510 302.575,70.549 295.600,70.487 295.600 C 70.426 295.600,70.288 295.826,70.182 296.101 M298.854 311.416 C 298.114 311.737,297.115 312.000,296.635 312.000 C 296.155 312.000,295.342 312.315,294.827 312.700 C 292.596 314.369,290.410 316.539,290.157 317.335 C 290.007 317.809,289.648 318.378,289.361 318.598 C 288.496 319.262,287.819 325.714,288.471 327.074 L 289.011 328.200 337.962 328.302 C 373.805 328.376,387.060 328.283,387.457 327.953 C 388.120 327.403,388.215 321.329,387.583 319.926 C 386.562 317.660,383.419 313.600,382.685 313.600 C 382.488 313.600,381.869 313.240,381.309 312.800 C 380.750 312.360,379.887 312.000,379.392 312.000 C 378.897 312.000,377.976 311.731,377.346 311.402 C 375.641 310.513,300.903 310.526,298.854 311.416 M380.611 313.494 C 384.709 315.768,387.325 320.200,387.119 324.517 L 387.000 327.000 338.200 327.000 L 289.400 327.000 289.283 324.120 C 289.109 319.850,291.087 316.396,295.192 313.805 C 297.375 312.427,295.498 312.481,338.600 312.543 L 379.000 312.600 380.611 313.494 M276.137 323.000 C 276.139 324.760,276.209 325.430,276.293 324.489 C 276.378 323.549,276.377 322.109,276.291 321.289 C 276.205 320.470,276.136 321.240,276.137 323.000 M274.971 326.991 C 274.547 327.312,274.380 327.578,274.600 327.581 C 275.194 327.591,276.210 326.877,275.959 326.626 C 275.840 326.506,275.395 326.671,274.971 326.991 M90.200 328.000 C 90.336 328.220,91.596 328.400,93.000 328.400 C 94.404 328.400,95.664 328.220,95.800 328.000 C 95.957 327.747,94.930 327.600,93.000 327.600 C 91.070 327.600,90.043 327.747,90.200 328.000 M99.600 328.000 C 100.313 328.461,110.961 328.461,112.400 328.000 C 112.986 327.812,110.421 327.666,106.200 327.646 C 101.417 327.624,99.201 327.742,99.600 328.000 M235.400 328.023 C 237.374 328.431,244.967 328.416,246.600 328.000 C 247.286 327.825,244.804 327.694,240.800 327.693 C 236.088 327.692,234.323 327.800,235.400 328.023 M251.400 328.000 C 251.840 328.189,252.920 328.344,253.800 328.344 C 254.680 328.344,255.760 328.189,256.200 328.000 C 256.735 327.770,255.938 327.656,253.800 327.656 C 251.662 327.656,250.865 327.770,251.400 328.000 M285.000 339.600 C 284.560 339.789,236.131 339.956,177.380 339.972 C 94.862 339.994,70.451 340.109,70.080 340.480 C 69.387 341.173,69.387 386.827,70.080 387.520 C 70.589 388.029,343.645 388.265,344.967 387.757 C 346.017 387.354,345.921 340.815,344.869 339.862 C 344.054 339.125,286.690 338.874,285.000 339.600 M358.446 340.545 C 358.118 340.940,358.022 347.476,358.097 364.245 L 358.200 387.400 371.063 387.505 L 383.926 387.611 385.763 385.774 L 387.600 383.937 387.600 363.890 L 387.600 343.843 386.549 342.326 C 385.845 341.311,385.018 340.676,384.049 340.407 C 381.688 339.751,359.003 339.873,358.446 340.545 M384.418 340.934 C 384.758 341.093,385.523 341.974,386.118 342.891 L 387.200 344.560 387.200 363.733 C 387.200 389.362,388.666 387.200,371.286 387.200 C 364.894 387.200,359.381 387.091,359.033 386.957 C 358.466 386.740,358.400 384.345,358.400 364.018 L 358.400 341.322 359.300 340.869 C 360.303 340.365,383.325 340.424,384.418 340.934 M344.600 364.000 L 344.600 387.000 207.600 387.000 L 70.600 387.000 70.496 364.400 C 70.439 351.970,70.478 341.575,70.584 341.299 C 70.737 340.900,98.368 340.819,207.688 340.899 L 344.600 341.000 344.600 364.000 M56.196 344.006 C 56.058 344.229,55.373 344.676,54.673 344.998 C 53.973 345.320,53.130 345.748,52.800 345.949 C 52.470 346.150,51.750 346.512,51.200 346.754 C 50.650 346.996,49.930 347.356,49.600 347.554 C 49.270 347.752,48.550 348.118,48.000 348.367 C 47.450 348.616,45.740 349.526,44.200 350.389 C 42.660 351.252,40.050 352.627,38.400 353.445 C 36.750 354.263,35.308 355.069,35.196 355.235 C 35.084 355.401,34.506 355.659,33.912 355.808 C 33.319 355.957,32.633 356.319,32.389 356.614 C 32.145 356.908,31.405 357.267,30.745 357.412 C 30.086 357.557,29.449 357.928,29.330 358.238 C 29.212 358.547,28.798 358.800,28.411 358.800 C 28.024 358.800,27.264 359.149,26.722 359.575 C 26.180 360.002,25.263 360.469,24.685 360.614 C 24.106 360.760,23.423 361.131,23.167 361.439 C 22.911 361.748,22.494 362.000,22.240 362.000 C 21.986 362.000,21.375 362.282,20.882 362.628 L 19.986 363.255 20.809 364.302 C 21.613 365.324,22.606 365.889,31.913 370.623 C 34.395 371.885,36.508 373.052,36.609 373.215 C 36.710 373.378,37.287 373.636,37.892 373.787 C 38.497 373.939,39.084 374.197,39.196 374.361 C 39.308 374.524,40.660 375.262,42.200 376.000 C 43.740 376.738,45.090 377.455,45.200 377.594 C 45.310 377.732,47.336 378.799,49.702 379.965 C 52.069 381.131,54.096 382.232,54.208 382.413 C 54.770 383.322,57.326 383.715,57.867 382.977 C 58.524 382.078,58.657 346.328,58.010 344.626 C 57.615 343.588,56.657 343.261,56.196 344.006 M57.594 364.076 C 57.597 374.128,57.465 382.432,57.300 382.529 C 56.923 382.751,56.406 382.512,51.000 379.617 C 48.580 378.321,44.620 376.238,42.200 374.988 C 39.780 373.738,35.640 371.581,33.000 370.194 C 30.360 368.807,26.892 367.009,25.294 366.198 C 21.542 364.296,21.096 363.544,23.107 362.507 C 23.928 362.084,26.400 360.811,28.600 359.679 C 30.800 358.547,32.810 357.443,33.066 357.226 C 33.322 357.010,33.999 356.715,34.570 356.572 C 35.140 356.429,35.692 356.175,35.795 356.008 C 35.958 355.745,39.729 353.723,43.124 352.079 C 43.716 351.793,44.470 351.396,44.800 351.198 C 45.130 351.000,46.713 350.154,48.318 349.319 C 56.127 345.255,56.995 344.869,57.291 345.334 C 57.454 345.590,57.591 354.024,57.594 364.076 " stroke="none" fill="#6f757b" fill-rule="evenodd"></path></g></svg>