<svg id="svg" version="1.1" xmlns="http://www.w3.org/2000/svg" xmlns:xlink="http://www.w3.org/1999/xlink" width="400" height="400" viewBox="0, 0, 400,400"><g id="svgg"><path id="path0" d="M68.221 119.300 C 68.136 119.575,67.951 120.880,67.810 122.200 C 67.461 125.468,66.911 130.312,66.425 134.400 C 66.203 136.270,65.838 139.420,65.614 141.400 C 65.391 143.380,65.024 146.530,64.800 148.400 C 64.576 150.270,64.217 153.420,64.002 155.400 C 63.788 157.380,63.244 162.150,62.794 166.000 C 62.345 169.850,61.521 176.960,60.965 181.800 C 60.408 186.640,59.781 192.040,59.572 193.800 C 59.363 195.560,59.009 198.620,58.786 200.600 C 58.562 202.580,58.198 205.730,57.976 207.600 C 57.755 209.470,57.406 212.530,57.200 214.400 C 56.994 216.270,56.634 219.420,56.400 221.400 C 56.166 223.380,55.789 226.620,55.564 228.600 C 55.338 230.580,54.994 233.550,54.800 235.200 C 54.606 236.850,54.256 239.865,54.023 241.900 C 53.790 243.935,53.410 247.265,53.177 249.300 C 52.944 251.335,52.595 254.350,52.400 256.000 C 52.206 257.650,51.851 260.800,51.611 263.000 C 51.371 265.200,51.135 267.360,51.087 267.800 C 51.000 268.597,51.265 268.600,115.400 268.694 C 186.011 268.797,182.165 268.665,188.762 271.209 C 191.801 272.382,197.060 275.493,198.902 277.209 C 199.941 278.177,200.053 278.181,201.025 277.283 C 203.291 275.189,208.136 272.365,211.882 270.955 C 217.869 268.701,215.071 268.790,280.040 268.797 C 336.701 268.804,349.406 268.657,348.999 267.999 C 348.904 267.844,348.629 265.846,348.389 263.559 C 348.150 261.271,347.794 258.050,347.600 256.400 C 347.405 254.750,347.044 251.690,346.798 249.600 C 346.551 247.510,346.180 244.315,345.974 242.500 C 345.768 240.685,345.432 237.715,345.226 235.900 C 345.020 234.085,344.649 230.890,344.402 228.800 C 343.581 221.848,343.208 218.633,342.802 215.000 C 342.404 211.446,341.895 207.052,341.202 201.200 C 341.006 199.550,340.662 196.580,340.436 194.600 C 340.211 192.620,339.840 189.425,339.613 187.500 C 339.386 185.575,339.033 182.515,338.828 180.700 C 338.623 178.885,338.174 174.970,337.831 172.000 C 336.069 156.786,335.555 152.293,335.198 149.000 C 334.983 147.020,334.624 143.870,334.400 142.000 C 334.176 140.130,333.810 136.980,333.586 135.000 C 333.362 133.020,332.985 129.780,332.748 127.800 C 332.511 125.820,332.200 123.030,332.058 121.600 L 331.800 119.000 292.569 118.898 L 253.337 118.796 252.916 119.698 C 252.684 120.194,251.739 122.220,250.815 124.200 C 248.244 129.714,244.475 135.065,240.058 139.473 C 235.622 143.902,235.860 143.313,235.152 151.600 C 234.194 162.824,234.017 164.861,233.630 169.200 C 233.404 171.730,233.038 175.780,232.817 178.200 C 232.597 180.620,232.228 184.925,231.997 187.767 C 230.779 202.825,226.527 212.689,218.633 218.773 C 203.363 230.542,181.289 225.448,172.821 208.200 C 170.015 202.485,168.728 196.266,167.603 183.000 C 167.361 180.140,166.997 176.000,166.794 173.800 C 166.591 171.600,166.232 167.550,165.997 164.800 C 165.240 155.942,164.795 151.084,164.388 147.253 L 163.990 143.506 159.951 139.453 C 155.432 134.920,151.754 129.708,149.185 124.200 C 148.261 122.220,147.316 120.195,147.085 119.700 L 146.665 118.800 107.520 118.800 C 76.553 118.800,68.343 118.904,68.221 119.300 M140.274 131.797 C 144.126 133.719,144.000 132.580,144.000 165.527 C 144.000 195.584,143.977 196.014,142.245 197.938 C 140.321 200.075,141.513 200.000,109.400 200.000 C 77.288 200.000,78.490 200.075,76.548 197.938 C 74.910 196.136,74.603 194.434,75.137 190.118 C 75.403 187.963,75.796 184.625,76.010 182.700 C 76.749 176.067,77.201 171.990,77.586 168.500 C 77.798 166.575,78.153 163.380,78.375 161.400 C 78.598 159.420,78.972 156.000,79.207 153.800 C 79.443 151.600,79.807 148.699,80.018 147.354 C 80.228 146.009,80.400 144.257,80.400 143.461 C 80.400 138.042,81.988 133.428,84.320 132.076 C 86.275 130.943,138.044 130.685,140.274 131.797 M318.710 143.702 L 318.820 150.005 287.510 149.902 L 256.200 149.800 256.089 143.830 C 256.005 139.323,256.103 137.781,256.489 137.535 C 256.770 137.356,270.860 137.252,287.800 137.305 L 318.600 137.400 318.710 143.702 M262.600 168.800 L 262.600 175.000 256.300 175.110 L 250.000 175.220 250.000 168.800 L 250.000 162.380 256.300 162.490 L 262.600 162.600 262.600 168.800 M325.000 168.800 L 325.000 175.000 300.000 175.000 L 275.000 175.000 274.889 169.218 C 274.827 166.039,274.867 163.202,274.977 162.915 C 275.139 162.493,279.909 162.414,300.089 162.497 L 325.000 162.600 325.000 168.800 M180.210 176.100 C 180.377 176.595,180.637 178.980,180.789 181.400 C 180.940 183.820,181.204 186.115,181.375 186.500 C 181.855 187.582,218.145 187.582,218.625 186.500 C 218.796 186.115,219.060 183.820,219.211 181.400 C 219.363 178.980,219.623 176.595,219.790 176.100 L 220.093 175.200 200.000 175.200 L 179.907 175.200 180.210 176.100 M275.110 193.700 L 275.220 200.000 259.410 200.000 L 243.600 200.000 243.600 193.867 C 243.600 190.493,243.722 187.611,243.871 187.462 C 244.021 187.313,251.086 187.238,259.571 187.295 L 275.000 187.400 275.110 193.700 M325.110 193.704 L 325.220 200.008 306.310 199.904 L 287.400 199.800 287.289 194.055 C 287.213 190.136,287.325 188.132,287.641 187.751 C 288.028 187.285,291.159 187.209,306.552 187.296 L 325.000 187.400 325.110 193.704 M183.851 200.317 C 182.979 201.728,188.126 208.360,191.271 209.880 C 198.376 213.312,206.807 212.080,211.881 206.869 C 213.643 205.060,216.255 200.922,215.876 200.542 C 215.479 200.146,184.093 199.925,183.851 200.317 M112.600 218.800 L 112.600 225.000 93.800 225.000 L 75.000 225.000 74.889 219.218 C 74.827 216.039,74.867 213.202,74.977 212.914 C 75.139 212.493,78.788 212.412,93.889 212.496 L 112.600 212.600 112.600 218.800 M137.510 218.700 L 137.400 225.000 131.200 225.000 L 125.000 225.000 124.889 219.218 C 124.743 211.676,124.052 212.400,131.398 212.400 L 137.620 212.400 137.510 218.700 M306.310 218.700 L 306.200 225.000 271.800 225.000 L 237.400 225.000 237.289 219.218 C 237.227 216.039,237.267 213.204,237.376 212.918 C 237.537 212.499,244.177 212.400,271.998 212.400 L 306.420 212.400 306.310 218.700 M331.200 218.800 L 331.200 225.200 325.000 225.200 L 318.800 225.200 318.800 218.800 L 318.800 212.400 325.000 212.400 L 331.200 212.400 331.200 218.800 M125.110 243.700 L 125.220 250.000 97.010 250.000 L 68.800 250.000 68.800 243.867 C 68.800 240.493,68.921 237.612,69.069 237.464 C 69.218 237.316,81.863 237.241,97.169 237.297 L 125.000 237.400 125.110 243.700 M168.710 243.705 L 168.820 250.009 153.110 249.905 L 137.400 249.800 137.289 244.055 C 137.140 236.377,135.253 237.171,153.353 237.295 L 168.600 237.400 168.710 243.705 M287.510 243.700 L 287.620 250.000 256.210 250.000 L 224.800 250.000 224.800 243.867 C 224.800 240.493,224.921 237.612,225.069 237.464 C 225.217 237.316,239.302 237.241,256.369 237.298 L 287.400 237.400 287.510 243.700 M331.110 243.700 L 331.220 250.000 315.610 250.000 L 300.000 250.000 300.000 243.867 C 300.000 240.493,300.122 237.611,300.271 237.462 C 300.421 237.313,307.396 237.238,315.771 237.295 L 331.000 237.400 331.110 243.700 " stroke="none" fill="#f7eddc" fill-rule="evenodd"></path><path id="path1" d="M332.069 121.600 C 332.056 122.370,332.195 123.720,332.377 124.600 L 332.708 126.200 332.731 124.800 C 332.744 124.030,332.605 122.680,332.423 121.800 L 332.092 120.200 332.069 121.600 M332.869 128.600 C 332.856 129.260,332.995 130.520,333.177 131.400 C 333.465 132.792,333.511 132.844,333.531 131.800 C 333.544 131.140,333.405 129.880,333.223 129.000 C 332.935 127.608,332.889 127.556,332.869 128.600 M333.676 135.400 C 333.667 136.060,333.803 137.410,333.980 138.400 C 334.278 140.078,334.302 140.105,334.327 138.800 C 334.342 138.030,334.205 136.680,334.023 135.800 C 333.737 134.420,333.690 134.365,333.676 135.400 M143.790 165.600 C 143.790 181.770,143.839 188.385,143.900 180.300 C 143.960 172.215,143.960 158.985,143.900 150.900 C 143.839 142.815,143.790 149.430,143.790 165.600 M272.100 137.500 C 280.625 137.560,294.575 137.560,303.100 137.500 C 311.625 137.440,304.650 137.390,287.600 137.390 C 270.550 137.390,263.575 137.440,272.100 137.500 M256.161 143.600 C 256.161 147.010,256.222 148.405,256.297 146.700 C 256.372 144.995,256.372 142.205,256.297 140.500 C 256.222 138.795,256.161 140.190,256.161 143.600 M80.493 142.000 C 80.493 142.770,80.575 143.085,80.676 142.700 C 80.776 142.315,80.776 141.685,80.676 141.300 C 80.575 140.915,80.493 141.230,80.493 142.000 M334.476 142.200 C 334.467 142.860,334.603 144.210,334.780 145.200 C 335.078 146.878,335.102 146.905,335.127 145.600 C 335.142 144.830,335.005 143.480,334.823 142.600 C 334.537 141.220,334.490 141.165,334.476 142.200 M64.893 145.200 C 64.893 145.970,64.975 146.285,65.076 145.900 C 65.176 145.515,65.176 144.885,65.076 144.500 C 64.975 144.115,64.893 144.430,64.893 145.200 M235.293 147.200 C 235.293 147.970,235.375 148.285,235.476 147.900 C 235.576 147.515,235.576 146.885,235.476 146.500 C 235.375 146.115,235.293 146.430,235.293 147.200 M79.693 149.200 C 79.693 149.970,79.775 150.285,79.876 149.900 C 79.976 149.515,79.976 148.885,79.876 148.500 C 79.775 148.115,79.693 148.430,79.693 149.200 M335.277 149.400 C 335.267 150.060,335.403 151.410,335.580 152.400 L 335.900 154.200 335.903 152.400 C 335.904 151.410,335.768 150.060,335.600 149.400 L 335.295 148.200 335.277 149.400 M164.901 153.000 C 164.905 153.880,164.987 154.193,165.083 153.695 C 165.179 153.198,165.175 152.478,165.075 152.095 C 164.975 151.713,164.896 152.120,164.901 153.000 M234.893 153.200 C 234.893 153.970,234.975 154.285,235.076 153.900 C 235.176 153.515,235.176 152.885,235.076 152.500 C 234.975 152.115,234.893 152.430,234.893 153.200 M165.293 156.000 C 165.293 156.770,165.375 157.085,165.476 156.700 C 165.576 156.315,165.576 155.685,165.476 155.300 C 165.375 154.915,165.293 155.230,165.293 156.000 M78.893 156.400 C 78.893 157.170,78.975 157.485,79.076 157.100 C 79.176 156.715,79.176 156.085,79.076 155.700 C 78.975 155.315,78.893 155.630,78.893 156.400 M336.082 156.200 C 336.076 156.860,336.210 158.300,336.382 159.400 L 336.693 161.400 336.699 159.400 C 336.703 158.300,336.568 156.860,336.400 156.200 L 336.095 155.000 336.082 156.200 M63.293 159.200 C 63.293 159.970,63.375 160.285,63.476 159.900 C 63.576 159.515,63.576 158.885,63.476 158.500 C 63.375 158.115,63.293 158.430,63.293 159.200 M165.693 162.000 C 165.693 162.770,165.775 163.085,165.876 162.700 C 165.976 162.315,165.976 161.685,165.876 161.300 C 165.775 160.915,165.693 161.230,165.693 162.000 M234.101 162.200 C 234.105 163.080,234.187 163.393,234.283 162.895 C 234.379 162.398,234.375 161.678,234.275 161.295 C 234.175 160.913,234.096 161.320,234.101 162.200 M337.073 165.000 C 337.196 166.760,337.365 168.275,337.449 168.367 C 337.736 168.684,337.553 164.994,337.201 163.400 C 336.942 162.225,336.908 162.650,337.073 165.000 M78.093 163.600 C 78.093 164.370,78.175 164.685,78.276 164.300 C 78.376 163.915,78.376 163.285,78.276 162.900 C 78.175 162.515,78.093 162.830,78.093 163.600 M262.319 168.609 L 262.439 174.779 256.119 174.906 L 249.800 175.032 256.200 175.016 L 262.600 175.000 262.711 169.031 C 262.772 165.748,262.682 162.922,262.511 162.750 C 262.340 162.578,262.254 165.215,262.319 168.609 M274.984 168.900 L 275.000 175.000 300.000 175.000 L 325.000 175.000 325.016 168.900 L 325.032 162.799 324.906 168.800 L 324.779 174.800 300.000 174.800 L 275.221 174.800 275.094 168.800 L 274.968 162.799 274.984 168.900 M166.093 165.200 C 166.093 165.970,166.175 166.285,166.276 165.900 C 166.376 165.515,166.376 164.885,166.276 164.500 C 166.175 164.115,166.093 164.430,166.093 165.200 M233.693 165.200 C 233.693 165.970,233.775 166.285,233.876 165.900 C 233.976 165.515,233.976 164.885,233.876 164.500 C 233.775 164.115,233.693 164.430,233.693 165.200 M62.493 166.400 C 62.493 167.170,62.575 167.485,62.676 167.100 C 62.776 166.715,62.776 166.085,62.676 165.700 C 62.575 165.315,62.493 165.630,62.493 166.400 M337.888 172.200 C 338.009 173.960,338.174 175.475,338.254 175.567 C 338.529 175.880,338.306 171.403,337.987 170.200 C 337.799 169.490,337.759 170.306,337.888 172.200 M77.293 170.800 C 77.293 171.570,77.375 171.885,77.476 171.500 C 77.576 171.115,77.576 170.485,77.476 170.100 C 77.375 169.715,77.293 170.030,77.293 170.800 M166.501 171.000 C 166.505 171.880,166.587 172.193,166.683 171.695 C 166.779 171.198,166.775 170.478,166.675 170.095 C 166.575 169.713,166.496 170.120,166.501 171.000 M233.293 171.200 C 233.293 171.970,233.375 172.285,233.476 171.900 C 233.576 171.515,233.576 170.885,233.476 170.500 C 233.375 170.115,233.293 170.430,233.293 171.200 M61.693 173.200 C 61.693 173.970,61.775 174.285,61.876 173.900 C 61.976 173.515,61.976 172.885,61.876 172.500 C 61.775 172.115,61.693 172.430,61.693 173.200 M166.893 174.400 C 166.893 175.170,166.975 175.485,167.076 175.100 C 167.176 174.715,167.176 174.085,167.076 173.700 C 166.975 173.315,166.893 173.630,166.893 174.400 M232.893 174.400 C 232.893 175.170,232.975 175.485,233.076 175.100 C 233.176 174.715,233.176 174.085,233.076 173.700 C 232.975 173.315,232.893 173.630,232.893 174.400 M189.900 175.100 C 195.455 175.162,204.545 175.162,210.100 175.100 C 215.655 175.037,211.110 174.986,200.000 174.986 C 188.890 174.986,184.345 175.037,189.900 175.100 M179.693 177.200 C 179.693 177.970,179.775 178.285,179.876 177.900 C 179.976 177.515,179.976 176.885,179.876 176.500 C 179.775 176.115,179.693 176.430,179.693 177.200 M220.093 177.200 C 220.093 177.970,220.175 178.285,220.276 177.900 C 220.376 177.515,220.376 176.885,220.276 176.500 C 220.175 176.115,220.093 176.430,220.093 177.200 M338.651 178.600 C 338.754 180.140,338.997 182.570,339.190 184.000 C 339.383 185.430,339.743 188.490,339.990 190.800 C 340.629 196.780,341.206 200.027,340.949 196.200 C 340.846 194.660,340.603 192.230,340.410 190.800 C 340.217 189.370,339.857 186.310,339.610 184.000 C 338.971 178.020,338.394 174.773,338.651 178.600 M76.501 178.200 C 76.505 179.080,76.587 179.393,76.683 178.895 C 76.779 178.398,76.775 177.678,76.675 177.295 C 76.575 176.913,76.496 177.320,76.501 178.200 M60.901 180.200 C 60.905 181.080,60.987 181.393,61.083 180.895 C 61.179 180.398,61.175 179.678,61.075 179.295 C 60.975 178.913,60.896 179.320,60.901 180.200 M167.293 180.000 C 167.293 180.770,167.375 181.085,167.476 180.700 C 167.576 180.315,167.576 179.685,167.476 179.300 C 167.375 178.915,167.293 179.230,167.293 180.000 M232.493 180.000 C 232.493 180.770,232.575 181.085,232.676 180.700 C 232.776 180.315,232.776 179.685,232.676 179.300 C 232.575 178.915,232.493 179.230,232.493 180.000 M167.693 183.200 C 167.693 183.970,167.775 184.285,167.876 183.900 C 167.976 183.515,167.976 182.885,167.876 182.500 C 167.775 182.115,167.693 182.430,167.693 183.200 M232.093 183.200 C 232.093 183.970,232.175 184.285,232.276 183.900 C 232.376 183.515,232.376 182.885,232.276 182.500 C 232.175 182.115,232.093 182.430,232.093 183.200 M75.701 185.400 C 75.705 186.280,75.787 186.593,75.883 186.095 C 75.979 185.598,75.975 184.878,75.875 184.495 C 75.775 184.113,75.696 184.520,75.701 185.400 M219.254 185.900 L 219.200 187.200 200.027 187.200 L 180.853 187.200 180.669 186.100 C 180.493 185.055,180.487 185.060,180.542 186.200 L 180.600 187.400 199.911 187.504 C 220.786 187.616,219.901 187.705,219.486 185.529 C 219.351 184.822,219.296 184.910,219.254 185.900 M60.101 187.400 C 60.105 188.280,60.187 188.593,60.283 188.095 C 60.379 187.598,60.375 186.878,60.275 186.495 C 60.175 186.113,60.096 186.520,60.101 187.400 M243.778 187.713 C 243.668 188.000,243.633 190.927,243.700 194.218 L 243.823 200.200 243.912 193.900 L 244.000 187.600 259.390 187.600 L 274.780 187.600 274.906 193.800 L 275.031 200.001 275.016 193.700 L 275.000 187.400 259.489 187.295 C 247.022 187.211,243.939 187.293,243.778 187.713 M306.390 187.498 L 324.780 187.608 324.905 193.704 L 325.030 199.800 325.015 193.600 L 325.000 187.400 306.500 187.394 L 288.000 187.388 306.390 187.498 M168.093 189.200 C 168.093 189.970,168.175 190.285,168.276 189.900 C 168.376 189.515,168.376 188.885,168.276 188.500 C 168.175 188.115,168.093 188.430,168.093 189.200 M231.693 189.200 C 231.693 189.970,231.775 190.285,231.876 189.900 C 231.976 189.515,231.976 188.885,231.876 188.500 C 231.775 188.115,231.693 188.430,231.693 189.200 M287.360 193.800 C 287.361 197.100,287.422 198.397,287.498 196.682 C 287.573 194.967,287.572 192.267,287.497 190.682 C 287.421 189.097,287.359 190.500,287.360 193.800 M74.920 193.200 C 74.920 194.410,74.995 194.905,75.087 194.300 C 75.178 193.695,75.178 192.705,75.087 192.100 C 74.995 191.495,74.920 191.990,74.920 193.200 M168.493 192.400 C 168.493 193.170,168.575 193.485,168.676 193.100 C 168.776 192.715,168.776 192.085,168.676 191.700 C 168.575 191.315,168.493 191.630,168.493 192.400 M231.293 192.400 C 231.293 193.170,231.375 193.485,231.476 193.100 C 231.576 192.715,231.576 192.085,231.476 191.700 C 231.375 191.315,231.293 191.630,231.293 192.400 M59.301 194.200 C 59.305 195.080,59.387 195.393,59.483 194.895 C 59.579 194.398,59.575 193.678,59.475 193.295 C 59.375 192.913,59.296 193.320,59.301 194.200 M341.247 201.233 C 341.273 202.425,341.433 203.940,341.602 204.600 C 341.776 205.281,341.818 204.415,341.698 202.600 C 341.455 198.899,341.178 198.058,341.247 201.233 M58.501 201.400 C 58.505 202.280,58.587 202.593,58.683 202.095 C 58.779 201.598,58.775 200.878,58.675 200.495 C 58.575 200.113,58.496 200.520,58.501 201.400 M184.950 204.200 C 185.456 205.270,190.023 210.000,190.550 210.000 C 190.665 210.000,189.632 208.875,188.255 207.500 C 186.877 206.125,185.442 204.550,185.066 204.000 L 184.382 203.000 184.950 204.200 M342.047 208.033 C 342.073 209.225,342.233 210.740,342.402 211.400 C 342.576 212.081,342.618 211.215,342.498 209.400 C 342.255 205.699,341.978 204.858,342.047 208.033 M57.701 208.200 C 57.705 209.080,57.787 209.393,57.883 208.895 C 57.979 208.398,57.975 207.678,57.875 207.295 C 57.775 206.913,57.696 207.320,57.701 208.200 M223.899 212.900 C 222.045 215.319,220.210 217.095,217.443 219.151 C 215.926 220.278,214.846 221.198,215.043 221.196 C 215.643 221.190,220.512 217.378,222.011 215.741 C 223.533 214.080,225.367 211.600,225.075 211.600 C 224.976 211.600,224.447 212.185,223.899 212.900 M112.320 218.619 L 112.439 224.800 93.830 224.800 L 75.221 224.800 75.094 218.800 L 74.968 212.799 74.984 218.900 L 75.000 225.000 93.800 225.000 L 112.600 225.000 112.711 219.031 C 112.772 215.748,112.682 212.922,112.511 212.750 C 112.340 212.578,112.254 215.219,112.320 218.619 M176.372 213.885 C 178.530 216.744,185.145 222.008,186.562 221.996 C 186.803 221.994,186.190 221.517,185.200 220.936 C 182.468 219.332,180.047 217.370,177.449 214.656 C 175.701 212.829,175.425 212.632,176.372 213.885 M237.376 212.918 C 237.267 213.204,237.227 216.039,237.289 219.218 L 237.400 225.000 271.800 225.000 L 306.200 225.000 306.215 218.800 L 306.230 212.600 306.105 218.700 L 305.980 224.800 271.770 224.800 L 237.561 224.800 237.680 218.599 C 237.798 212.480,237.767 211.899,237.376 212.918 M124.984 218.900 L 125.000 225.000 131.100 225.016 L 137.201 225.032 131.211 224.906 L 125.221 224.779 125.094 218.789 L 124.968 212.799 124.984 218.900 M342.847 215.233 C 342.873 216.425,343.038 217.940,343.213 218.600 C 343.401 219.310,343.441 218.494,343.312 216.600 C 343.057 212.892,342.778 212.070,342.847 215.233 M56.893 215.600 C 56.893 216.370,56.975 216.685,57.076 216.300 C 57.176 215.915,57.176 215.285,57.076 214.900 C 56.975 214.515,56.893 214.830,56.893 215.600 M343.647 222.233 C 343.673 223.315,343.840 224.740,344.017 225.400 C 344.214 226.132,344.253 225.431,344.118 223.600 C 343.863 220.155,343.577 219.325,343.647 222.233 M56.093 222.400 C 56.093 223.170,56.175 223.485,56.276 223.100 C 56.376 222.715,56.376 222.085,56.276 221.700 C 56.175 221.315,56.093 221.630,56.093 222.400 M187.200 222.214 C 187.200 222.493,190.106 223.631,190.491 223.503 C 190.682 223.439,190.020 223.084,189.019 222.713 C 188.019 222.342,187.200 222.117,187.200 222.214 M210.800 222.800 C 209.810 223.215,209.203 223.565,209.451 223.578 C 210.018 223.606,212.800 222.457,212.800 222.195 C 212.800 221.948,212.912 221.914,210.800 222.800 M191.600 223.994 C 191.930 224.211,192.635 224.391,193.167 224.394 C 194.451 224.402,194.125 224.175,192.400 223.858 C 191.415 223.677,191.178 223.718,191.600 223.994 M205.600 224.254 C 203.864 224.647,201.537 224.794,198.600 224.696 C 196.180 224.614,194.650 224.676,195.200 224.834 C 197.792 225.576,207.696 224.838,208.707 223.827 C 209.018 223.515,208.601 223.573,205.600 224.254 M321.919 225.098 C 323.744 225.172,326.624 225.172,328.319 225.097 C 330.014 225.022,328.520 224.961,325.000 224.962 C 321.480 224.962,320.094 225.024,321.919 225.098 M344.447 229.033 C 344.473 230.115,344.640 231.540,344.817 232.200 C 345.014 232.932,345.053 232.231,344.918 230.400 C 344.663 226.955,344.377 226.125,344.447 229.033 M55.293 229.600 C 55.293 230.370,55.375 230.685,55.476 230.300 C 55.576 229.915,55.576 229.285,55.476 228.900 C 55.375 228.515,55.293 228.830,55.293 229.600 M345.240 236.233 C 345.262 237.315,345.434 238.650,345.621 239.200 C 345.837 239.831,345.878 239.168,345.732 237.400 C 345.460 234.096,345.183 233.440,345.240 236.233 M54.493 236.400 C 54.493 237.170,54.575 237.485,54.676 237.100 C 54.776 236.715,54.776 236.085,54.676 235.700 C 54.575 235.315,54.493 235.630,54.493 236.400 M97.090 237.499 L 124.780 237.605 124.905 243.703 L 125.030 249.800 125.015 243.600 L 125.000 237.400 97.200 237.396 L 69.400 237.392 97.090 237.499 M145.500 237.499 C 149.735 237.564,156.665 237.564,160.900 237.499 C 165.135 237.435,161.670 237.382,153.200 237.382 C 144.730 237.382,141.265 237.435,145.500 237.499 M224.976 237.718 C 224.867 238.002,224.833 240.927,224.900 244.218 L 225.023 250.200 225.112 243.895 L 225.200 237.590 256.362 237.695 C 273.501 237.753,287.440 237.665,287.338 237.500 C 286.982 236.923,225.198 237.139,224.976 237.718 M307.900 237.499 C 312.135 237.564,319.065 237.564,323.300 237.499 C 327.535 237.435,324.070 237.382,315.600 237.382 C 307.130 237.382,303.665 237.435,307.900 237.499 M137.360 243.800 C 137.361 247.100,137.422 248.397,137.498 246.682 C 137.573 244.967,137.572 242.267,137.497 240.682 C 137.421 239.097,137.359 240.500,137.360 243.800 M346.097 243.200 C 346.096 244.190,346.232 245.540,346.400 246.200 L 346.705 247.400 346.723 246.200 C 346.733 245.540,346.597 244.190,346.420 243.200 L 346.100 241.400 346.097 243.200 M346.897 250.000 C 346.896 250.990,347.032 252.340,347.200 253.000 L 347.505 254.200 347.523 253.000 C 347.533 252.340,347.397 250.990,347.220 250.000 L 346.900 248.200 346.897 250.000 M52.893 250.400 C 52.893 251.170,52.975 251.485,53.076 251.100 C 53.176 250.715,53.176 250.085,53.076 249.700 C 52.975 249.315,52.893 249.630,52.893 250.400 M347.693 257.000 C 347.694 257.880,347.832 259.140,348.000 259.800 L 348.305 261.000 348.330 259.800 C 348.343 259.140,348.205 257.880,348.023 257.000 L 347.692 255.400 347.693 257.000 M52.093 257.200 C 52.093 257.970,52.175 258.285,52.276 257.900 C 52.376 257.515,52.376 256.885,52.276 256.500 C 52.175 256.115,52.093 256.430,52.093 257.200 M348.473 263.600 C 348.458 264.370,348.595 265.720,348.777 266.600 C 349.236 268.821,349.274 266.550,348.820 264.000 C 348.522 262.322,348.498 262.295,348.473 263.600 M344.711 268.693 C 345.651 268.778,347.091 268.777,347.911 268.691 C 348.730 268.605,347.960 268.536,346.200 268.537 C 344.440 268.539,343.770 268.609,344.711 268.693 M179.600 269.200 C 180.150 269.376,181.140 269.517,181.800 269.513 L 183.000 269.505 181.800 269.200 C 181.140 269.032,180.150 268.891,179.600 268.887 L 178.600 268.880 179.600 269.200 M218.200 269.200 L 217.000 269.505 218.200 269.513 C 218.860 269.517,219.850 269.376,220.400 269.200 L 221.400 268.880 220.400 268.887 C 219.850 268.891,218.860 269.032,218.200 269.200 M183.800 270.000 C 184.240 270.189,184.960 270.344,185.400 270.344 L 186.200 270.344 185.400 270.000 C 184.960 269.811,184.240 269.656,183.800 269.656 L 183.000 269.656 183.800 270.000 M214.600 270.000 L 213.800 270.344 214.600 270.344 C 215.040 270.344,215.760 270.189,216.200 270.000 L 217.000 269.656 216.200 269.656 C 215.760 269.656,215.040 269.811,214.600 270.000 M187.200 270.858 C 192.688 273.398,194.996 274.668,197.300 276.416 L 200.000 278.464 202.700 276.433 C 204.185 275.316,206.705 273.746,208.300 272.944 C 211.243 271.463,212.030 270.904,210.183 271.606 C 207.964 272.450,202.773 275.668,201.025 277.283 C 200.063 278.172,199.936 278.172,198.975 277.281 C 196.540 275.021,190.058 271.370,187.200 270.648 L 186.200 270.396 187.200 270.858 M56.921 281.900 C 57.039 282.285,57.876 284.282,58.781 286.338 C 60.901 291.151,62.304 296.764,62.647 301.800 C 62.797 304.000,63.118 305.932,63.360 306.094 C 63.602 306.256,87.430 306.391,116.310 306.394 L 168.821 306.400 168.710 312.500 L 168.600 318.600 115.000 318.702 L 61.400 318.804 60.250 322.302 C 59.618 324.226,58.583 326.830,57.950 328.089 C 57.318 329.347,56.800 330.562,56.800 330.789 C 56.800 331.676,177.312 331.311,180.877 330.412 C 185.997 329.122,190.946 326.059,194.150 322.196 C 197.921 317.651,201.779 317.546,205.587 321.887 C 212.952 330.282,216.511 331.252,239.400 331.107 L 256.200 331.000 256.306 318.706 L 256.412 306.411 243.906 306.306 L 231.400 306.200 231.400 300.000 L 231.400 293.800 272.411 293.698 L 313.423 293.596 315.210 294.498 C 318.812 296.316,318.786 296.166,318.793 314.900 L 318.800 331.200 331.000 331.200 C 339.092 331.200,343.200 331.061,343.200 330.789 C 343.200 330.562,342.661 329.310,342.003 328.006 C 335.438 315.000,335.593 296.943,342.385 283.629 C 342.833 282.751,343.200 281.845,343.200 281.616 C 343.200 280.912,223.703 281.049,220.400 281.757 C 214.823 282.953,211.678 284.668,207.643 288.714 C 200.942 295.435,199.068 295.436,192.357 288.723 C 188.258 284.623,185.222 282.966,179.600 281.758 C 175.143 280.801,56.626 280.938,56.921 281.900 " stroke="none" fill="#249bd3" fill-rule="evenodd"></path><path id="path2" d="M192.667 12.667 C 192.230 13.104,192.355 24.725,192.800 25.000 C 193.060 25.161,193.200 23.004,193.200 18.824 C 193.200 15.291,193.140 12.400,193.067 12.400 C 192.993 12.400,192.813 12.520,192.667 12.667 M174.000 15.600 C 174.000 15.820,174.270 16.000,174.600 16.000 C 174.930 16.000,175.200 15.820,175.200 15.600 C 175.200 15.380,174.930 15.200,174.600 15.200 C 174.270 15.200,174.000 15.380,174.000 15.600 M224.653 15.941 C 223.908 16.765,223.820 17.200,224.400 17.200 C 224.620 17.200,224.800 16.943,224.800 16.629 C 224.800 16.315,225.115 15.996,225.500 15.920 C 225.948 15.831,226.039 15.680,225.753 15.500 C 225.508 15.345,225.013 15.544,224.653 15.941 M171.800 16.400 C 171.664 16.620,171.923 16.800,172.376 16.800 C 172.829 16.800,173.200 16.620,173.200 16.400 C 173.200 16.180,172.941 16.000,172.624 16.000 C 172.307 16.000,171.936 16.180,171.800 16.400 M166.000 18.800 C 166.000 19.020,166.270 19.200,166.600 19.200 C 166.930 19.200,167.200 19.020,167.200 18.800 C 167.200 18.580,166.930 18.400,166.600 18.400 C 166.270 18.400,166.000 18.580,166.000 18.800 M162.511 20.332 C 162.124 20.571,162.081 21.405,162.404 22.400 C 162.440 22.510,162.627 22.069,162.821 21.420 C 163.220 20.086,163.173 19.922,162.511 20.332 M237.116 20.217 C 236.790 20.543,237.223 22.000,237.647 22.000 C 237.841 22.000,237.997 21.775,237.994 21.500 C 237.985 20.805,237.394 19.940,237.116 20.217 M146.400 31.200 C 146.400 31.420,146.677 31.600,147.015 31.600 C 147.354 31.600,149.244 33.227,151.215 35.215 C 153.187 37.204,154.800 38.685,154.800 38.508 C 154.800 38.330,153.132 36.523,151.092 34.492 C 147.662 31.076,146.400 30.191,146.400 31.200 M251.435 31.803 C 250.795 32.353,250.389 32.922,250.533 33.066 C 250.677 33.210,251.132 32.939,251.544 32.464 C 251.957 31.989,252.598 31.600,252.971 31.600 C 253.343 31.600,253.536 31.420,253.400 31.200 C 253.032 30.604,252.717 30.700,251.435 31.803 M230.000 32.800 C 230.000 33.020,230.270 33.200,230.600 33.200 C 230.930 33.200,231.200 33.020,231.200 32.800 C 231.200 32.580,230.930 32.400,230.600 32.400 C 230.270 32.400,230.000 32.580,230.000 32.800 M246.911 36.244 C 245.322 37.851,244.152 39.237,244.311 39.323 C 244.470 39.409,245.900 38.164,247.489 36.556 C 249.078 34.949,250.248 33.563,250.089 33.477 C 249.930 33.391,248.500 34.636,246.911 36.244 M139.477 37.922 C 138.225 39.188,137.200 40.446,137.200 40.719 C 137.200 41.325,142.240 46.427,142.540 46.126 C 142.659 46.008,141.685 44.861,140.378 43.578 C 137.486 40.739,137.469 40.465,140.047 37.954 C 141.173 36.858,142.017 35.884,141.924 35.791 C 141.831 35.697,140.730 36.656,139.477 37.922 M243.569 39.700 C 243.316 40.527,243.344 41.242,243.636 41.422 C 243.836 41.546,244.000 41.187,244.000 40.624 C 244.000 39.809,243.720 39.208,243.569 39.700 M156.000 40.581 C 156.000 41.565,147.760 49.600,146.752 49.600 C 146.280 49.600,145.558 49.212,145.147 48.739 C 144.736 48.265,144.400 48.058,144.400 48.278 C 144.400 49.051,145.904 50.400,146.766 50.400 C 147.350 50.400,149.150 48.861,152.219 45.738 C 156.835 41.040,157.129 40.650,156.400 40.200 C 156.180 40.064,156.000 40.236,156.000 40.581 M244.277 41.856 C 243.933 42.200,252.513 50.400,253.216 50.400 C 253.579 50.400,254.202 50.040,254.600 49.600 C 255.011 49.146,255.124 48.800,254.862 48.800 C 254.608 48.800,254.400 48.980,254.400 49.200 C 254.400 50.713,252.127 49.353,248.426 45.626 C 246.256 43.441,244.389 41.744,244.277 41.856 M259.777 43.342 C 257.251 45.964,257.227 46.452,259.744 44.014 C 260.985 42.811,262.000 41.776,262.000 41.714 C 262.000 41.288,261.171 41.895,259.777 43.342 M126.400 56.400 C 126.400 56.620,126.850 56.800,127.400 56.800 C 127.950 56.800,128.400 56.620,128.400 56.400 C 128.400 56.180,127.950 56.000,127.400 56.000 C 126.850 56.000,126.400 56.180,126.400 56.400 M196.000 56.443 C 169.003 58.816,150.369 85.869,157.820 111.871 C 160.387 120.826,164.480 126.884,173.331 134.826 C 175.994 137.216,176.219 137.831,176.765 144.200 C 177.029 147.280,177.415 151.224,177.622 152.964 C 177.830 154.704,178.000 156.976,178.000 158.014 C 178.000 159.051,178.113 160.466,178.252 161.158 L 178.503 162.417 186.152 162.308 L 193.800 162.200 193.904 145.016 L 194.009 127.833 185.519 119.309 L 177.029 110.786 181.207 106.593 C 183.505 104.287,185.567 102.400,185.789 102.400 C 186.010 102.400,189.299 105.503,193.096 109.296 L 200.000 116.191 206.904 109.296 C 210.701 105.503,213.990 102.400,214.211 102.400 C 214.433 102.400,216.495 104.287,218.793 106.593 L 222.971 110.786 214.481 119.309 L 205.991 127.833 206.096 145.016 L 206.200 162.200 213.848 162.308 L 221.497 162.417 221.748 161.158 C 221.887 160.466,222.000 159.051,222.000 158.014 C 222.000 156.976,222.169 154.704,222.375 152.964 C 222.582 151.224,222.955 147.370,223.204 144.400 C 223.792 137.403,223.673 137.642,229.126 132.517 C 260.069 103.438,237.997 52.750,196.000 56.443 M271.600 56.400 C 271.600 56.620,272.050 56.800,272.600 56.800 C 273.150 56.800,273.600 57.010,273.600 57.267 C 273.600 57.523,273.694 57.639,273.809 57.524 C 273.925 57.409,273.905 57.019,273.767 56.657 C 273.497 55.955,271.600 55.730,271.600 56.400 M267.600 58.000 C 267.600 58.220,267.870 58.400,268.200 58.400 C 268.530 58.400,268.800 58.220,268.800 58.000 C 268.800 57.780,268.530 57.600,268.200 57.600 C 267.870 57.600,267.600 57.780,267.600 58.000 M260.667 60.667 C 260.284 61.049,260.338 61.600,260.757 61.600 C 260.954 61.600,261.218 61.330,261.345 61.000 C 261.579 60.390,261.153 60.181,260.667 60.667 M122.692 65.442 C 122.531 65.602,122.400 66.009,122.400 66.347 C 122.400 66.797,122.518 66.842,122.845 66.515 C 123.090 66.270,123.221 65.863,123.137 65.610 C 123.052 65.357,122.852 65.281,122.692 65.442 M276.800 65.976 C 276.800 66.429,276.980 66.800,277.200 66.800 C 277.420 66.800,277.600 66.541,277.600 66.224 C 277.600 65.907,277.420 65.536,277.200 65.400 C 276.980 65.264,276.800 65.523,276.800 65.976 M121.812 68.117 C 121.641 68.512,121.613 68.947,121.751 69.084 C 122.157 69.490,122.484 68.920,122.297 68.131 C 122.132 67.433,122.110 67.432,121.812 68.117 M277.600 68.400 C 277.600 68.840,277.780 69.200,278.000 69.200 C 278.220 69.200,278.400 68.840,278.400 68.400 C 278.400 67.960,278.220 67.600,278.000 67.600 C 277.780 67.600,277.600 67.960,277.600 68.400 M263.600 70.553 C 263.600 70.883,263.780 71.264,264.000 71.400 C 264.220 71.536,264.400 71.377,264.400 71.047 C 264.400 70.717,264.220 70.336,264.000 70.200 C 263.780 70.064,263.600 70.223,263.600 70.553 M266.200 73.600 C 265.429 73.931,265.431 73.945,266.276 73.972 C 266.758 73.987,267.264 73.820,267.400 73.600 C 267.692 73.127,267.301 73.127,266.200 73.600 M253.318 162.698 C 255.033 162.773,257.733 162.772,259.318 162.697 C 260.903 162.621,259.500 162.559,256.200 162.560 C 252.900 162.561,251.603 162.622,253.318 162.698 M287.500 162.700 C 294.375 162.761,305.625 162.761,312.500 162.700 C 319.375 162.638,313.750 162.588,300.000 162.588 C 286.250 162.588,280.625 162.638,287.500 162.700 M84.300 212.700 C 89.415 212.763,97.785 212.763,102.900 212.700 C 108.015 212.636,103.830 212.585,93.600 212.585 C 83.370 212.585,79.185 212.636,84.300 212.700 M131.189 212.694 L 137.179 212.821 137.306 218.811 L 137.432 224.801 137.416 218.700 L 137.400 212.600 131.300 212.584 L 125.199 212.568 131.189 212.694 M254.900 212.700 C 264.305 212.760,279.695 212.760,289.100 212.700 C 298.505 212.640,290.810 212.591,272.000 212.591 C 253.190 212.591,245.495 212.640,254.900 212.700 M322.118 212.698 C 323.833 212.773,326.533 212.772,328.118 212.697 C 329.703 212.621,328.300 212.559,325.000 212.560 C 321.700 212.561,320.403 212.622,322.118 212.698 M287.360 243.800 C 287.361 247.100,287.422 248.397,287.498 246.682 C 287.573 244.967,287.572 242.267,287.497 240.682 C 287.421 239.097,287.359 240.500,287.360 243.800 M268.800 336.000 C 268.800 352.280,268.937 365.600,269.104 365.600 C 269.271 365.600,272.646 362.354,276.604 358.386 C 287.820 347.141,287.459 347.132,299.174 358.934 C 302.789 362.576,305.894 365.465,306.074 365.355 C 306.253 365.244,306.400 351.933,306.400 335.776 L 306.400 306.400 287.600 306.400 L 268.800 306.400 268.800 336.000 " stroke="none" fill="#eb5343" fill-rule="evenodd"></path><path id="path3" d="M192.562 12.462 C 192.385 12.748,192.452 12.815,192.738 12.638 C 193.080 12.427,193.200 14.023,193.200 18.776 L 193.200 25.200 200.000 25.200 L 206.800 25.200 206.800 18.600 L 206.800 12.000 199.824 12.000 C 194.982 12.000,192.760 12.141,192.562 12.462 M173.200 16.400 C 173.200 16.620,172.660 16.800,172.000 16.800 C 171.340 16.800,170.800 16.980,170.800 17.200 C 170.800 17.420,170.440 17.600,170.000 17.600 C 169.560 17.600,169.200 17.780,169.200 18.000 C 169.200 18.220,168.750 18.400,168.200 18.400 C 167.650 18.400,167.200 18.580,167.200 18.800 C 167.200 19.020,166.750 19.200,166.200 19.200 C 165.650 19.200,165.200 19.380,165.200 19.600 C 165.200 19.820,164.769 20.000,164.243 20.000 C 163.716 20.000,163.176 20.285,163.043 20.633 C 162.669 21.608,162.755 22.800,163.200 22.800 C 163.420 22.800,163.600 23.340,163.600 24.000 C 163.600 24.660,163.780 25.200,164.000 25.200 C 164.220 25.200,164.400 25.560,164.400 26.000 C 164.400 26.440,164.580 26.800,164.800 26.800 C 165.020 26.800,165.203 27.385,165.206 28.100 C 165.211 29.132,165.301 29.276,165.641 28.800 C 165.985 28.319,166.030 28.380,165.870 29.107 C 165.761 29.606,165.925 30.268,166.236 30.578 C 166.546 30.889,166.800 31.361,166.800 31.627 C 166.800 31.894,167.115 32.351,167.500 32.643 C 168.319 33.265,169.761 33.384,169.400 32.800 C 169.264 32.580,169.523 32.400,169.976 32.400 C 170.429 32.400,170.800 32.201,170.800 31.957 C 170.800 31.714,171.065 31.616,171.388 31.740 C 171.712 31.864,172.251 31.692,172.585 31.358 C 172.920 31.023,173.377 30.862,173.600 31.000 C 173.823 31.138,174.114 30.969,174.246 30.625 C 174.387 30.258,174.962 30.000,175.643 30.000 C 176.279 30.000,176.800 29.820,176.800 29.600 C 176.800 29.380,177.160 29.200,177.600 29.200 C 178.040 29.200,178.400 29.020,178.400 28.800 C 178.400 28.580,178.760 28.400,179.200 28.400 C 179.644 28.400,180.000 28.133,180.000 27.800 C 180.000 27.470,179.843 27.200,179.650 27.200 C 179.458 27.200,179.300 26.713,179.300 26.117 C 179.300 25.521,179.097 24.966,178.850 24.883 C 178.603 24.801,178.400 24.388,178.400 23.967 C 178.400 23.545,178.220 23.200,178.000 23.200 C 177.780 23.200,177.600 22.604,177.600 21.875 C 177.600 21.104,177.266 20.192,176.800 19.692 C 176.360 19.220,176.000 18.556,176.000 18.217 C 176.000 17.878,175.820 17.600,175.600 17.600 C 175.380 17.600,175.200 17.240,175.200 16.800 C 175.200 16.213,174.933 16.000,174.200 16.000 C 173.650 16.000,173.200 16.180,173.200 16.400 M224.800 16.600 C 224.800 16.930,224.620 17.200,224.400 17.200 C 224.180 17.200,224.000 17.650,224.000 18.200 C 224.000 18.750,223.820 19.200,223.600 19.200 C 223.380 19.200,223.200 19.560,223.200 20.000 C 223.200 20.440,223.020 20.800,222.800 20.800 C 222.580 20.800,222.400 21.340,222.400 22.000 C 222.400 22.660,222.220 23.200,222.000 23.200 C 221.780 23.200,221.600 23.483,221.600 23.829 C 221.600 24.174,221.346 24.711,221.036 25.022 C 220.725 25.332,220.561 25.994,220.670 26.493 C 220.830 27.220,220.785 27.281,220.441 26.800 C 220.094 26.315,220.011 26.410,220.006 27.300 C 220.001 28.135,220.192 28.400,220.800 28.400 C 221.240 28.400,221.600 28.580,221.600 28.800 C 221.600 29.020,221.960 29.200,222.400 29.200 C 222.840 29.200,223.200 29.380,223.200 29.600 C 223.200 29.820,223.721 30.000,224.357 30.000 C 225.011 30.000,225.613 30.258,225.742 30.593 C 225.872 30.931,226.235 31.085,226.585 30.950 C 226.923 30.821,227.200 30.914,227.200 31.157 C 227.200 31.401,227.470 31.600,227.800 31.600 C 228.130 31.600,228.403 31.825,228.406 32.100 C 228.410 32.433,228.542 32.400,228.800 32.000 C 229.058 31.600,229.190 31.567,229.194 31.900 C 229.197 32.175,229.650 32.400,230.200 32.400 C 230.750 32.400,231.200 32.580,231.200 32.800 C 231.200 33.020,231.393 33.200,231.629 33.200 C 232.257 33.200,233.200 32.151,233.200 31.452 C 233.200 31.119,233.380 30.736,233.600 30.600 C 233.820 30.464,234.000 29.913,234.000 29.376 C 234.000 28.839,234.180 28.400,234.400 28.400 C 234.620 28.400,234.800 28.040,234.800 27.600 C 234.800 27.160,234.980 26.800,235.200 26.800 C 235.420 26.800,235.600 26.530,235.600 26.200 C 235.600 25.870,235.780 25.600,236.000 25.600 C 236.220 25.600,236.400 24.989,236.400 24.243 C 236.400 23.410,236.630 22.797,236.996 22.657 C 237.448 22.483,237.502 22.195,237.221 21.455 C 237.018 20.920,236.960 20.374,237.092 20.241 C 237.225 20.109,236.763 20.000,236.067 20.000 C 235.370 20.000,234.800 19.820,234.800 19.600 C 234.800 19.380,234.440 19.200,234.000 19.200 C 233.560 19.200,233.200 19.020,233.200 18.800 C 233.200 18.580,232.615 18.397,231.900 18.394 C 230.914 18.389,230.745 18.294,231.200 18.000 C 231.660 17.703,231.518 17.611,230.588 17.606 C 229.845 17.602,229.156 17.294,228.806 16.809 C 228.387 16.227,228.154 16.148,227.924 16.509 C 227.679 16.894,227.611 16.892,227.606 16.500 C 227.602 16.196,227.050 16.000,226.200 16.000 C 225.222 16.000,224.800 16.181,224.800 16.600 M144.100 33.039 C 142.945 34.244,142.000 35.415,142.000 35.641 C 142.000 35.867,141.100 36.929,140.000 38.000 C 137.478 40.456,137.496 40.750,140.330 43.532 C 141.612 44.789,142.583 46.051,142.488 46.336 C 142.393 46.620,142.695 46.952,143.158 47.073 C 143.679 47.209,144.002 47.619,144.006 48.147 C 144.010 48.709,144.118 48.833,144.324 48.509 C 144.554 48.148,144.787 48.227,145.206 48.809 C 146.322 50.357,147.413 49.796,151.773 45.436 C 155.549 41.660,157.173 39.205,155.700 39.500 C 155.425 39.555,155.200 39.300,155.200 38.933 C 155.200 38.567,155.092 38.375,154.959 38.508 C 154.827 38.640,153.124 37.140,151.174 35.174 C 149.225 33.208,147.369 31.600,147.049 31.600 C 146.729 31.600,146.407 31.431,146.333 31.224 C 146.260 31.018,145.255 31.834,144.100 33.039 M251.600 32.400 C 251.283 32.840,250.783 33.200,250.488 33.200 C 250.194 33.200,250.026 33.335,250.116 33.500 C 250.331 33.896,244.542 39.609,244.236 39.303 C 244.106 39.173,244.000 39.757,244.000 40.600 C 244.000 41.443,244.108 42.025,244.240 41.893 C 244.372 41.761,246.256 43.441,248.426 45.626 C 252.560 49.790,253.681 50.353,254.785 48.821 C 255.093 48.393,255.493 48.134,255.673 48.245 C 255.853 48.356,256.000 48.167,256.000 47.824 C 256.000 47.481,256.225 47.245,256.500 47.300 C 256.775 47.355,256.955 47.175,256.900 46.900 C 256.845 46.625,257.081 46.400,257.424 46.400 C 257.767 46.400,257.945 46.234,257.819 46.031 C 257.566 45.621,261.315 41.600,261.950 41.600 C 262.998 41.600,262.614 40.712,260.694 38.690 C 259.542 37.478,257.557 35.386,256.282 34.043 C 253.799 31.426,252.604 31.007,251.600 32.400 M190.600 43.600 C 190.464 43.820,189.463 44.000,188.376 44.000 C 187.289 44.000,186.400 44.180,186.400 44.400 C 186.400 44.620,185.781 44.800,185.024 44.800 C 184.267 44.800,183.536 44.980,183.400 45.200 C 183.264 45.420,182.724 45.600,182.200 45.600 C 181.676 45.600,181.136 45.780,181.000 46.000 C 180.864 46.220,180.420 46.400,180.014 46.400 C 179.216 46.400,175.885 48.009,175.667 48.500 C 175.593 48.665,175.188 48.800,174.767 48.800 C 174.345 48.800,174.000 48.980,174.000 49.200 C 174.000 49.420,173.640 49.600,173.200 49.600 C 172.760 49.600,172.400 49.780,172.400 50.000 C 172.400 50.220,172.040 50.400,171.600 50.400 C 171.160 50.400,170.800 50.580,170.800 50.800 C 170.800 51.020,170.564 51.200,170.275 51.200 C 169.987 51.200,169.364 51.560,168.892 52.000 C 168.420 52.440,167.828 52.800,167.577 52.800 C 167.326 52.800,166.617 53.340,166.000 54.000 C 165.383 54.660,164.677 55.200,164.431 55.200 C 163.868 55.200,155.200 63.834,155.200 64.395 C 155.200 64.622,154.660 65.372,154.000 66.063 C 153.340 66.754,152.800 67.479,152.800 67.676 C 152.800 67.873,152.440 68.420,152.000 68.892 C 151.560 69.364,151.200 69.987,151.200 70.275 C 151.200 70.564,151.020 70.800,150.800 70.800 C 150.580 70.800,150.400 71.160,150.400 71.600 C 150.400 72.040,150.220 72.400,150.000 72.400 C 149.780 72.400,149.600 72.745,149.600 73.167 C 149.600 73.588,149.465 73.993,149.300 74.067 C 148.813 74.283,146.400 79.248,146.400 80.033 C 146.400 80.429,146.220 80.864,146.000 81.000 C 145.780 81.136,145.600 81.676,145.600 82.200 C 145.600 82.724,145.420 83.264,145.200 83.400 C 144.980 83.536,144.800 84.267,144.800 85.024 C 144.800 85.781,144.620 86.400,144.400 86.400 C 144.180 86.400,144.000 87.300,144.000 88.400 C 144.000 89.500,143.820 90.400,143.600 90.400 C 143.347 90.400,143.200 93.267,143.200 98.200 L 143.200 106.000 101.395 106.000 C 58.734 106.000,58.834 105.997,57.415 107.415 C 56.616 108.215,56.000 109.598,56.000 110.595 C 56.000 111.148,55.820 111.600,55.600 111.600 C 55.365 111.600,55.200 113.000,55.200 115.000 C 55.200 117.000,55.035 118.400,54.800 118.400 C 54.563 118.400,54.400 119.867,54.400 122.000 C 54.400 124.133,54.237 125.600,54.000 125.600 C 53.769 125.600,53.600 126.859,53.600 128.576 C 53.600 130.213,53.420 131.664,53.200 131.800 C 52.980 131.936,52.800 133.567,52.800 135.424 C 52.800 137.408,52.635 138.800,52.400 138.800 C 52.165 138.800,52.000 140.200,52.000 142.200 C 52.000 144.200,51.835 145.600,51.600 145.600 C 51.367 145.600,51.200 146.925,51.200 148.776 C 51.200 150.523,51.020 152.064,50.800 152.200 C 50.580 152.336,50.400 153.967,50.400 155.824 C 50.400 157.808,50.235 159.200,50.000 159.200 C 49.765 159.200,49.600 160.600,49.600 162.600 C 49.600 164.600,49.435 166.000,49.200 166.000 C 48.967 166.000,48.800 167.325,48.800 169.176 C 48.800 170.923,48.620 172.464,48.400 172.600 C 48.180 172.736,48.000 174.266,48.000 176.000 C 48.000 177.734,47.820 179.264,47.600 179.400 C 47.380 179.536,47.200 181.167,47.200 183.024 C 47.200 185.008,47.035 186.400,46.800 186.400 C 46.567 186.400,46.400 187.725,46.400 189.576 C 46.400 191.323,46.220 192.864,46.000 193.000 C 45.780 193.136,45.600 194.666,45.600 196.400 C 45.600 198.134,45.420 199.664,45.200 199.800 C 44.980 199.936,44.800 201.567,44.800 203.424 C 44.800 205.281,44.633 206.800,44.429 206.800 C 44.226 206.800,43.963 208.285,43.846 210.100 C 43.729 211.915,43.452 214.930,43.231 216.800 C 43.010 218.670,42.646 222.270,42.422 224.800 C 42.198 227.330,41.831 230.604,41.607 232.077 C 41.383 233.549,41.200 236.024,41.200 237.577 C 41.200 239.192,41.029 240.400,40.800 240.400 C 40.565 240.400,40.400 241.800,40.400 243.800 C 40.400 245.800,40.235 247.200,40.000 247.200 C 39.767 247.200,39.600 248.525,39.600 250.376 C 39.600 252.123,39.420 253.664,39.200 253.800 C 38.980 253.936,38.800 255.466,38.800 257.200 C 38.800 258.934,38.620 260.464,38.400 260.600 C 38.180 260.736,38.000 262.367,38.000 264.224 C 38.000 266.208,37.835 267.600,37.600 267.600 C 37.353 267.600,37.200 269.667,37.200 273.000 C 37.200 276.333,37.353 278.400,37.600 278.400 C 37.820 278.400,38.000 278.682,38.000 279.026 C 38.000 279.370,38.855 280.495,39.900 281.526 C 40.945 282.557,42.156 284.075,42.591 284.900 C 43.026 285.725,43.476 286.401,43.591 286.401 C 43.706 286.402,44.250 287.392,44.800 288.600 C 45.350 289.808,45.935 290.798,46.100 290.799 C 46.265 290.799,46.400 291.160,46.400 291.600 C 46.400 292.040,46.580 292.400,46.800 292.400 C 47.020 292.400,47.200 292.940,47.200 293.600 C 47.200 294.260,47.380 294.800,47.600 294.800 C 47.820 294.800,48.000 295.340,48.000 296.000 C 48.000 296.660,48.180 297.200,48.400 297.200 C 48.620 297.200,48.800 298.100,48.800 299.200 C 48.800 300.300,48.980 301.200,49.200 301.200 C 49.736 301.200,49.736 311.069,49.200 311.400 C 48.980 311.536,48.800 312.447,48.800 313.424 C 48.800 314.401,48.620 315.200,48.400 315.200 C 48.180 315.200,48.000 315.740,48.000 316.400 C 48.000 317.060,47.820 317.600,47.600 317.600 C 47.380 317.600,47.200 318.140,47.200 318.800 C 47.200 319.460,47.020 320.000,46.800 320.000 C 46.580 320.000,46.400 320.360,46.400 320.800 C 46.400 321.240,46.220 321.600,46.000 321.600 C 45.780 321.600,45.600 321.960,45.600 322.400 C 45.600 322.840,45.420 323.200,45.200 323.200 C 44.980 323.200,44.800 323.560,44.800 324.000 C 44.800 324.440,44.620 324.800,44.400 324.800 C 44.180 324.800,44.000 324.992,44.000 325.227 C 44.000 325.461,43.550 326.243,43.000 326.964 C 42.450 327.686,42.000 328.405,42.000 328.564 C 42.000 328.722,41.100 329.729,40.000 330.800 C 38.900 331.871,38.000 333.015,38.000 333.341 C 38.000 333.667,37.802 333.999,37.560 334.080 C 35.723 334.692,37.785 343.200,39.771 343.200 C 40.117 343.200,40.400 343.380,40.400 343.600 C 40.400 343.865,64.467 344.000,111.800 344.000 C 159.133 344.000,183.200 343.865,183.200 343.600 C 183.200 343.380,183.920 343.200,184.800 343.200 C 185.680 343.200,186.400 343.020,186.400 342.800 C 186.400 342.580,186.940 342.400,187.600 342.400 C 188.260 342.400,188.800 342.220,188.800 342.000 C 188.800 341.780,189.125 341.600,189.521 341.600 C 190.348 341.600,194.532 339.612,194.733 339.124 C 194.807 338.946,195.077 338.800,195.333 338.800 C 195.590 338.799,196.323 338.349,196.962 337.800 C 197.601 337.250,198.264 336.800,198.434 336.800 C 198.604 336.800,199.026 336.517,199.371 336.171 C 199.943 335.600,200.057 335.600,200.629 336.171 C 200.974 336.517,201.396 336.800,201.566 336.800 C 201.736 336.800,202.399 337.250,203.038 337.800 C 203.677 338.349,204.425 338.799,204.700 338.800 C 204.975 338.800,205.200 338.980,205.200 339.200 C 205.200 339.420,205.483 339.600,205.829 339.600 C 206.174 339.600,206.733 339.876,207.070 340.213 C 207.407 340.549,208.474 341.037,209.441 341.295 C 210.408 341.554,211.200 341.909,211.200 342.083 C 211.200 342.257,211.740 342.400,212.400 342.400 C 213.060 342.400,213.600 342.580,213.600 342.800 C 213.600 343.020,214.320 343.200,215.200 343.200 C 216.080 343.200,216.800 343.380,216.800 343.600 C 216.800 343.861,223.600 344.000,236.400 344.000 L 256.000 344.000 256.000 364.400 C 256.000 377.733,256.139 384.800,256.400 384.800 C 256.620 384.800,256.800 385.083,256.800 385.429 C 256.800 386.120,257.369 386.737,258.710 387.500 C 259.767 388.101,266.000 388.186,266.000 387.600 C 266.000 387.380,266.238 387.200,266.528 387.200 C 266.819 387.200,270.027 384.185,273.658 380.500 C 277.289 376.815,281.894 372.200,283.893 370.245 L 287.526 366.690 297.263 376.448 C 309.274 388.486,308.622 388.000,312.762 388.000 C 314.543 388.000,316.000 387.863,316.000 387.695 C 316.000 387.527,316.405 387.212,316.900 386.995 C 317.395 386.778,317.978 386.195,318.195 385.700 C 318.412 385.205,318.727 384.800,318.895 384.800 C 319.063 384.800,319.200 375.620,319.200 364.400 L 319.200 344.000 339.400 344.000 C 352.600 344.000,359.600 343.861,359.600 343.600 C 359.600 343.380,359.883 343.200,360.229 343.200 C 360.920 343.200,361.537 342.631,362.300 341.290 C 362.901 340.233,362.986 334.000,362.400 334.000 C 362.180 334.000,362.000 333.718,362.000 333.374 C 362.000 333.030,361.100 331.871,360.000 330.800 C 358.900 329.729,358.000 328.722,358.000 328.564 C 358.000 328.405,357.550 327.686,357.000 326.964 C 356.450 326.243,356.000 325.461,356.000 325.227 C 356.000 324.992,355.820 324.800,355.600 324.800 C 355.380 324.800,355.200 324.440,355.200 324.000 C 355.200 323.560,355.020 323.200,354.800 323.200 C 354.580 323.200,354.400 322.840,354.400 322.400 C 354.400 321.960,354.220 321.600,354.000 321.600 C 353.780 321.600,353.600 321.240,353.600 320.800 C 353.600 320.360,353.420 320.000,353.200 320.000 C 352.980 320.000,352.800 319.460,352.800 318.800 C 352.800 318.140,352.620 317.600,352.400 317.600 C 352.180 317.600,352.000 317.060,352.000 316.400 C 352.000 315.740,351.820 315.200,351.600 315.200 C 351.380 315.200,351.200 314.401,351.200 313.424 C 351.200 312.447,351.020 311.536,350.800 311.400 C 350.568 311.257,350.400 309.063,350.400 306.176 C 350.400 303.125,350.555 301.200,350.800 301.200 C 351.020 301.200,351.200 300.300,351.200 299.200 C 351.200 298.100,351.380 297.200,351.600 297.200 C 351.820 297.200,352.000 296.660,352.000 296.000 C 352.000 295.340,352.180 294.800,352.400 294.800 C 352.620 294.800,352.800 294.260,352.800 293.600 C 352.800 292.940,352.980 292.400,353.200 292.400 C 353.420 292.400,353.600 292.040,353.600 291.600 C 353.600 291.160,353.780 290.800,354.000 290.800 C 354.220 290.800,354.400 290.440,354.400 290.000 C 354.400 289.560,354.546 289.200,354.725 289.200 C 354.904 289.200,355.298 288.570,355.600 287.800 C 355.902 287.030,356.255 286.400,356.384 286.400 C 356.513 286.400,356.974 285.725,357.409 284.900 C 357.844 284.075,359.055 282.557,360.100 281.526 C 361.145 280.495,362.000 279.370,362.000 279.026 C 362.000 278.682,362.180 278.400,362.400 278.400 C 362.647 278.400,362.800 276.333,362.800 273.000 C 362.800 269.667,362.647 267.600,362.400 267.600 C 362.165 267.600,362.000 266.200,362.000 264.200 C 362.000 262.200,361.835 260.800,361.600 260.800 C 361.367 260.800,361.200 259.475,361.200 257.624 C 361.200 255.877,361.020 254.336,360.800 254.200 C 360.580 254.064,360.400 252.433,360.400 250.576 C 360.400 248.592,360.235 247.200,360.000 247.200 C 359.765 247.200,359.600 245.800,359.600 243.800 C 359.600 241.800,359.435 240.400,359.200 240.400 C 358.975 240.400,358.800 239.276,358.800 237.829 C 358.800 236.415,358.616 233.935,358.391 232.319 C 357.930 229.003,357.226 221.697,356.934 217.200 C 356.827 215.550,356.573 214.029,356.370 213.820 C 356.166 213.611,356.000 212.072,356.000 210.400 C 356.000 208.728,355.833 207.189,355.629 206.980 C 355.425 206.771,355.157 205.160,355.034 203.400 C 354.447 195.012,354.315 193.774,353.970 193.420 C 353.766 193.211,353.600 191.546,353.600 189.720 C 353.600 187.773,353.435 186.400,353.200 186.400 C 352.965 186.400,352.800 185.008,352.800 183.024 C 352.800 181.167,352.620 179.536,352.400 179.400 C 352.180 179.264,352.000 177.824,352.000 176.200 C 352.000 174.576,351.820 173.136,351.600 173.000 C 351.380 172.864,351.200 171.233,351.200 169.376 C 351.200 167.392,351.035 166.000,350.800 166.000 C 350.565 166.000,350.400 164.600,350.400 162.600 C 350.400 160.600,350.235 159.200,350.000 159.200 C 349.767 159.200,349.600 157.875,349.600 156.024 C 349.600 154.277,349.420 152.736,349.200 152.600 C 348.980 152.464,348.800 150.833,348.800 148.976 C 348.800 146.992,348.635 145.600,348.400 145.600 C 348.165 145.600,348.000 144.200,348.000 142.200 C 348.000 140.200,347.835 138.800,347.600 138.800 C 347.367 138.800,347.200 137.475,347.200 135.624 C 347.200 133.877,347.020 132.336,346.800 132.200 C 346.580 132.064,346.400 130.523,346.400 128.776 C 346.400 126.925,346.233 125.600,346.000 125.600 C 345.763 125.600,345.600 124.133,345.600 122.000 C 345.600 119.867,345.437 118.400,345.200 118.400 C 344.967 118.400,344.800 117.075,344.800 115.224 C 344.800 113.477,344.620 111.936,344.400 111.800 C 344.180 111.664,344.000 111.111,344.000 110.571 C 344.000 109.595,343.379 108.209,342.585 107.415 C 341.166 105.997,341.266 106.000,298.605 106.000 L 256.800 106.000 256.800 98.424 C 256.800 93.804,256.644 90.751,256.400 90.600 C 256.180 90.464,256.000 89.463,256.000 88.376 C 256.000 87.289,255.820 86.400,255.600 86.400 C 255.380 86.400,255.200 85.781,255.200 85.024 C 255.200 84.267,255.020 83.536,254.800 83.400 C 254.580 83.264,254.400 82.724,254.400 82.200 C 254.400 81.676,254.220 81.136,254.000 81.000 C 253.780 80.864,253.600 80.313,253.600 79.776 C 253.600 79.239,253.420 78.800,253.200 78.800 C 252.980 78.800,252.800 78.566,252.800 78.280 C 252.800 77.544,251.859 75.607,251.500 75.603 C 251.335 75.601,251.200 75.240,251.200 74.800 C 251.200 74.360,251.020 74.000,250.800 74.000 C 250.580 74.000,250.400 73.640,250.400 73.200 C 250.400 72.760,250.220 72.400,250.000 72.400 C 249.780 72.400,249.600 72.040,249.600 71.600 C 249.600 71.160,249.420 70.800,249.200 70.800 C 248.980 70.800,248.800 70.564,248.800 70.275 C 248.800 69.987,248.440 69.364,248.000 68.892 C 247.560 68.420,247.200 67.828,247.200 67.577 C 247.200 67.326,246.660 66.617,246.000 66.000 C 245.340 65.383,244.800 64.677,244.800 64.431 C 244.800 63.845,236.155 55.200,235.569 55.200 C 235.323 55.200,234.617 54.660,234.000 54.000 C 233.383 53.340,232.674 52.800,232.423 52.800 C 232.172 52.800,231.580 52.440,231.108 52.000 C 230.636 51.560,230.013 51.200,229.725 51.200 C 229.436 51.200,229.200 51.020,229.200 50.800 C 229.200 50.580,228.840 50.400,228.400 50.400 C 227.960 50.400,227.600 50.220,227.600 50.000 C 227.600 49.780,227.255 49.600,226.833 49.600 C 226.412 49.600,226.007 49.465,225.933 49.300 C 225.717 48.813,220.752 46.400,219.967 46.400 C 219.571 46.400,219.136 46.220,219.000 46.000 C 218.864 45.780,218.324 45.600,217.800 45.600 C 217.276 45.600,216.736 45.420,216.600 45.200 C 216.464 44.980,215.733 44.800,214.976 44.800 C 214.219 44.800,213.600 44.620,213.600 44.400 C 213.600 44.180,212.711 44.000,211.624 44.000 C 210.537 44.000,209.536 43.820,209.400 43.600 C 209.247 43.352,205.670 43.200,200.000 43.200 C 194.330 43.200,190.753 43.352,190.600 43.600 M208.400 57.081 C 243.734 63.582,255.789 107.460,229.126 132.517 C 223.673 137.642,223.792 137.403,223.204 144.400 C 222.955 147.370,222.582 151.224,222.375 152.964 C 222.169 154.704,222.000 156.976,222.000 158.014 C 222.000 159.051,221.887 160.466,221.748 161.158 L 221.497 162.417 213.848 162.308 L 206.200 162.200 206.096 145.016 L 205.991 127.833 214.481 119.309 L 222.971 110.786 218.793 106.593 C 216.495 104.287,214.433 102.400,214.211 102.400 C 213.990 102.400,210.701 105.503,206.904 109.296 L 200.000 116.191 193.096 109.296 C 189.299 105.503,186.010 102.400,185.789 102.400 C 185.567 102.400,183.505 104.287,181.207 106.593 L 177.029 110.786 185.519 119.309 L 194.009 127.833 193.904 145.016 L 193.800 162.200 186.152 162.308 L 178.503 162.417 178.252 161.158 C 178.113 160.466,178.000 159.051,178.000 158.014 C 178.000 156.976,177.830 154.704,177.622 152.964 C 177.415 151.224,177.029 147.280,176.765 144.200 C 176.219 137.831,175.994 137.216,173.331 134.826 C 168.505 130.496,165.792 127.576,163.771 124.539 C 142.108 91.982,169.886 49.996,208.400 57.081 M126.047 57.100 C 126.196 58.041,125.949 59.216,125.642 59.026 C 125.445 58.904,125.185 59.062,125.064 59.376 C 124.944 59.691,125.060 60.050,125.322 60.174 C 125.686 60.346,125.680 60.456,125.300 60.633 C 125.025 60.762,124.800 61.225,124.800 61.662 C 124.800 62.099,124.528 62.729,124.196 63.061 C 123.864 63.393,123.695 63.830,123.820 64.032 C 123.945 64.235,123.857 64.400,123.624 64.400 C 123.391 64.400,123.200 64.839,123.200 65.376 C 123.200 65.913,123.020 66.464,122.800 66.600 C 121.898 67.157,122.335 69.539,123.300 69.328 C 124.023 69.169,124.082 69.215,123.600 69.559 C 123.124 69.899,123.268 69.989,124.300 69.994 C 125.015 69.997,125.600 70.180,125.600 70.400 C 125.600 70.620,125.949 70.800,126.376 70.800 C 126.803 70.800,127.264 70.980,127.400 71.200 C 127.536 71.420,127.997 71.600,128.424 71.600 C 128.851 71.600,129.200 71.780,129.200 72.000 C 129.200 72.220,129.622 72.400,130.138 72.400 C 130.654 72.400,131.402 72.760,131.800 73.200 C 132.872 74.384,134.800 74.283,134.800 73.043 C 134.800 72.516,135.067 71.983,135.393 71.858 C 135.731 71.728,135.885 71.365,135.750 71.015 C 135.621 70.677,135.714 70.400,135.957 70.400 C 136.201 70.400,136.400 69.961,136.400 69.424 C 136.400 68.887,136.580 68.336,136.800 68.200 C 137.020 68.064,137.200 67.686,137.200 67.360 C 137.200 67.033,137.560 66.380,138.000 65.908 C 138.440 65.436,138.800 64.532,138.800 63.901 C 138.800 63.187,138.962 62.853,139.228 63.018 C 139.509 63.191,139.612 62.819,139.528 61.941 C 139.419 60.795,139.232 60.581,138.239 60.468 C 137.600 60.395,136.812 60.069,136.487 59.745 C 136.163 59.420,135.650 59.249,135.348 59.364 C 135.047 59.480,134.800 59.380,134.800 59.141 C 134.800 58.902,134.440 58.801,134.000 58.916 C 133.560 59.031,133.200 58.962,133.200 58.763 C 133.200 58.563,132.851 58.400,132.424 58.400 C 131.997 58.400,131.536 58.220,131.400 58.000 C 131.264 57.780,130.713 57.600,130.176 57.600 C 129.639 57.600,129.200 57.420,129.200 57.200 C 129.200 56.980,128.480 56.800,127.600 56.800 C 126.720 56.800,126.021 56.935,126.047 57.100 M270.800 57.200 C 270.800 57.420,270.350 57.600,269.800 57.600 C 269.250 57.600,268.800 57.780,268.800 58.000 C 268.800 58.220,268.350 58.400,267.800 58.400 C 267.250 58.400,266.797 58.625,266.794 58.900 C 266.789 59.277,266.705 59.270,266.452 58.870 C 266.179 58.441,265.998 58.459,265.487 58.970 C 265.140 59.317,264.585 59.600,264.252 59.600 C 263.919 59.600,263.536 59.780,263.400 60.000 C 263.264 60.220,262.843 60.400,262.465 60.400 C 261.635 60.400,260.533 61.603,260.533 62.509 C 260.533 62.870,260.683 63.072,260.867 62.959 C 261.050 62.845,261.223 63.123,261.250 63.576 C 261.330 64.899,261.383 65.116,261.700 65.433 C 261.865 65.598,262.003 66.198,262.006 66.767 C 262.011 67.581,262.095 67.673,262.400 67.200 C 262.714 66.715,262.789 66.772,262.794 67.500 C 262.797 67.995,262.980 68.400,263.200 68.400 C 263.420 68.400,263.600 68.749,263.600 69.176 C 263.600 69.603,263.780 70.064,264.000 70.200 C 264.220 70.336,264.400 70.782,264.400 71.190 C 264.400 71.599,264.625 72.038,264.900 72.167 C 265.290 72.349,265.293 72.450,264.912 72.629 C 264.530 72.809,264.529 72.972,264.906 73.376 C 265.466 73.975,267.576 73.438,270.495 71.953 C 270.877 71.759,271.462 71.600,271.795 71.600 C 272.128 71.600,272.400 71.440,272.400 71.244 C 272.400 71.049,272.625 70.897,272.900 70.907 C 274.646 70.972,275.381 70.776,274.800 70.400 C 274.349 70.109,274.548 70.009,275.600 70.000 C 276.652 69.991,276.851 69.891,276.400 69.600 C 275.915 69.286,275.972 69.211,276.700 69.206 C 277.432 69.201,277.600 68.976,277.600 68.000 C 277.600 67.340,277.420 66.800,277.200 66.800 C 276.980 66.800,276.800 66.260,276.800 65.600 C 276.800 64.940,276.620 64.400,276.400 64.400 C 276.180 64.400,276.000 64.040,276.000 63.600 C 276.000 63.160,275.820 62.800,275.600 62.800 C 275.380 62.800,275.200 62.350,275.200 61.800 C 275.200 61.250,275.017 60.800,274.792 60.800 C 274.551 60.800,274.493 60.367,274.651 59.740 C 274.822 59.060,274.770 58.771,274.507 58.934 C 274.277 59.076,273.993 58.664,273.859 57.994 C 273.621 56.806,270.800 56.074,270.800 57.200 M148.233 121.400 C 151.074 128.508,155.597 135.036,161.699 140.834 L 164.471 143.468 164.845 147.834 C 165.560 156.173,166.710 169.401,167.209 175.000 C 167.424 177.420,167.776 181.470,167.992 184.000 C 168.707 192.404,169.160 195.770,170.012 199.000 C 170.476 200.760,171.012 202.830,171.204 203.600 C 172.538 208.958,178.030 216.259,183.372 219.776 C 200.377 230.972,222.964 222.632,228.803 203.000 C 230.647 196.802,231.057 194.687,231.594 188.600 C 231.827 185.960,232.187 181.910,232.394 179.600 C 232.601 177.290,232.962 173.150,233.197 170.400 C 233.432 167.650,233.793 163.600,234.000 161.400 C 234.207 159.200,234.570 155.150,234.807 152.400 C 235.663 142.465,235.417 143.402,237.664 141.508 C 242.885 137.104,248.941 128.472,251.767 121.400 L 252.727 119.000 292.318 118.898 L 331.910 118.796 332.194 120.298 C 332.350 121.124,332.634 123.330,332.826 125.200 C 333.017 127.070,333.360 130.175,333.587 132.100 C 333.814 134.025,334.186 137.175,334.413 139.100 C 334.640 141.025,335.011 144.220,335.236 146.200 C 335.462 148.180,335.806 151.150,336.000 152.800 C 336.194 154.450,336.544 157.465,336.777 159.500 C 337.010 161.535,337.390 164.865,337.623 166.900 C 337.856 168.935,338.206 171.950,338.400 173.600 C 338.594 175.250,338.938 178.220,339.164 180.200 C 339.389 182.180,339.760 185.375,339.987 187.300 C 340.561 192.164,341.232 198.019,342.383 208.200 C 342.581 209.960,343.122 214.640,343.583 218.600 C 344.045 222.560,344.878 229.760,345.435 234.600 C 345.992 239.440,346.619 244.840,346.828 246.600 C 347.037 248.360,347.391 251.420,347.614 253.400 C 347.838 255.380,348.199 258.530,348.416 260.400 C 348.633 262.270,348.924 264.925,349.063 266.300 L 349.316 268.800 285.635 268.800 C 243.488 268.800,221.320 268.939,220.077 269.211 C 219.045 269.438,217.300 269.811,216.200 270.041 C 211.990 270.921,206.720 273.417,202.699 276.437 L 199.997 278.466 197.521 276.604 C 193.023 273.223,188.428 271.026,183.800 270.044 C 182.480 269.763,180.645 269.369,179.723 269.167 C 178.744 268.953,151.526 268.800,114.368 268.800 L 50.690 268.800 50.925 266.300 C 51.154 263.856,51.582 260.047,52.397 253.200 C 52.619 251.330,53.426 244.310,54.189 237.600 C 54.952 230.890,55.954 222.160,56.416 218.200 C 56.878 214.240,57.423 209.515,57.628 207.700 C 57.833 205.885,58.186 202.825,58.413 200.900 C 58.640 198.975,59.011 195.780,59.236 193.800 C 59.462 191.820,59.806 188.850,60.000 187.200 C 60.194 185.550,60.544 182.535,60.777 180.500 C 61.010 178.465,61.390 175.135,61.623 173.100 C 61.856 171.065,62.206 168.050,62.400 166.400 C 62.594 164.750,62.938 161.780,63.164 159.800 C 63.389 157.820,63.766 154.580,64.000 152.600 C 64.234 150.620,64.611 147.380,64.836 145.400 C 65.062 143.420,65.406 140.450,65.600 138.800 C 66.024 135.202,66.635 129.850,67.154 125.177 C 67.364 123.294,67.660 121.088,67.812 120.275 L 68.090 118.796 107.682 118.898 L 147.273 119.000 148.233 121.400 M86.000 131.667 C 82.573 132.633,81.572 134.700,80.802 142.400 C 80.549 144.930,80.173 148.350,79.967 150.000 C 79.657 152.475,77.560 171.395,75.977 186.000 C 74.929 195.668,74.984 196.193,77.262 198.245 C 79.185 199.976,79.626 200.000,109.473 200.000 C 139.900 200.000,139.591 200.018,141.718 198.093 C 143.608 196.382,143.600 196.527,143.600 165.600 C 143.600 131.822,143.796 133.374,139.326 131.780 C 137.449 131.110,88.345 131.006,86.000 131.667 M256.400 143.800 L 256.400 150.005 287.500 149.902 L 318.600 149.800 318.600 143.800 L 318.600 137.800 287.500 137.698 L 256.400 137.595 256.400 143.800 M131.103 165.700 L 131.207 187.600 109.746 187.600 L 88.285 187.600 88.561 184.900 C 88.713 183.415,88.987 180.850,89.170 179.200 C 89.353 177.550,90.258 169.270,91.181 160.800 C 92.105 152.330,93.023 144.993,93.223 144.496 L 93.586 143.592 112.293 143.696 L 131.000 143.800 131.103 165.700 M250.000 168.800 L 250.000 174.800 256.200 174.800 L 262.400 174.800 262.400 168.800 L 262.400 162.800 256.200 162.800 L 250.000 162.800 250.000 168.800 M275.200 168.800 L 275.200 174.800 300.000 174.800 L 324.800 174.800 324.800 168.800 L 324.800 162.800 300.000 162.800 L 275.200 162.800 275.200 168.800 M220.158 176.800 C 220.135 177.790,219.955 180.580,219.758 183.000 L 219.400 187.400 200.000 187.400 L 180.600 187.400 180.512 185.600 C 180.463 184.610,180.218 182.047,179.967 179.904 C 179.716 177.762,179.616 175.735,179.744 175.401 C 179.950 174.866,182.398 174.805,200.089 174.896 L 220.200 175.000 220.158 176.800 M244.000 193.800 L 244.000 200.000 259.400 200.000 L 274.800 200.000 274.800 193.800 L 274.800 187.600 259.400 187.600 L 244.000 187.600 244.000 193.800 M287.600 193.800 L 287.600 200.000 306.200 200.000 L 324.800 200.000 324.800 193.800 L 324.800 187.600 306.200 187.600 L 287.600 187.600 287.600 193.800 M216.565 200.344 C 217.311 201.551,212.847 207.517,209.674 209.553 C 200.270 215.587,185.935 210.959,183.458 201.088 L 183.185 200.000 199.769 200.000 C 208.890 200.000,216.448 200.155,216.565 200.344 M75.200 218.800 L 75.200 224.800 93.800 224.800 L 112.400 224.800 112.400 218.800 L 112.400 212.800 93.800 212.800 L 75.200 212.800 75.200 218.800 M125.200 218.800 L 125.200 224.800 131.200 224.800 L 137.200 224.800 137.200 218.800 L 137.200 212.800 131.200 212.800 L 125.200 212.800 125.200 218.800 M237.600 218.800 L 237.600 224.800 271.800 224.800 L 306.000 224.800 306.000 218.800 L 306.000 212.800 271.800 212.800 L 237.600 212.800 237.600 218.800 M318.800 218.800 L 318.800 224.800 325.000 224.800 L 331.200 224.800 331.200 218.800 L 331.200 212.800 325.000 212.800 L 318.800 212.800 318.800 218.800 M68.890 243.700 L 69.000 249.800 96.900 249.903 L 124.800 250.005 124.800 243.803 L 124.800 237.600 96.790 237.600 L 68.779 237.600 68.890 243.700 M137.600 243.800 L 137.600 250.009 153.100 249.905 L 168.600 249.800 168.600 243.800 L 168.600 237.800 153.100 237.695 L 137.600 237.591 137.600 243.800 M225.200 243.800 L 225.200 250.000 256.200 250.000 L 287.200 250.000 287.200 243.800 L 287.200 237.600 256.200 237.600 L 225.200 237.600 225.200 243.800 M300.090 243.700 L 300.200 249.800 315.600 249.800 L 331.000 249.800 331.110 243.700 L 331.221 237.600 315.600 237.600 L 299.979 237.600 300.090 243.700 M179.600 281.758 C 185.222 282.966,188.258 284.623,192.357 288.723 C 199.068 295.436,200.942 295.435,207.643 288.714 C 211.678 284.668,214.823 282.953,220.400 281.757 C 223.703 281.049,343.200 280.912,343.200 281.616 C 343.200 281.845,342.833 282.751,342.385 283.629 C 335.593 296.943,335.438 315.000,342.003 328.006 C 342.661 329.310,343.200 330.562,343.200 330.789 C 343.200 331.061,339.092 331.200,331.000 331.200 L 318.800 331.200 318.793 314.900 C 318.786 296.166,318.812 296.316,315.210 294.498 L 313.423 293.596 272.411 293.698 L 231.400 293.800 231.400 300.000 L 231.400 306.200 243.906 306.306 L 256.412 306.411 256.306 318.706 L 256.200 331.000 239.400 331.107 C 216.511 331.252,212.952 330.282,205.587 321.887 C 201.779 317.546,197.921 317.651,194.150 322.196 C 190.946 326.059,185.997 329.122,180.877 330.412 C 177.312 331.311,56.800 331.676,56.800 330.789 C 56.800 330.562,57.318 329.347,57.950 328.089 C 58.583 326.830,59.618 324.226,60.250 322.302 L 61.400 318.804 115.000 318.702 L 168.600 318.600 168.710 312.500 L 168.821 306.400 116.310 306.394 C 87.430 306.391,63.602 306.256,63.360 306.094 C 63.118 305.932,62.797 304.000,62.647 301.800 C 62.304 296.764,60.901 291.151,58.781 286.338 C 57.876 284.282,57.039 282.285,56.921 281.900 C 56.626 280.938,175.143 280.801,179.600 281.758 M306.400 335.776 C 306.400 351.933,306.253 365.244,306.074 365.355 C 305.894 365.465,302.789 362.576,299.174 358.934 C 287.459 347.132,287.820 347.141,276.604 358.386 C 272.646 362.354,269.271 365.600,269.104 365.600 C 268.937 365.600,268.800 352.280,268.800 336.000 L 268.800 306.400 287.600 306.400 L 306.400 306.400 306.400 335.776 " stroke="none" fill="#040404" fill-rule="evenodd"></path><path id="path4" d="M93.223 144.496 C 93.023 144.993,92.105 152.330,91.181 160.800 C 90.258 169.270,89.353 177.550,89.170 179.200 C 88.987 180.850,88.713 183.415,88.561 184.900 L 88.285 187.600 109.746 187.600 L 131.207 187.600 131.103 165.700 L 131.000 143.800 112.293 143.696 L 93.586 143.592 93.223 144.496 M180.176 179.800 C 180.576 185.420,180.842 187.200,181.280 187.200 C 181.518 187.200,181.557 186.910,181.375 186.500 C 181.204 186.115,180.960 183.789,180.832 181.332 C 180.704 178.874,180.447 176.714,180.259 176.532 C 180.072 176.349,180.034 177.820,180.176 179.800 M219.473 176.953 C 219.323 177.345,219.225 179.316,219.256 181.333 L 219.312 185.000 219.648 181.000 C 219.995 176.867,219.946 175.722,219.473 176.953 M218.708 185.983 C 218.431 186.967,218.597 187.537,219.032 187.101 C 219.160 186.973,219.201 186.448,219.124 185.934 L 218.984 185.000 218.708 185.983 M209.930 200.299 C 213.301 200.366,215.999 200.551,215.926 200.711 C 214.507 203.781,213.695 205.030,211.984 206.778 C 209.663 209.148,209.469 209.799,211.665 207.845 C 213.387 206.312,216.400 201.791,216.400 200.738 C 216.400 200.048,215.989 200.006,210.100 200.089 L 203.800 200.178 209.930 200.299 M207.870 209.879 C 207.248 210.205,206.826 210.560,206.933 210.666 C 207.142 210.876,209.600 209.700,209.600 209.390 C 209.600 209.092,209.094 209.235,207.870 209.879 M193.800 211.200 C 193.936 211.420,194.532 211.587,195.124 211.572 C 196.085 211.547,196.114 211.507,195.400 211.200 C 194.289 210.722,193.505 210.722,193.800 211.200 M204.600 211.200 C 203.886 211.507,203.915 211.547,204.876 211.572 C 205.468 211.587,206.064 211.420,206.200 211.200 C 206.495 210.722,205.711 210.722,204.600 211.200 M196.915 212.080 C 197.182 212.249,198.570 212.388,200.000 212.388 C 201.430 212.388,202.818 212.249,203.085 212.080 C 203.352 211.910,201.963 211.771,200.000 211.771 C 198.037 211.771,196.648 211.910,196.915 212.080 " stroke="none" fill="#5a54f8" fill-rule="evenodd"></path></g></svg>