<?xml version="1.0" encoding="UTF-8"?>
<svg version="1.1" xmlns="http://www.w3.org/2000/svg" width="225" height="225">
<path d="M0 0 C74.25 0 148.5 0 225 0 C225 74.25 225 148.5 225 225 C150.75 225 76.5 225 0 225 C0 150.75 0 76.5 0 0 Z " fill="#FEFEFE" transform="translate(0,0)"/>
<path d="M0 0 C74.25 0 148.5 0 225 0 C225 74.25 225 148.5 225 225 C150.75 225 76.5 225 0 225 C0 150.75 0 76.5 0 0 Z M42.36328125 50.37109375 C40.78606302 51.90160154 40.78606302 51.90160154 41 54 C40.34 54 39.68 54 39 54 C37.45838513 56.07466834 36.05965829 58.1288684 34.6875 60.3125 C34.28378174 60.9504248 33.88006348 61.58834961 33.46411133 62.24560547 C30.11824395 67.62940413 27.30967435 73.08894454 25 79 C24.44699219 80.41345703 24.44699219 80.41345703 23.8828125 81.85546875 C15.40903005 105.26661225 18.05102627 130.53508977 28 153 C38.76386433 175.37549236 58.69440934 192.70150349 82 201 C82.70253906 201.27585938 83.40507813 201.55171875 84.12890625 201.8359375 C106.38310776 210.1146644 131.73154866 206.41910123 153 197 C174.68585568 186.56788952 192.07357925 167.34294296 200.25 144.75 C207.95304073 122.28091541 208.68762963 98.09717772 199 76 C196.28979048 70.50499964 193.22383726 65.20773711 190 60 C189.45690186 59.11078857 189.45690186 59.11078857 188.90283203 58.20361328 C187.99265912 56.76443659 187.00294522 55.37613414 186 54 C185.34 54 184.68 54 184 54 C183.62294922 53.13955078 183.62294922 53.13955078 183.23828125 52.26171875 C174.66280714 36.59862882 152.94977204 27.0199971 136.72265625 22.03515625 C100.8889358 12.0709003 67.79674884 25.14150166 42.36328125 50.37109375 Z " fill="#4891FE" transform="translate(0,0)"/>
<path d="M0 0 C74.25 0 148.5 0 225 0 C225 74.25 225 148.5 225 225 C150.75 225 76.5 225 0 225 C0 150.75 0 76.5 0 0 Z M76 6 C74.91332031 6.4014624 74.91332031 6.4014624 73.8046875 6.81103516 C64.93493337 10.20276237 56.77098221 14.51834152 49 20 C48.28457031 20.50402344 47.56914063 21.00804688 46.83203125 21.52734375 C24.65788878 37.69688284 10.01227052 60.5960157 3 87 C2.72071655 87.95338257 2.72071655 87.95338257 2.43579102 88.92602539 C0.45603469 96.42923979 0.55914363 104.1055168 0.5625 111.8125 C0.56176483 112.54443573 0.56102966 113.27637146 0.56027222 114.03048706 C0.59245805 126.24325851 1.74059286 137.48041893 6 149 C6.4014624 150.08667969 6.4014624 150.08667969 6.81103516 151.1953125 C10.20276237 160.06506663 14.51834152 168.22901779 20 176 C20.50402344 176.71542969 21.00804688 177.43085938 21.52734375 178.16796875 C38.45531443 201.38218849 64.31695408 218.20525625 92.67480469 223.53564453 C111.1952913 226.12198561 131.39963803 225.50779807 149 219 C149.72445312 218.7323584 150.44890625 218.4647168 151.1953125 218.18896484 C160.06506663 214.79723763 168.22901779 210.48165848 176 205 C177.07314453 204.24396484 177.07314453 204.24396484 178.16796875 203.47265625 C202.54978812 185.69326379 218.92332927 158.77237167 224 129 C224.44822486 123.63879173 224.53519277 118.31209381 224.5 112.9375 C224.49823761 112.2155545 224.49647522 111.49360901 224.49465942 110.74978638 C224.42890239 98.6302469 223.22580932 87.42871565 219 76 C218.7323584 75.27554688 218.4647168 74.55109375 218.18896484 73.8046875 C214.79723763 64.93493337 210.48165848 56.77098221 205 49 C204.24396484 47.92685547 204.24396484 47.92685547 203.47265625 46.83203125 C186.54468557 23.61781151 160.68304592 6.79474375 132.32519531 1.46435547 C113.8047087 -1.12198561 93.60036197 -0.50779807 76 6 Z " fill="#FDFDFE" transform="translate(0,0)"/>
</svg>
